<?xml version="1.0" encoding="UTF-8" standalone="no"?><!DOCTYPE svg PUBLIC "-//W3C//DTD SVG 1.1//EN" "http://www.w3.org/Graphics/SVG/1.1/DTD/svg11.dtd"><svg width="100%" height="100%" viewBox="0 0 295 201" version="1.1" xmlns="http://www.w3.org/2000/svg" xmlns:xlink="http://www.w3.org/1999/xlink" xml:space="preserve" xmlns:serif="http://www.serif.com/" style="fill-rule:evenodd;clip-rule:evenodd;stroke-linejoin:round;stroke-miterlimit:1.41421;"><rect id="Artboard1" x="0" y="0" width="294.679" height="200.205" style="fill:none;"/><g transform="matrix(0.24,0,0,0.24,113.399,6.18408)"><text x="0px" y="23.877px" style="font-family:'ArialMT', 'Arial', sans-serif;font-size:33.333px;">class color {</text><text x="0px" y="74.967px" style="font-family:'ArialMT', 'Arial', sans-serif;font-size:33.333px;">public:</text><text x="150px" y="126.058px" style="font-family:'ArialMT', 'Arial', sans-serif;font-size:33.333px;fill:#ff876c;">std::string</text><text x="303.76px" y="126.058px" style="font-family:'ArialMT', 'Arial', sans-serif;font-size:33.333px;">name;</text><text x="150px" y="177.148px" style="font-family:'ArialMT', 'Arial', sans-serif;font-size:33.333px;fill:#ff876c;">int</text><text x="194.466px" y="177.148px" style="font-family:'ArialMT', 'Arial', sans-serif;font-size:33.333px;">red;</text><text x="150px" y="228.239px" style="font-family:'ArialMT', 'Arial', sans-serif;font-size:33.333px;fill:#ff876c;">int</text><text x="194.466px" y="228.239px" style="font-family:'ArialMT', 'Arial', sans-serif;font-size:33.333px;">blue;</text><text x="150px" y="279.329px" style="font-family:'ArialMT', 'Arial', sans-serif;font-size:33.333px;fill:#ff876c;">int</text><text x="194.466px" y="279.329px" style="font-family:'ArialMT', 'Arial', sans-serif;font-size:33.333px;">green;</text><text x="0px" y="330.42px" style="font-family:'ArialMT', 'Arial', sans-serif;font-size:33.333px;">};</text><text x="0px" y="483.691px" style="font-family:'ArialMT', 'Arial', sans-serif;font-size:33.333px;">class car {</text><text x="0px" y="534.782px" style="font-family:'ArialMT', 'Arial', sans-serif;font-size:33.333px;">public:</text><text x="150px" y="585.872px" style="font-family:'ArialMT', 'Arial', sans-serif;font-size:33.333px;fill:#ff876c;">std::string</text><text x="303.76px" y="585.872px" style="font-family:'ArialMT', 'Arial', sans-serif;font-size:33.333px;">manufacturer;</text><text x="150px" y="636.963px" style="font-family:'ArialMT', 'Arial', sans-serif;font-size:33.333px;fill:#ff876c;">std::string</text><text x="303.76px" y="636.963px" style="font-family:'ArialMT', 'Arial', sans-serif;font-size:33.333px;">model;</text><text x="150px" y="688.053px" style="font-family:'ArialMT', 'Arial', sans-serif;font-size:33.333px;fill:#ff876c;">int</text><text x="194.466px" y="688.053px" style="font-family:'ArialMT', 'Arial', sans-serif;font-size:33.333px;">year_of_construction;</text><text x="150px" y="739.144px" style="font-family:'ArialMT', 'Arial', sans-serif;font-size:33.333px;fill:#ff876c;">color</text><text x="231.51px" y="739.144px" style="font-family:'ArialMT', 'Arial', sans-serif;font-size:33.333px;">color;</text><text x="0px" y="790.234px" style="font-family:'ArialMT', 'Arial', sans-serif;font-size:33.333px;">};</text></g><g><text x="243.681px" y="183.66px" style="font-family:'ArialMT', 'Arial', sans-serif;font-size:9px;fill:#8de389;">gpds::value</text><text x="238.347px" y="183.79px" style="font-family:'ArialNarrow', 'Arial', sans-serif;font-stretch:condensed;font-size:10px;fill:#8de389;">}</text></g><g><text x="243.608px" y="72.899px" style="font-family:'ArialMT', 'Arial', sans-serif;font-size:9px;fill:#8de389;">gpds::value</text><text x="238.274px" y="73.029px" style="font-family:'ArialNarrow', 'Arial', sans-serif;font-stretch:condensed;font-size:10px;fill:#8de389;">}</text></g><g><text x="243.681px" y="171.413px" style="font-family:'ArialMT', 'Arial', sans-serif;font-size:9px;fill:#8de389;">gpds::value</text><text x="238.347px" y="171.542px" style="font-family:'ArialNarrow', 'Arial', sans-serif;font-stretch:condensed;font-size:10px;fill:#8de389;">}</text></g><g><text x="243.608px" y="60.652px" style="font-family:'ArialMT', 'Arial', sans-serif;font-size:9px;fill:#8de389;">gpds::value</text><text x="238.274px" y="60.781px" style="font-family:'ArialNarrow', 'Arial', sans-serif;font-stretch:condensed;font-size:10px;fill:#8de389;">}</text></g><g><text x="243.681px" y="159.165px" style="font-family:'ArialMT', 'Arial', sans-serif;font-size:9px;fill:#8de389;">gpds::value</text><text x="238.347px" y="159.295px" style="font-family:'ArialNarrow', 'Arial', sans-serif;font-stretch:condensed;font-size:10px;fill:#8de389;">}</text></g><g><text x="243.608px" y="48.404px" style="font-family:'ArialMT', 'Arial', sans-serif;font-size:9px;fill:#8de389;">gpds::value</text><text x="238.274px" y="48.534px" style="font-family:'ArialNarrow', 'Arial', sans-serif;font-stretch:condensed;font-size:10px;fill:#8de389;">}</text></g><g><text x="243.681px" y="146.918px" style="font-family:'ArialMT', 'Arial', sans-serif;font-size:9px;fill:#8de389;">gpds::value</text><text x="238.347px" y="147.047px" style="font-family:'ArialNarrow', 'Arial', sans-serif;font-stretch:condensed;font-size:10px;fill:#8de389;">}</text></g><g><text x="243.608px" y="36.157px" style="font-family:'ArialMT', 'Arial', sans-serif;font-size:9px;fill:#8de389;">gpds::value</text><text x="238.274px" y="36.287px" style="font-family:'ArialNarrow', 'Arial', sans-serif;font-stretch:condensed;font-size:10px;fill:#8de389;">}</text></g><path d="M109.998,116.291c-2.606,0 -4.352,0.612 -5.236,1.836c-0.884,1.224 -1.327,4.049 -1.327,8.476c0,9.256 -0.186,15.125 -0.558,17.607c-0.497,3.353 -1.303,5.927 -2.42,7.722c-1.117,1.794 -2.778,3.395 -4.981,4.804c2.7,1.511 4.701,3.828 6.005,6.95c1.303,3.123 1.954,8.361 1.954,15.715c0,7.421 0.109,11.753 0.326,12.995c0.311,1.779 0.885,3.03 1.722,3.752c0.838,0.722 2.343,1.083 4.515,1.083" style="fill:none;fill-rule:nonzero;stroke:#acc7ff;stroke-width:2px;"/><text x="25.433px" y="49.175px" style="font-family:'ArialMT', 'Arial', sans-serif;font-size:9px;fill:#acc7ff;stroke:#acc7ff;stroke-width:0.24px;">gpds::container</text><text x="25.433px" y="159.143px" style="font-family:'ArialMT', 'Arial', sans-serif;font-size:9px;fill:#acc7ff;stroke:#acc7ff;stroke-width:0.24px;">gpds::container</text><path d="M109.998,6.323c-2.606,0 -4.352,0.612 -5.236,1.836c-0.884,1.224 -1.327,4.05 -1.327,8.477c0,9.256 -0.186,15.125 -0.558,17.606c-0.497,3.354 -1.303,5.928 -2.42,7.722c-1.117,1.795 -2.778,3.396 -4.981,4.804c2.7,1.511 4.701,3.828 6.005,6.951c1.303,3.123 1.954,8.361 1.954,15.715c0,7.421 0.109,11.752 0.326,12.994c0.311,1.78 0.885,3.031 1.722,3.753c0.838,0.722 2.343,1.083 4.515,1.083" style="fill:none;fill-rule:nonzero;stroke:#acc7ff;stroke-width:2px;"/></svg>