<?xml version="1.0" encoding="UTF-8" standalone="no"?><!DOCTYPE svg PUBLIC "-//W3C//DTD SVG 1.1//EN" "http://www.w3.org/Graphics/SVG/1.1/DTD/svg11.dtd"><svg width="100%" height="100%" viewBox="0 0 256 201" version="1.1" xmlns="http://www.w3.org/2000/svg" xmlns:xlink="http://www.w3.org/1999/xlink" xml:space="preserve" xmlns:serif="http://www.serif.com/" style="fill-rule:evenodd;clip-rule:evenodd;stroke-linejoin:round;stroke-miterlimit:1.41421;"><rect id="Artboard1" x="0" y="0" width="255.679" height="200.205" style="fill:none;"/><g transform="matrix(0.24,0,0,0.24,74.3991,6.18408)"><text x="0px" y="23.877px" style="font-family:'ArialMT', 'Arial', sans-serif;font-size:33.333px;">class Color {</text><text x="0px" y="74.967px" style="font-family:'ArialMT', 'Arial', sans-serif;font-size:33.333px;">public:</text><text x="150px" y="126.058px" style="font-family:'ArialMT', 'Arial', sans-serif;font-size:33.333px;fill:#ff876c;">std::string</text><text x="303.76px" y="126.058px" style="font-family:'ArialMT', 'Arial', sans-serif;font-size:33.333px;">name;</text><text x="150px" y="177.148px" style="font-family:'ArialMT', 'Arial', sans-serif;font-size:33.333px;fill:#ff876c;">int</text><text x="194.466px" y="177.148px" style="font-family:'ArialMT', 'Arial', sans-serif;font-size:33.333px;">red;</text><text x="150px" y="228.239px" style="font-family:'ArialMT', 'Arial', sans-serif;font-size:33.333px;fill:#ff876c;">int</text><text x="194.466px" y="228.239px" style="font-family:'ArialMT', 'Arial', sans-serif;font-size:33.333px;">blue;</text><text x="150px" y="279.329px" style="font-family:'ArialMT', 'Arial', sans-serif;font-size:33.333px;fill:#ff876c;">int</text><text x="194.466px" y="279.329px" style="font-family:'ArialMT', 'Arial', sans-serif;font-size:33.333px;">green;</text><text x="0px" y="330.42px" style="font-family:'ArialMT', 'Arial', sans-serif;font-size:33.333px;">};</text><text x="0px" y="483.691px" style="font-family:'ArialMT', 'Arial', sans-serif;font-size:33.333px;">class Car {</text><text x="0px" y="534.782px" style="font-family:'ArialMT', 'Arial', sans-serif;font-size:33.333px;">public:</text><text x="150px" y="585.872px" style="font-family:'ArialMT', 'Arial', sans-serif;font-size:33.333px;fill:#ff876c;">std::string</text><text x="303.76px" y="585.872px" style="font-family:'ArialMT', 'Arial', sans-serif;font-size:33.333px;">manufacturer;</text><text x="150px" y="636.963px" style="font-family:'ArialMT', 'Arial', sans-serif;font-size:33.333px;fill:#ff876c;">std::string</text><text x="303.76px" y="636.963px" style="font-family:'ArialMT', 'Arial', sans-serif;font-size:33.333px;">model;</text><text x="150px" y="688.053px" style="font-family:'ArialMT', 'Arial', sans-serif;font-size:33.333px;fill:#ff876c;">int</text><text x="194.466px" y="688.053px" style="font-family:'ArialMT', 'Arial', sans-serif;font-size:33.333px;">yearOfConstruction;</text><text x="150px" y="739.144px" style="font-family:'ArialMT', 'Arial', sans-serif;font-size:33.333px;fill:#ff876c;">Color</text><text x="238.916px" y="739.144px" style="font-family:'ArialMT', 'Arial', sans-serif;font-size:33.333px;">color;</text><text x="0px" y="790.234px" style="font-family:'ArialMT', 'Arial', sans-serif;font-size:33.333px;">};</text></g><g><text x="204.681px" y="183.66px" style="font-family:'ArialMT', 'Arial', sans-serif;font-size:9px;fill:#8de389;">Gpds::V<tspan x="236.528px 241.533px " y="183.66px 183.66px ">al</tspan>ue</text><text x="199.347px" y="183.79px" style="font-family:'ArialNarrow', 'Arial', sans-serif;font-stretch:condensed;font-size:10px;fill:#8de389;">}</text></g><g><text x="204.608px" y="72.899px" style="font-family:'ArialMT', 'Arial', sans-serif;font-size:9px;fill:#8de389;">Gpds::V<tspan x="236.455px 241.46px " y="72.899px 72.899px ">al</tspan>ue</text><text x="199.274px" y="73.029px" style="font-family:'ArialNarrow', 'Arial', sans-serif;font-stretch:condensed;font-size:10px;fill:#8de389;">}</text></g><g><text x="204.681px" y="171.413px" style="font-family:'ArialMT', 'Arial', sans-serif;font-size:9px;fill:#8de389;">Gpds::V<tspan x="236.528px 241.533px " y="171.413px 171.413px ">al</tspan>ue</text><text x="199.347px" y="171.542px" style="font-family:'ArialNarrow', 'Arial', sans-serif;font-stretch:condensed;font-size:10px;fill:#8de389;">}</text></g><g><text x="204.608px" y="60.652px" style="font-family:'ArialMT', 'Arial', sans-serif;font-size:9px;fill:#8de389;">Gpds::V<tspan x="236.455px 241.46px " y="60.652px 60.652px ">al</tspan>ue</text><text x="199.274px" y="60.781px" style="font-family:'ArialNarrow', 'Arial', sans-serif;font-stretch:condensed;font-size:10px;fill:#8de389;">}</text></g><g><text x="204.681px" y="159.165px" style="font-family:'ArialMT', 'Arial', sans-serif;font-size:9px;fill:#8de389;">Gpds::V<tspan x="236.528px 241.533px " y="159.165px 159.165px ">al</tspan>ue</text><text x="199.347px" y="159.295px" style="font-family:'ArialNarrow', 'Arial', sans-serif;font-stretch:condensed;font-size:10px;fill:#8de389;">}</text></g><g><text x="204.608px" y="48.404px" style="font-family:'ArialMT', 'Arial', sans-serif;font-size:9px;fill:#8de389;">Gpds::V<tspan x="236.455px 241.46px " y="48.404px 48.404px ">al</tspan>ue</text><text x="199.274px" y="48.534px" style="font-family:'ArialNarrow', 'Arial', sans-serif;font-stretch:condensed;font-size:10px;fill:#8de389;">}</text></g><g><text x="204.681px" y="146.918px" style="font-family:'ArialMT', 'Arial', sans-serif;font-size:9px;fill:#8de389;">Gpds::V<tspan x="236.528px 241.533px " y="146.918px 146.918px ">al</tspan>ue</text><text x="199.347px" y="147.047px" style="font-family:'ArialNarrow', 'Arial', sans-serif;font-stretch:condensed;font-size:10px;fill:#8de389;">}</text></g><g><text x="204.608px" y="36.157px" style="font-family:'ArialMT', 'Arial', sans-serif;font-size:9px;fill:#8de389;">Gpds::V<tspan x="236.455px 241.46px " y="36.157px 36.157px ">al</tspan>ue</text><text x="199.274px" y="36.287px" style="font-family:'ArialNarrow', 'Arial', sans-serif;font-stretch:condensed;font-size:10px;fill:#8de389;">}</text></g><text x="2.903px" y="159.143px" style="font-family:'ArialMT', 'Arial', sans-serif;font-size:9px;fill:#acc7ff;stroke:#acc7ff;stroke-width:0.24px;">Gpds::V<tspan x="34.75px 39.755px " y="159.143px 159.143px ">al</tspan>ue</text><path d="M70.998,116.291c-2.606,0 -4.352,0.612 -5.236,1.836c-0.884,1.224 -1.326,4.049 -1.326,8.476c0,9.256 -0.187,15.125 -0.559,17.607c-0.496,3.353 -1.303,5.927 -2.42,7.722c-1.117,1.794 -2.778,3.395 -4.981,4.804c2.7,1.511 4.701,3.828 6.005,6.95c1.303,3.123 1.955,8.361 1.955,15.715c0,7.421 0.108,11.753 0.325,12.995c0.311,1.779 0.885,3.03 1.722,3.752c0.838,0.722 2.343,1.083 4.515,1.083" style="fill:none;stroke:#acc7ff;stroke-width:2px;"/><text x="2.903px" y="49.175px" style="font-family:'ArialMT', 'Arial', sans-serif;font-size:9px;fill:#acc7ff;stroke:#acc7ff;stroke-width:0.24px;">Gpds::V<tspan x="34.75px 39.755px " y="49.175px 49.175px ">al</tspan>ue</text><path d="M70.998,6.323c-2.606,0 -4.352,0.612 -5.236,1.836c-0.884,1.224 -1.326,4.05 -1.326,8.477c0,9.256 -0.187,15.125 -0.559,17.606c-0.496,3.354 -1.303,5.928 -2.42,7.722c-1.117,1.795 -2.778,3.396 -4.981,4.804c2.7,1.511 4.701,3.828 6.005,6.951c1.303,3.123 1.955,8.361 1.955,15.715c0,7.421 0.108,11.752 0.325,12.994c0.311,1.78 0.885,3.031 1.722,3.753c0.838,0.722 2.343,1.083 4.515,1.083" style="fill:none;stroke:#acc7ff;stroke-width:2px;"/></svg>