<svg version="1.1" xmlns="http://www.w3.org/2000/svg" xmlns:xlink="http://www.w3.org/1999/xlink" width="405.2216796875" height="327"><defs/><g><g transform="translate(-94,-88) scale(1,1)"><rect fill="#C0C0C0" stroke="none" x="111" y="105" width="380.7314453125" height="107" opacity="0.2"/></g><g transform="translate(-94,-88) scale(1,1)"><rect fill="#ffffff" stroke="none" x="104" y="98" width="380.7314453125" height="107"/></g><g transform="translate(-94,-88) scale(1,1)"><path fill="none" stroke="#000000" d="M 104 98 L 484.7314453125 98 L 484.7314453125 205 L 104 205 L 104 98 Z Z" stroke-miterlimit="10"/></g><g transform="translate(-94,-88) scale(1,1)"><path fill="none" stroke="#000000" d="M 104 138 L 484.7314453125 138" stroke-miterlimit="10"/></g><g transform="translate(-94,-88) scale(1,1)"><g><path fill="none" stroke="none"/><text fill="#000000" stroke="none" font-family="Arial" font-size="13px" font-style="italic" font-weight="bold" text-decoration="none" x="271.24755859375" y="117.5">archiver</text></g></g><g transform="translate(-94,-88) scale(1,1)"><g><path fill="none" stroke="none"/><text fill="#000000" stroke="none" font-family="Arial" font-size="13px" font-style="normal" font-weight="normal" text-decoration="none" x="261.1357421875" y="132.5">(from gpds)</text></g></g><g transform="translate(-94,-88) scale(1,1)"><g><path fill="none" stroke="none"/><text fill="#000000" stroke="none" font-family="Arial" font-size="13px" font-style="italic" font-weight="normal" text-decoration="none" x="109" y="155.5">+save(stream: ostream, c: value, rootName: string): bool</text></g></g><g transform="translate(-94,-88) scale(1,1)"><g><path fill="none" stroke="none"/><text fill="#000000" stroke="none" font-family="Arial" font-size="13px" font-style="normal" font-weight="normal" text-decoration="none" x="109" y="170.5">+save(stream: ostream, object: serialize, rootName: string): bool</text></g></g><g transform="translate(-94,-88) scale(1,1)"><g><path fill="none" stroke="none"/><text fill="#000000" stroke="none" font-family="Arial" font-size="13px" font-style="italic" font-weight="normal" text-decoration="none" x="109" y="185.5">+load(stream: istream, c: value, rootName: string): bool</text></g></g><g transform="translate(-94,-88) scale(1,1)"><g><path fill="none" stroke="none"/><text fill="#000000" stroke="none" font-family="Arial" font-size="13px" font-style="normal" font-weight="normal" text-decoration="none" x="109" y="200.5">+load(stream: istream, object: serialize, rootName: string): bool</text></g></g><g transform="translate(-94,-88) scale(1,1)"><rect fill="#C0C0C0" stroke="none" x="407" y="335" width="89.2216796875" height="48" opacity="0.2"/></g><g transform="translate(-94,-88) scale(1,1)"><rect fill="#ffffff" stroke="none" x="400" y="328" width="89.2216796875" height="48"/></g><g transform="translate(-94,-88) scale(1,1)"><path fill="none" stroke="#000000" d="M 400 328 L 489.2216796875 328 L 489.2216796875 376 L 400 376 L 400 328 Z Z" stroke-miterlimit="10"/></g><g transform="translate(-94,-88) scale(1,1)"><g><path fill="none" stroke="none"/><text fill="#000000" stroke="none" font-family="Arial" font-size="13px" font-style="normal" font-weight="bold" text-decoration="none" x="407.76904296875" y="347.5">archiver_xml</text></g></g><g transform="translate(-94,-88) scale(1,1)"><g><path fill="none" stroke="none"/><text fill="#000000" stroke="none" font-family="Arial" font-size="13px" font-style="normal" font-weight="normal" text-decoration="none" x="411.380859375" y="362.5">(from gpds)</text></g></g><g transform="translate(-94,-88) scale(1,1)"><path fill="none" stroke="#000000" d="M 440 328 L 440 205" stroke-miterlimit="10"/></g><g transform="translate(-94,-88) scale(1,1)"><path fill="#FFFFFF" stroke="none" d="M 448.419035512032 225.3253497152483 L 440 205 L 431.580964487968 225.3253497152483"/></g><g transform="translate(-94,-88) scale(1,1)"><path fill="none" stroke="#000000" d="M 448.419035512032 225.3253497152483 L 440 205 L 431.580964487968 225.3253497152483 L 448.419035512032 225.3253497152483" stroke-miterlimit="10"/></g><g transform="translate(-94,-88) scale(1,1)"><rect fill="#C0C0C0" stroke="none" x="111" y="295" width="153.9169921875" height="117" opacity="0.2"/></g><g transform="translate(-94,-88) scale(1,1)"><rect fill="#ffffff" stroke="none" x="104" y="288" width="153.9169921875" height="117"/></g><g transform="translate(-94,-88) scale(1,1)"><path fill="none" stroke="#000000" d="M 104 288 L 257.9169921875 288 L 257.9169921875 405 L 104 405 L 104 288 Z Z" stroke-miterlimit="10"/></g><g transform="translate(-94,-88) scale(1,1)"><path fill="none" stroke="#000000" d="M 104 328 L 257.9169921875 328" stroke-miterlimit="10"/></g><g transform="translate(-94,-88) scale(1,1)"><g><path fill="none" stroke="none"/><text fill="#000000" stroke="none" font-family="Arial" font-size="13px" font-style="normal" font-weight="bold" text-decoration="none" x="158.5576171875" y="307.5">settings</text></g></g><g transform="translate(-94,-88) scale(1,1)"><g><path fill="none" stroke="none"/><text fill="#000000" stroke="none" font-family="Arial" font-size="13px" font-style="normal" font-weight="normal" text-decoration="none" x="124.981689453125" y="322.5">(from archiver_xml)</text></g></g><g transform="translate(-94,-88) scale(1,1)"><g><path fill="none" stroke="none"/><text fill="#000000" stroke="none" font-family="Arial" font-size="13px" font-style="normal" font-weight="normal" text-decoration="none" x="109" y="345.5">+printComments: bool</text></g></g><g transform="translate(-94,-88) scale(1,1)"><g><path fill="none" stroke="none"/><text fill="#000000" stroke="none" font-family="Arial" font-size="13px" font-style="normal" font-weight="normal" text-decoration="none" x="109" y="360.5">+prefixAnnotations: bool</text></g></g><g transform="translate(-94,-88) scale(1,1)"><g><path fill="none" stroke="none"/><text fill="#000000" stroke="none" font-family="Arial" font-size="13px" font-style="normal" font-weight="normal" text-decoration="none" x="109" y="375.5">+annotateListCount: bool</text></g></g><g transform="translate(-94,-88) scale(1,1)"><g><path fill="none" stroke="none"/><text fill="#000000" stroke="none" font-family="Arial" font-size="13px" font-style="normal" font-weight="normal" text-decoration="none" x="109" y="390.5">+annotateTypes: bool</text></g></g><g transform="translate(-94,-88) scale(1,1)"><path fill="none" stroke="#000000" d="M 258 353 L 400 353" stroke-miterlimit="10"/></g><g transform="translate(-94,-88) scale(1,1)"><path fill="#000000" stroke="none" d="M 389.83732514237585 357.209517756016 L 400 353 L 389.83732514237585 348.790482243984 L 378 353"/></g><g transform="translate(-94,-88) scale(1,1)"><path fill="none" stroke="#000000" d="M 389.83732514237585 357.209517756016 L 400 353 L 389.83732514237585 348.790482243984 L 378 353 L 389.83732514237585 357.209517756016" stroke-miterlimit="10"/></g><g transform="translate(-94,-88) scale(1,1)"><g><path fill="none" stroke="none"/><text fill="#000000" stroke="none" font-family="Arial" font-size="13px" font-style="normal" font-weight="normal" text-decoration="none" x="270.5" y="371.5">+settings</text></g></g><g transform="translate(-94,-88) scale(1,1)"><g><path fill="none" stroke="none"/><text fill="#000000" stroke="none" font-family="Arial" font-size="13px" font-style="normal" font-weight="normal" text-decoration="none" x="271.5" y="340.5">1</text></g></g></g></svg>