<svg version="1.1" xmlns="http://www.w3.org/2000/svg" xmlns:xlink="http://www.w3.org/1999/xlink" width="612" height="364"><defs/><g><g transform="translate(-617,-373) scale(1,1)"><rect fill="#C0C0C0" stroke="none" x="634" y="390" width="326.10986328125" height="344" opacity="0.2"/></g><g transform="translate(-617,-373) scale(1,1)"><rect fill="#ffffff" stroke="none" x="627" y="383" width="326.10986328125" height="344"/></g><g transform="translate(-617,-373) scale(1,1)"><path fill="none" stroke="#000000" d="M 627 383 L 953.10986328125 383 L 953.10986328125 727 L 627 727 L 627 383 Z Z" stroke-miterlimit="10"/></g><g transform="translate(-617,-373) scale(1,1)"><path fill="none" stroke="#000000" d="M 627 408 L 953.10986328125 408" stroke-miterlimit="10"/></g><g transform="translate(-617,-373) scale(1,1)"><path fill="none" stroke="#000000" d="M 627 431 L 953.10986328125 431" stroke-miterlimit="10"/></g><g transform="translate(-617,-373) scale(1,1)"><g><path fill="none" stroke="none"/><text fill="#000000" stroke="none" font-family="Arial" font-size="13px" font-style="normal" font-weight="bold" text-decoration="none" x="761.871337890625" y="402.5">Container</text></g></g><g transform="translate(-617,-373) scale(1,1)"><g><path fill="none" stroke="none"/><text fill="#000000" stroke="none" font-family="Arial" font-size="13px" font-style="normal" font-weight="normal" text-decoration="none" x="632" y="425.5">+name : std::string</text></g></g><g transform="translate(-617,-373) scale(1,1)"><g><path fill="none" stroke="none"/><text fill="#000000" stroke="none" font-family="Arial" font-size="13px" font-style="normal" font-weight="normal" text-decoration="none" x="632" y="448.5">+typeString(type: ValueType): string</text></g></g><g transform="translate(-617,-373) scale(1,1)"><g><path fill="none" stroke="none"/><text fill="#000000" stroke="none" font-family="Arial" font-size="13px" font-style="normal" font-weight="normal" text-decoration="none" x="632" y="463.5">+addEntry(name: string, type: ValueType, value: Value)</text></g></g><g transform="translate(-617,-373) scale(1,1)"><g><path fill="none" stroke="none"/><text fill="#000000" stroke="none" font-family="Arial" font-size="13px" font-style="normal" font-weight="normal" text-decoration="none" x="632" y="478.5">+addEntry(name: string, value: bool)</text></g></g><g transform="translate(-617,-373) scale(1,1)"><g><path fill="none" stroke="none"/><text fill="#000000" stroke="none" font-family="Arial" font-size="13px" font-style="normal" font-weight="normal" text-decoration="none" x="632" y="493.5">+addEntry(name: string, value: int)</text></g></g><g transform="translate(-617,-373) scale(1,1)"><g><path fill="none" stroke="none"/><text fill="#000000" stroke="none" font-family="Arial" font-size="13px" font-style="normal" font-weight="normal" text-decoration="none" x="632" y="508.5">+addEntry(name: string, value: double)</text></g></g><g transform="translate(-617,-373) scale(1,1)"><g><path fill="none" stroke="none"/><text fill="#000000" stroke="none" font-family="Arial" font-size="13px" font-style="normal" font-weight="normal" text-decoration="none" x="632" y="523.5">+addEntry(name: string, value: string)</text></g></g><g transform="translate(-617,-373) scale(1,1)"><g><path fill="none" stroke="none"/><text fill="#000000" stroke="none" font-family="Arial" font-size="13px" font-style="normal" font-weight="normal" text-decoration="none" x="632" y="538.5">+addEntry(name: string, value: Container)</text></g></g><g transform="translate(-617,-373) scale(1,1)"><g><path fill="none" stroke="none"/><text fill="#000000" stroke="none" font-family="Arial" font-size="13px" font-style="normal" font-weight="normal" text-decoration="none" x="632" y="553.5">+getEntry(name: string): Value</text></g></g><g transform="translate(-617,-373) scale(1,1)"><g><path fill="none" stroke="none"/><text fill="#000000" stroke="none" font-family="Arial" font-size="13px" font-style="normal" font-weight="normal" text-decoration="none" x="632" y="568.5">+getEntries(name: string): Value[0..*]</text></g></g><g transform="translate(-617,-373) scale(1,1)"><g><path fill="none" stroke="none"/><text fill="#000000" stroke="none" font-family="Arial" font-size="13px" font-style="normal" font-weight="normal" text-decoration="none" x="632" y="583.5">+addArgument(name: string, value: string)</text></g></g><g transform="translate(-617,-373) scale(1,1)"><g><path fill="none" stroke="none"/><text fill="#000000" stroke="none" font-family="Arial" font-size="13px" font-style="normal" font-weight="normal" text-decoration="none" x="632" y="598.5">+getArgument(name: string): string</text></g></g><g transform="translate(-617,-373) scale(1,1)"><g><path fill="none" stroke="none"/><text fill="#000000" stroke="none" font-family="Arial" font-size="13px" font-style="normal" font-weight="normal" text-decoration="none" x="632" y="613.5">+isList(): bool</text></g></g><g transform="translate(-617,-373) scale(1,1)"><rect fill="#C0C0C0" stroke="none" x="1098" y="390" width="125.34619140625" height="135" opacity="0.2"/></g><g transform="translate(-617,-373) scale(1,1)"><rect fill="#ffffff" stroke="none" x="1091" y="383" width="125.34619140625" height="135"/></g><g transform="translate(-617,-373) scale(1,1)"><path fill="none" stroke="#000000" d="M 1091 383 L 1216.34619140625 383 L 1216.34619140625 518 L 1091 518 L 1091 383 Z Z" stroke-miterlimit="10"/></g><g transform="translate(-617,-373) scale(1,1)"><path fill="none" stroke="#000000" d="M 1091 436 L 1216.34619140625 436" stroke-miterlimit="10"/></g><g transform="translate(-617,-373) scale(1,1)"><g><path fill="none" stroke="none"/><text fill="#000000" stroke="none" font-family="Arial" font-size="13px" font-style="normal" font-weight="normal" text-decoration="none" x="1110.30908203125" y="400.5">«enumeration»</text></g></g><g transform="translate(-617,-373) scale(1,1)"><g><path fill="none" stroke="none"/><text fill="#000000" stroke="none" font-family="Arial" font-size="13px" font-style="normal" font-weight="bold" text-decoration="none" x="1123.439208984375" y="415.5">ValueType</text></g></g><g transform="translate(-617,-373) scale(1,1)"><g><path fill="none" stroke="none"/><text fill="#000000" stroke="none" font-family="Arial" font-size="13px" font-style="normal" font-weight="normal" text-decoration="none" x="1106.3544921875" y="430.5">(from Container)</text></g></g><g transform="translate(-617,-373) scale(1,1)"><g><path fill="none" stroke="none"/><text fill="#000000" stroke="none" font-family="Arial" font-size="13px" font-style="normal" font-weight="normal" text-decoration="none" x="1096" y="453.5">BoolType</text></g></g><g transform="translate(-617,-373) scale(1,1)"><g><path fill="none" stroke="none"/><text fill="#000000" stroke="none" font-family="Arial" font-size="13px" font-style="normal" font-weight="normal" text-decoration="none" x="1096" y="468.5">IntType</text></g></g><g transform="translate(-617,-373) scale(1,1)"><g><path fill="none" stroke="none"/><text fill="#000000" stroke="none" font-family="Arial" font-size="13px" font-style="normal" font-weight="normal" text-decoration="none" x="1096" y="483.5">DoubleType</text></g></g><g transform="translate(-617,-373) scale(1,1)"><g><path fill="none" stroke="none"/><text fill="#000000" stroke="none" font-family="Arial" font-size="13px" font-style="normal" font-weight="normal" text-decoration="none" x="1096" y="498.5">StringType</text></g></g><g transform="translate(-617,-373) scale(1,1)"><g><path fill="none" stroke="none"/><text fill="#000000" stroke="none" font-family="Arial" font-size="13px" font-style="normal" font-weight="normal" text-decoration="none" x="1096" y="513.5">ContainerType</text></g></g><g transform="translate(-617,-373) scale(1,1)"><path fill="none" stroke="#000000" d="M 953 455 L 1091 455" stroke-miterlimit="10"/></g><g transform="translate(-617,-373) scale(1,1)"><path fill="none" stroke="#000000" d="M 1080.837325142376 459.209517756016 L 1091 455 L 1080.837325142376 450.790482243984" stroke-miterlimit="10"/></g><g transform="translate(-617,-373) scale(1,1)"><rect fill="#C0C0C0" stroke="none" x="1098" y="558" width="128" height="59" opacity="0.2"/></g><g transform="translate(-617,-373) scale(1,1)"><rect fill="#ffffff" stroke="none" x="1091" y="551" width="128" height="59"/></g><g transform="translate(-617,-373) scale(1,1)"><path fill="none" stroke="#000000" d="M 1091 551 L 1219 551 L 1219 610 L 1091 610 L 1091 551 Z Z" stroke-miterlimit="10"/></g><g transform="translate(-617,-373) scale(1,1)"><g><path fill="none" stroke="none"/><text fill="#000000" stroke="none" font-family="Arial" font-size="13px" font-style="normal" font-weight="bold" text-decoration="none" x="1138.85791015625" y="570.5">Value</text></g></g><g transform="translate(-617,-373) scale(1,1)"><g><path fill="none" stroke="none"/><text fill="#000000" stroke="none" font-family="Arial" font-size="13px" font-style="normal" font-weight="normal" text-decoration="none" x="1107.681396484375" y="585.5">(from Container)</text></g></g><g transform="translate(-617,-373) scale(1,1)"><path fill="none" stroke="#000000" d="M 1091 575 L 953 575" stroke-miterlimit="10"/></g><g transform="translate(-617,-373) scale(1,1)"><path fill="#000000" stroke="none" d="M 963.1626748576241 570.790482243984 L 953 575 L 963.1626748576241 579.209517756016 L 975 575"/></g><g transform="translate(-617,-373) scale(1,1)"><path fill="none" stroke="#000000" d="M 963.1626748576241 570.790482243984 L 953 575 L 963.1626748576241 579.209517756016 L 975 575 L 963.1626748576241 570.790482243984" stroke-miterlimit="10"/></g><g transform="translate(-617,-373) scale(1,1)"><path fill="none" stroke="#000000" d="M 1080.837325142376 579.209517756016 L 1091 575 L 1080.837325142376 570.790482243984" stroke-miterlimit="10"/></g><g transform="translate(-617,-373) scale(1,1)"><g><path fill="none" stroke="none"/><text fill="#000000" stroke="none" font-family="Arial" font-size="13px" font-style="normal" font-weight="normal" text-decoration="none" x="1007.5" y="595.5">«map»</text></g></g><g transform="translate(-617,-373) scale(1,1)"><g><path fill="none" stroke="none"/><text fill="#000000" stroke="none" font-family="Arial" font-size="13px" font-style="normal" font-weight="normal" text-decoration="none" x="1058.74365234375" y="568.5">0..*</text></g></g><g transform="translate(-617,-373) scale(1,1)"><rect fill="#C0C0C0" stroke="none" x="1098" y="654" width="128" height="80" opacity="0.2"/></g><g transform="translate(-617,-373) scale(1,1)"><rect fill="#ffffff" stroke="none" x="1091" y="647" width="128" height="80"/></g><g transform="translate(-617,-373) scale(1,1)"><path fill="none" stroke="#000000" d="M 1091 647 L 1219 647 L 1219 727 L 1091 727 L 1091 647 Z Z" stroke-miterlimit="10"/></g><g transform="translate(-617,-373) scale(1,1)"><path fill="none" stroke="#000000" d="M 1091 687 L 1219 687" stroke-miterlimit="10"/></g><g transform="translate(-617,-373) scale(1,1)"><g><path fill="none" stroke="none"/><text fill="#000000" stroke="none" font-family="Arial" font-size="13px" font-style="normal" font-weight="bold" text-decoration="none" x="1126.819580078125" y="666.5">Argument</text></g></g><g transform="translate(-617,-373) scale(1,1)"><g><path fill="none" stroke="none"/><text fill="#000000" stroke="none" font-family="Arial" font-size="13px" font-style="normal" font-weight="normal" text-decoration="none" x="1120.3291015625" y="681.5">(from Gpds)</text></g></g><g transform="translate(-617,-373) scale(1,1)"><g><path fill="none" stroke="none"/><text fill="#000000" stroke="none" font-family="Arial" font-size="13px" font-style="normal" font-weight="normal" text-decoration="none" x="1096" y="704.5">+key: string</text></g></g><g transform="translate(-617,-373) scale(1,1)"><g><path fill="none" stroke="none"/><text fill="#000000" stroke="none" font-family="Arial" font-size="13px" font-style="normal" font-weight="normal" text-decoration="none" x="1096" y="719.5">+value: string</text></g></g><g transform="translate(-617,-373) scale(1,1)"><path fill="none" stroke="#000000" d="M 1091 695 L 953 695" stroke-miterlimit="10"/></g><g transform="translate(-617,-373) scale(1,1)"><path fill="#000000" stroke="none" d="M 963.1626748576241 690.790482243984 L 953 695 L 963.1626748576241 699.209517756016 L 975 695"/></g><g transform="translate(-617,-373) scale(1,1)"><path fill="none" stroke="#000000" d="M 963.1626748576241 690.790482243984 L 953 695 L 963.1626748576241 699.209517756016 L 975 695 L 963.1626748576241 690.790482243984" stroke-miterlimit="10"/></g><g transform="translate(-617,-373) scale(1,1)"><path fill="none" stroke="#000000" d="M 1080.837325142376 699.209517756016 L 1091 695 L 1080.837325142376 690.790482243984" stroke-miterlimit="10"/></g><g transform="translate(-617,-373) scale(1,1)"><g><path fill="none" stroke="none"/><text fill="#000000" stroke="none" font-family="Arial" font-size="13px" font-style="normal" font-weight="normal" text-decoration="none" x="1018.5" y="715.5">+arguments</text></g></g></g></svg>