<svg version="1.1" xmlns="http://www.w3.org/2000/svg" xmlns:xlink="http://www.w3.org/1999/xlink" width="678.14697265625" height="482"><defs/><g><g transform="translate(-278,-110) scale(1,1)"><rect fill="#C0C0C0" stroke="none" x="495" y="127" width="183.4970703125" height="77" opacity="0.2"/></g><g transform="translate(-278,-110) scale(1,1)"><rect fill="#ffffff" stroke="none" x="488" y="120" width="183.4970703125" height="77"/></g><g transform="translate(-278,-110) scale(1,1)"><path fill="none" stroke="#000000" d="M 488 120 L 671.4970703125 120 L 671.4970703125 197 L 488 197 L 488 120 Z Z" stroke-miterlimit="10"/></g><g transform="translate(-278,-110) scale(1,1)"><path fill="none" stroke="#000000" d="M 488 160 L 671.4970703125 160" stroke-miterlimit="10"/></g><g transform="translate(-278,-110) scale(1,1)"><g><path fill="none" stroke="none"/><text fill="#000000" stroke="none" font-family="Arial" font-size="13px" font-style="normal" font-weight="bold" text-decoration="none" x="552.291748046875" y="139.5">Attributes</text></g></g><g transform="translate(-278,-110) scale(1,1)"><g><path fill="none" stroke="none"/><text fill="#000000" stroke="none" font-family="Arial" font-size="13px" font-style="normal" font-weight="normal" text-decoration="none" x="545.07763671875" y="154.5">(from Gpds)</text></g></g><g transform="translate(-278,-110) scale(1,1)"><g><path fill="none" stroke="none"/><text fill="#000000" stroke="none" font-family="Arial" font-size="13px" font-style="normal" font-weight="normal" text-decoration="none" x="493" y="177.5">+add(key: string, value: string)</text></g></g><g transform="translate(-278,-110) scale(1,1)"><g><path fill="none" stroke="none"/><text fill="#000000" stroke="none" font-family="Arial" font-size="13px" font-style="normal" font-weight="normal" text-decoration="none" x="493" y="192.5">+get(key: string): string</text></g></g><g transform="translate(-278,-110) scale(1,1)"><rect fill="#C0C0C0" stroke="none" x="671" y="369" width="272.14697265625" height="220" opacity="0.2"/></g><g transform="translate(-278,-110) scale(1,1)"><rect fill="#C0C0C0" stroke="none" x="870.16162109375" y="351" width="81.9853515625" height="22" opacity="0.2"/></g><g transform="translate(-278,-110) scale(1,1)"><rect fill="#ffffff" stroke="none" x="664" y="362" width="272.14697265625" height="220"/></g><g transform="translate(-278,-110) scale(1,1)"><path fill="none" stroke="#000000" d="M 664 362 L 936.14697265625 362 L 936.14697265625 582 L 664 582 L 664 362 Z Z" stroke-miterlimit="10"/></g><g transform="translate(-278,-110) scale(1,1)"><path fill="none" stroke="#000000" d="M 664 402 L 936.14697265625 402" stroke-miterlimit="10"/></g><g transform="translate(-278,-110) scale(1,1)"><path fill="none" stroke="#000000" d="M 664 440 L 936.14697265625 440" stroke-miterlimit="10"/></g><g transform="translate(-278,-110) scale(1,1)"><g><path fill="none" stroke="none"/><text fill="#000000" stroke="none" font-family="Arial" font-size="13px" font-style="normal" font-weight="bold" text-decoration="none" x="783.931396484375" y="381.5">Value</text></g></g><g transform="translate(-278,-110) scale(1,1)"><g><path fill="none" stroke="none"/><text fill="#000000" stroke="none" font-family="Arial" font-size="13px" font-style="normal" font-weight="normal" text-decoration="none" x="765.402587890625" y="396.5">(from Gpds)</text></g></g><g transform="translate(-278,-110) scale(1,1)"><g><path fill="none" stroke="none"/><text fill="#000000" stroke="none" font-family="Arial" font-size="13px" font-style="normal" font-weight="normal" text-decoration="none" x="669" y="419.5">+comment: string</text></g></g><g transform="translate(-278,-110) scale(1,1)"><g><path fill="none" stroke="none"/><text fill="#000000" stroke="none" font-family="Arial" font-size="13px" font-style="normal" font-weight="normal" text-decoration="none" x="669" y="434.5">-value: variant</text></g></g><g transform="translate(-278,-110) scale(1,1)"><g><path fill="none" stroke="none"/><text fill="#000000" stroke="none" font-family="Arial" font-size="13px" font-style="normal" font-weight="normal" text-decoration="none" x="669" y="457.5">+set(value: T)</text></g></g><g transform="translate(-278,-110) scale(1,1)"><g><path fill="none" stroke="none"/><text fill="#000000" stroke="none" font-family="Arial" font-size="13px" font-style="normal" font-weight="normal" text-decoration="none" x="669" y="472.5">+get(): T</text></g></g><g transform="translate(-278,-110) scale(1,1)"><g><path fill="none" stroke="none"/><text fill="#000000" stroke="none" font-family="Arial" font-size="13px" font-style="normal" font-weight="normal" text-decoration="none" x="669" y="487.5">+addAttribute(name: string, value: string)</text></g></g><g transform="translate(-278,-110) scale(1,1)"><g><path fill="none" stroke="none"/><text fill="#000000" stroke="none" font-family="Arial" font-size="13px" font-style="normal" font-weight="normal" text-decoration="none" x="669" y="502.5">+getAttribute(name: string): string</text></g></g><g transform="translate(-278,-110) scale(1,1)"><g><path fill="none" stroke="none"/><text fill="#000000" stroke="none" font-family="Arial" font-size="13px" font-style="normal" font-weight="normal" text-decoration="none" x="669" y="517.5">+setComment(comment: string)</text></g></g><g transform="translate(-278,-110) scale(1,1)"><g><path fill="none" stroke="none"/><text fill="#000000" stroke="none" font-family="Arial" font-size="13px" font-style="normal" font-weight="normal" text-decoration="none" x="669" y="532.5">+isType(): bool</text></g></g><g transform="translate(-278,-110) scale(1,1)"><g><path fill="none" stroke="none"/><text fill="#000000" stroke="none" font-family="Arial" font-size="13px" font-style="normal" font-weight="normal" text-decoration="none" x="669" y="547.5">+typeString(): string</text></g></g><g transform="translate(-278,-110) scale(1,1)"><g><path fill="none" stroke="none"/><text fill="#000000" stroke="none" font-family="Arial" font-size="13px" font-style="normal" font-weight="normal" text-decoration="none" x="669" y="562.5">-allocateContainerMemory(c: Container)</text></g></g><g transform="translate(-278,-110) scale(1,1)"><g><path fill="none" stroke="none"/><text fill="#000000" stroke="none" font-family="Arial" font-size="13px" font-style="normal" font-weight="normal" text-decoration="none" x="669" y="577.5">-freeContainerMemory()</text></g></g><g transform="translate(-278,-110) scale(1,1)"><rect fill="#ffffff" stroke="none" x="863.16162109375" y="344" width="81.9853515625" height="22"/></g><g transform="translate(-278,-110) scale(1,1)"><path fill="none" stroke="#000000" d="M 863.16162109375 344 L 945.14697265625 344 L 945.14697265625 366 L 863.16162109375 366 L 863.16162109375 344 Z Z" stroke-miterlimit="10" stroke-dasharray="3"/></g><g transform="translate(-278,-110) scale(1,1)"><g><path fill="none" stroke="none"/><text fill="#000000" stroke="none" font-family="Arial" font-size="13px" font-style="normal" font-weight="normal" text-decoration="none" x="868.16162109375" y="361.5">T: valueType</text></g></g><g transform="translate(-278,-110) scale(1,1)"><rect fill="#C0C0C0" stroke="none" x="295" y="409" width="251.91064453125" height="175" opacity="0.2"/></g><g transform="translate(-278,-110) scale(1,1)"><rect fill="#C0C0C0" stroke="none" x="473.92529296875" y="391" width="81.9853515625" height="22" opacity="0.2"/></g><g transform="translate(-278,-110) scale(1,1)"><rect fill="#ffffff" stroke="none" x="288" y="402" width="251.91064453125" height="175"/></g><g transform="translate(-278,-110) scale(1,1)"><path fill="none" stroke="#000000" d="M 288 402 L 539.91064453125 402 L 539.91064453125 577 L 288 577 L 288 402 Z Z" stroke-miterlimit="10"/></g><g transform="translate(-278,-110) scale(1,1)"><path fill="none" stroke="#000000" d="M 288 442 L 539.91064453125 442" stroke-miterlimit="10"/></g><g transform="translate(-278,-110) scale(1,1)"><path fill="none" stroke="#000000" d="M 288 465 L 539.91064453125 465" stroke-miterlimit="10"/></g><g transform="translate(-278,-110) scale(1,1)"><g><path fill="none" stroke="none"/><text fill="#000000" stroke="none" font-family="Arial" font-size="13px" font-style="normal" font-weight="bold" text-decoration="none" x="385.771728515625" y="421.5">Container</text></g></g><g transform="translate(-278,-110) scale(1,1)"><g><path fill="none" stroke="none"/><text fill="#000000" stroke="none" font-family="Arial" font-size="13px" font-style="normal" font-weight="normal" text-decoration="none" x="379.284423828125" y="436.5">(from Gpds)</text></g></g><g transform="translate(-278,-110) scale(1,1)"><g><path fill="none" stroke="none"/><text fill="#000000" stroke="none" font-family="Arial" font-size="13px" font-style="normal" font-weight="normal" text-decoration="none" x="293" y="459.5">+comment: string</text></g></g><g transform="translate(-278,-110) scale(1,1)"><g><path fill="none" stroke="none"/><text fill="#000000" stroke="none" font-family="Arial" font-size="13px" font-style="normal" font-weight="normal" text-decoration="none" x="293" y="482.5">+addValue(key: string, T: value)</text></g></g><g transform="translate(-278,-110) scale(1,1)"><g><path fill="none" stroke="none"/><text fill="#000000" stroke="none" font-family="Arial" font-size="13px" font-style="normal" font-weight="normal" text-decoration="none" x="293" y="497.5">+getValue(key: string): T</text></g></g><g transform="translate(-278,-110) scale(1,1)"><g><path fill="none" stroke="none"/><text fill="#000000" stroke="none" font-family="Arial" font-size="13px" font-style="normal" font-weight="normal" text-decoration="none" x="293" y="512.5">+getValues(key: string): T[0..*]</text></g></g><g transform="translate(-278,-110) scale(1,1)"><g><path fill="none" stroke="none"/><text fill="#000000" stroke="none" font-family="Arial" font-size="13px" font-style="normal" font-weight="normal" text-decoration="none" x="293" y="527.5">+addAttribute(key: string, value: string)</text></g></g><g transform="translate(-278,-110) scale(1,1)"><g><path fill="none" stroke="none"/><text fill="#000000" stroke="none" font-family="Arial" font-size="13px" font-style="normal" font-weight="normal" text-decoration="none" x="293" y="542.5">+getAttribute(key: string)</text></g></g><g transform="translate(-278,-110) scale(1,1)"><g><path fill="none" stroke="none"/><text fill="#000000" stroke="none" font-family="Arial" font-size="13px" font-style="normal" font-weight="normal" text-decoration="none" x="293" y="557.5">+setComment(comment: string)</text></g></g><g transform="translate(-278,-110) scale(1,1)"><g><path fill="none" stroke="none"/><text fill="#000000" stroke="none" font-family="Arial" font-size="13px" font-style="normal" font-weight="normal" text-decoration="none" x="293" y="572.5">+isList(): bool</text></g></g><g transform="translate(-278,-110) scale(1,1)"><rect fill="#ffffff" stroke="none" x="466.92529296875" y="384" width="81.9853515625" height="22"/></g><g transform="translate(-278,-110) scale(1,1)"><path fill="none" stroke="#000000" d="M 466.92529296875 384 L 548.91064453125 384 L 548.91064453125 406 L 466.92529296875 406 L 466.92529296875 384 Z Z" stroke-miterlimit="10" stroke-dasharray="3"/></g><g transform="translate(-278,-110) scale(1,1)"><g><path fill="none" stroke="none"/><text fill="#000000" stroke="none" font-family="Arial" font-size="13px" font-style="normal" font-weight="normal" text-decoration="none" x="471.92529296875" y="401.5">T: valueType</text></g></g><g transform="translate(-278,-110) scale(1,1)"><path fill="none" stroke="#000000" d="M 671 168 L 800 168 L 800 344" stroke-miterlimit="10"/></g><g transform="translate(-278,-110) scale(1,1)"><path fill="#000000" stroke="none" d="M 795.790482243984 333.83732514237585 L 800 344 L 804.209517756016 333.83732514237585 L 800 322"/></g><g transform="translate(-278,-110) scale(1,1)"><path fill="none" stroke="#000000" d="M 795.790482243984 333.83732514237585 L 800 344 L 804.209517756016 333.83732514237585 L 800 322 L 795.790482243984 333.83732514237585" stroke-miterlimit="10"/></g><g transform="translate(-278,-110) scale(1,1)"><path fill="none" stroke="#000000" d="M 681.1626748576241 163.790482243984 L 671 168 L 681.1626748576241 172.209517756016" stroke-miterlimit="10"/></g><g transform="translate(-278,-110) scale(1,1)"><g><path fill="none" stroke="none"/><text fill="#000000" stroke="none" font-family="Arial" font-size="13px" font-style="normal" font-weight="normal" text-decoration="none" x="679.5" y="195.5">+arguments</text></g></g><g transform="translate(-278,-110) scale(1,1)"><g><path fill="none" stroke="none"/><text fill="#000000" stroke="none" font-family="Arial" font-size="13px" font-style="normal" font-weight="normal" text-decoration="none" x="678.74365234375" y="156.5">0..*</text></g></g><g transform="translate(-278,-110) scale(1,1)"><path fill="none" stroke="#000000" d="M 488 168 L 384 168 L 384 384" stroke-miterlimit="10"/></g><g transform="translate(-278,-110) scale(1,1)"><path fill="#000000" stroke="none" d="M 379.790482243984 373.83732514237585 L 384 384 L 388.209517756016 373.83732514237585 L 384 362"/></g><g transform="translate(-278,-110) scale(1,1)"><path fill="none" stroke="#000000" d="M 379.790482243984 373.83732514237585 L 384 384 L 388.209517756016 373.83732514237585 L 384 362 L 379.790482243984 373.83732514237585" stroke-miterlimit="10"/></g><g transform="translate(-278,-110) scale(1,1)"><path fill="none" stroke="#000000" d="M 477.83732514237585 172.209517756016 L 488 168 L 477.83732514237585 163.790482243984" stroke-miterlimit="10"/></g><g transform="translate(-278,-110) scale(1,1)"><g><path fill="none" stroke="none"/><text fill="#000000" stroke="none" font-family="Arial" font-size="13px" font-style="normal" font-weight="normal" text-decoration="none" x="407.5" y="188.5">+arguments</text></g></g><g transform="translate(-278,-110) scale(1,1)"><g><path fill="none" stroke="none"/><text fill="#000000" stroke="none" font-family="Arial" font-size="13px" font-style="normal" font-weight="normal" text-decoration="none" x="455.74365234375" y="161.5">0..*</text></g></g><g transform="translate(-278,-110) scale(1,1)"><path fill="none" stroke="#000000" d="M 664 488 L 550 488" stroke-miterlimit="10"/></g><g transform="translate(-278,-110) scale(1,1)"><path fill="#000000" stroke="none" d="M 560.1626748576241 483.790482243984 L 550 488 L 560.1626748576241 492.209517756016 L 572 488"/></g><g transform="translate(-278,-110) scale(1,1)"><path fill="none" stroke="#000000" d="M 560.1626748576241 483.790482243984 L 550 488 L 560.1626748576241 492.209517756016 L 572 488 L 560.1626748576241 483.790482243984" stroke-miterlimit="10"/></g><g transform="translate(-278,-110) scale(1,1)"><g><path fill="none" stroke="none"/><text fill="#000000" stroke="none" font-family="Arial" font-size="13px" font-style="normal" font-weight="normal" text-decoration="none" x="615.5" y="508.5">+values</text></g></g><g transform="translate(-278,-110) scale(1,1)"><g><path fill="none" stroke="none"/><text fill="#000000" stroke="none" font-family="Arial" font-size="13px" font-style="normal" font-weight="normal" text-decoration="none" x="631.74365234375" y="481.5">0..*</text></g></g></g></svg>