<svg version="1.1" xmlns="http://www.w3.org/2000/svg" xmlns:xlink="http://www.w3.org/1999/xlink" width="1094.19970703125" height="400"><defs/><g><g transform="translate(-6,-22) scale(1,1)"><rect fill="#C0C0C0" stroke="none" x="23" y="87" width="177.7080078125" height="100" opacity="0.2"/></g><g transform="translate(-6,-22) scale(1,1)"><rect fill="#ffffff" stroke="none" x="16" y="80" width="177.7080078125" height="100"/></g><g transform="translate(-6,-22) scale(1,1)"><path fill="none" stroke="#000000" d="M 16 80 L 193.7080078125 80 L 193.7080078125 180 L 16 180 L 16 80 Z Z" stroke-miterlimit="10"/></g><g transform="translate(-6,-22) scale(1,1)"><path fill="#ffffff" stroke="none" d="M 167.7080078125 97 C 167.7080078125 92.0294368 171.7374446125 88 176.7080078125 88 C 181.6785710125 88 185.7080078125 92.0294368 185.7080078125 97 C 185.7080078125 101.9705632 181.6785710125 106 176.7080078125 106 C 171.7374446125 106 167.7080078125 101.9705632 167.7080078125 97 Z"/></g><g transform="translate(-6,-22) scale(1,1)"><path fill="none" stroke="#000000" d="M 167.7080078125 97 C 167.7080078125 92.0294368 171.7374446125 88 176.7080078125 88 C 181.6785710125 88 185.7080078125 92.0294368 185.7080078125 97 C 185.7080078125 101.9705632 181.6785710125 106 176.7080078125 106 C 171.7374446125 106 167.7080078125 101.9705632 167.7080078125 97 Z" stroke-miterlimit="10"/></g><g transform="translate(-6,-22) scale(1,1)"><path fill="none" stroke="#000000" d="M 16 133 L 193.7080078125 133" stroke-miterlimit="10"/></g><g transform="translate(-6,-22) scale(1,1)"><g><path fill="none" stroke="none"/><text fill="#000000" stroke="none" font-family="Arial" font-size="13px" font-style="normal" font-weight="normal" text-decoration="none" x="60.693603515625" y="97.5">«interface»</text></g></g><g transform="translate(-6,-22) scale(1,1)"><g><path fill="none" stroke="none"/><text fill="#000000" stroke="none" font-family="Arial" font-size="13px" font-style="italic" font-weight="bold" text-decoration="none" x="67.9267578125" y="112.5">Serialize</text></g></g><g transform="translate(-6,-22) scale(1,1)"><g><path fill="none" stroke="none"/><text fill="#000000" stroke="none" font-family="Arial" font-size="13px" font-style="normal" font-weight="normal" text-decoration="none" x="58.18310546875" y="127.5">(from Gpds)</text></g></g><g transform="translate(-6,-22) scale(1,1)"><g><path fill="none" stroke="none"/><text fill="#000000" stroke="none" font-family="Arial" font-size="13px" font-style="italic" font-weight="normal" text-decoration="none" x="21" y="150.5">+toContainer(): Container</text></g></g><g transform="translate(-6,-22) scale(1,1)"><g><path fill="none" stroke="none"/><text fill="#000000" stroke="none" font-family="Arial" font-size="13px" font-style="italic" font-weight="normal" text-decoration="none" x="21" y="165.5">+fromContainer(c: Container)</text></g></g><g transform="translate(-6,-22) scale(1,1)"><rect fill="#C0C0C0" stroke="none" x="39" y="335" width="149.537109375" height="77" opacity="0.2"/></g><g transform="translate(-6,-22) scale(1,1)"><rect fill="#ffffff" stroke="none" x="32" y="328" width="149.537109375" height="77"/></g><g transform="translate(-6,-22) scale(1,1)"><path fill="none" stroke="#000000" d="M 32 328 L 181.537109375 328 L 181.537109375 405 L 32 405 L 32 328 Z Z" stroke-miterlimit="10"/></g><g transform="translate(-6,-22) scale(1,1)"><path fill="none" stroke="#000000" d="M 32 353 L 181.537109375 353" stroke-miterlimit="10"/></g><g transform="translate(-6,-22) scale(1,1)"><g><path fill="none" stroke="none"/><text fill="#000000" stroke="none" font-family="Arial" font-size="13px" font-style="normal" font-weight="bold" text-decoration="none" x="96.294921875" y="347.5">Car</text></g></g><g transform="translate(-6,-22) scale(1,1)"><g><path fill="none" stroke="none"/><text fill="#000000" stroke="none" font-family="Arial" font-size="13px" font-style="normal" font-weight="normal" text-decoration="none" x="37" y="370.5">+manufacturer: string</text></g></g><g transform="translate(-6,-22) scale(1,1)"><g><path fill="none" stroke="none"/><text fill="#000000" stroke="none" font-family="Arial" font-size="13px" font-style="normal" font-weight="normal" text-decoration="none" x="37" y="385.5">+model: string</text></g></g><g transform="translate(-6,-22) scale(1,1)"><g><path fill="none" stroke="none"/><text fill="#000000" stroke="none" font-family="Arial" font-size="13px" font-style="normal" font-weight="normal" text-decoration="none" x="37" y="400.5">+yearOfConstruction: int</text></g></g><g transform="translate(-6,-22) scale(1,1)"><path fill="none" stroke="#000000" d="M 102 328 L 102 180" stroke-miterlimit="10" stroke-dasharray="3"/></g><g transform="translate(-6,-22) scale(1,1)"><path fill="#FFFFFF" stroke="none" d="M 110.41903551203198 200.3253497152483 L 102 180 L 93.58096448796803 200.3253497152483"/></g><g transform="translate(-6,-22) scale(1,1)"><path fill="none" stroke="#000000" d="M 110.41903551203198 200.3253497152483 L 102 180 L 93.58096448796803 200.3253497152483 L 110.41903551203198 200.3253497152483" stroke-miterlimit="10"/></g><g transform="translate(-6,-22) scale(1,1)"><rect fill="#C0C0C0" stroke="none" x="327" y="327" width="88.12353515625" height="92" opacity="0.2"/></g><g transform="translate(-6,-22) scale(1,1)"><rect fill="#ffffff" stroke="none" x="320" y="320" width="88.12353515625" height="92"/></g><g transform="translate(-6,-22) scale(1,1)"><path fill="none" stroke="#000000" d="M 320 320 L 408.12353515625 320 L 408.12353515625 412 L 320 412 L 320 320 Z Z" stroke-miterlimit="10"/></g><g transform="translate(-6,-22) scale(1,1)"><path fill="none" stroke="#000000" d="M 320 345 L 408.12353515625 345" stroke-miterlimit="10"/></g><g transform="translate(-6,-22) scale(1,1)"><g><path fill="none" stroke="none"/><text fill="#000000" stroke="none" font-family="Arial" font-size="13px" font-style="normal" font-weight="bold" text-decoration="none" x="348.529052734375" y="339.5">Color</text></g></g><g transform="translate(-6,-22) scale(1,1)"><g><path fill="none" stroke="none"/><text fill="#000000" stroke="none" font-family="Arial" font-size="13px" font-style="normal" font-weight="normal" text-decoration="none" x="325" y="362.5">+name: string</text></g></g><g transform="translate(-6,-22) scale(1,1)"><g><path fill="none" stroke="none"/><text fill="#000000" stroke="none" font-family="Arial" font-size="13px" font-style="normal" font-weight="normal" text-decoration="none" x="325" y="377.5">+red: int</text></g></g><g transform="translate(-6,-22) scale(1,1)"><g><path fill="none" stroke="none"/><text fill="#000000" stroke="none" font-family="Arial" font-size="13px" font-style="normal" font-weight="normal" text-decoration="none" x="325" y="392.5">+green: int</text></g></g><g transform="translate(-6,-22) scale(1,1)"><g><path fill="none" stroke="none"/><text fill="#000000" stroke="none" font-family="Arial" font-size="13px" font-style="normal" font-weight="normal" text-decoration="none" x="325" y="407.5">+blue: int</text></g></g><g transform="translate(-6,-22) scale(1,1)"><path fill="none" stroke="#000000" d="M 320 366 L 182 366" stroke-miterlimit="10"/></g><g transform="translate(-6,-22) scale(1,1)"><path fill="#000000" stroke="none" d="M 192.16267485762415 361.790482243984 L 182 366 L 192.16267485762415 370.209517756016 L 204 366"/></g><g transform="translate(-6,-22) scale(1,1)"><path fill="none" stroke="#000000" d="M 192.16267485762415 361.790482243984 L 182 366 L 192.16267485762415 370.209517756016 L 204 366 L 192.16267485762415 361.790482243984" stroke-miterlimit="10"/></g><g transform="translate(-6,-22) scale(1,1)"><path fill="none" stroke="#000000" d="M 309.83732514237585 370.209517756016 L 320 366 L 309.83732514237585 361.790482243984" stroke-miterlimit="10"/></g><g transform="translate(-6,-22) scale(1,1)"><g><path fill="none" stroke="none"/><text fill="#000000" stroke="none" font-family="Arial" font-size="13px" font-style="normal" font-weight="normal" text-decoration="none" x="276.5" y="386.5">+color</text></g></g><g transform="translate(-6,-22) scale(1,1)"><g><path fill="none" stroke="none"/><text fill="#000000" stroke="none" font-family="Arial" font-size="13px" font-style="normal" font-weight="normal" text-decoration="none" x="294.5" y="359.5">1</text></g></g><g transform="translate(-6,-22) scale(1,1)"><rect fill="#C0C0C0" stroke="none" x="311" y="57" width="393.3046875" height="190" opacity="0.2"/></g><g transform="translate(-6,-22) scale(1,1)"><rect fill="#C0C0C0" stroke="none" x="631.3193359375" y="39" width="81.9853515625" height="22" opacity="0.2"/></g><g transform="translate(-6,-22) scale(1,1)"><rect fill="#ffffff" stroke="none" x="304" y="50" width="393.3046875" height="190"/></g><g transform="translate(-6,-22) scale(1,1)"><path fill="none" stroke="#000000" d="M 304 50 L 697.3046875 50 L 697.3046875 240 L 304 240 L 304 50 Z Z" stroke-miterlimit="10"/></g><g transform="translate(-6,-22) scale(1,1)"><path fill="none" stroke="#000000" d="M 304 90 L 697.3046875 90" stroke-miterlimit="10"/></g><g transform="translate(-6,-22) scale(1,1)"><path fill="none" stroke="#000000" d="M 304 113 L 697.3046875 113" stroke-miterlimit="10"/></g><g transform="translate(-6,-22) scale(1,1)"><g><path fill="none" stroke="none"/><text fill="#000000" stroke="none" font-family="Arial" font-size="13px" font-style="normal" font-weight="bold" text-decoration="none" x="472.46875" y="69.5">Container</text></g></g><g transform="translate(-6,-22) scale(1,1)"><g><path fill="none" stroke="none"/><text fill="#000000" stroke="none" font-family="Arial" font-size="13px" font-style="normal" font-weight="normal" text-decoration="none" x="465.9814453125" y="84.5">(from Gpds)</text></g></g><g transform="translate(-6,-22) scale(1,1)"><g><path fill="none" stroke="none"/><text fill="#000000" stroke="none" font-family="Arial" font-size="13px" font-style="normal" font-weight="normal" text-decoration="none" x="309" y="107.5">+comment: string</text></g></g><g transform="translate(-6,-22) scale(1,1)"><g><path fill="none" stroke="none"/><text fill="#000000" stroke="none" font-family="Arial" font-size="13px" font-style="normal" font-weight="normal" text-decoration="none" x="309" y="130.5">+addValue(key: string, T: value)</text></g></g><g transform="translate(-6,-22) scale(1,1)"><g><path fill="none" stroke="none"/><text fill="#000000" stroke="none" font-family="Arial" font-size="13px" font-style="normal" font-weight="normal" text-decoration="none" x="309" y="145.5">+getValue(key: string): T</text></g></g><g transform="translate(-6,-22) scale(1,1)"><g><path fill="none" stroke="none"/><text fill="#000000" stroke="none" font-family="Arial" font-size="13px" font-style="normal" font-weight="normal" text-decoration="none" x="309" y="160.5">+getValues(key: string): T[0..*]</text></g></g><g transform="translate(-6,-22) scale(1,1)"><g><path fill="none" stroke="none"/><text fill="#000000" stroke="none" font-family="Arial" font-size="13px" font-style="normal" font-weight="normal" text-decoration="none" x="309" y="175.5">+addAttribute(key: string, value: string)</text></g></g><g transform="translate(-6,-22) scale(1,1)"><g><path fill="none" stroke="none"/><text fill="#000000" stroke="none" font-family="Arial" font-size="13px" font-style="normal" font-weight="normal" text-decoration="none" x="309" y="190.5">+getAttribute(key: string): string</text></g></g><g transform="translate(-6,-22) scale(1,1)"><g><path fill="none" stroke="none"/><text fill="#000000" stroke="none" font-family="Arial" font-size="13px" font-style="normal" font-weight="normal" text-decoration="none" x="309" y="205.5">+getValueAttribute(valueKey: string, attributeKey: String): T</text></g></g><g transform="translate(-6,-22) scale(1,1)"><g><path fill="none" stroke="none"/><text fill="#000000" stroke="none" font-family="Arial" font-size="13px" font-style="normal" font-weight="normal" text-decoration="none" x="309" y="220.5">+setComment(comment: string)</text></g></g><g transform="translate(-6,-22) scale(1,1)"><g><path fill="none" stroke="none"/><text fill="#000000" stroke="none" font-family="Arial" font-size="13px" font-style="normal" font-weight="normal" text-decoration="none" x="309" y="235.5">+isList(): bool</text></g></g><g transform="translate(-6,-22) scale(1,1)"><rect fill="#ffffff" stroke="none" x="624.3193359375" y="32" width="81.9853515625" height="22"/></g><g transform="translate(-6,-22) scale(1,1)"><path fill="none" stroke="#000000" d="M 624.3193359375 32 L 706.3046875 32 L 706.3046875 54 L 624.3193359375 54 L 624.3193359375 32 Z Z" stroke-miterlimit="10" stroke-dasharray="3"/></g><g transform="translate(-6,-22) scale(1,1)"><g><path fill="none" stroke="none"/><text fill="#000000" stroke="none" font-family="Arial" font-size="13px" font-style="normal" font-weight="normal" text-decoration="none" x="629.3193359375" y="49.5">T: valueType</text></g></g><g transform="translate(-6,-22) scale(1,1)"><path fill="none" stroke="#000000" d="M 195 131 L 303 133" stroke-miterlimit="10"/></g><g transform="translate(-6,-22) scale(1,1)"><path fill="none" stroke="#000000" d="M 292.76112659609436 137.0206307240026 L 303 133 L 292.9170079347985 128.60303843397693" stroke-miterlimit="10"/></g><g transform="translate(-6,-22) scale(1,1)"><rect fill="#C0C0C0" stroke="none" x="823" y="57" width="264.19970703125" height="265" opacity="0.2"/></g><g transform="translate(-6,-22) scale(1,1)"><rect fill="#C0C0C0" stroke="none" x="1014.21435546875" y="39" width="81.9853515625" height="22" opacity="0.2"/></g><g transform="translate(-6,-22) scale(1,1)"><rect fill="#ffffff" stroke="none" x="816" y="50" width="264.19970703125" height="265"/></g><g transform="translate(-6,-22) scale(1,1)"><path fill="none" stroke="#000000" d="M 816 50 L 1080.19970703125 50 L 1080.19970703125 315 L 816 315 L 816 50 Z Z" stroke-miterlimit="10"/></g><g transform="translate(-6,-22) scale(1,1)"><path fill="none" stroke="#000000" d="M 816 90 L 1080.19970703125 90" stroke-miterlimit="10"/></g><g transform="translate(-6,-22) scale(1,1)"><path fill="none" stroke="#000000" d="M 816 128 L 1080.19970703125 128" stroke-miterlimit="10"/></g><g transform="translate(-6,-22) scale(1,1)"><g><path fill="none" stroke="none"/><text fill="#000000" stroke="none" font-family="Arial" font-size="13px" font-style="normal" font-weight="bold" text-decoration="none" x="931.957763671875" y="69.5">Value</text></g></g><g transform="translate(-6,-22) scale(1,1)"><g><path fill="none" stroke="none"/><text fill="#000000" stroke="none" font-family="Arial" font-size="13px" font-style="normal" font-weight="normal" text-decoration="none" x="913.428955078125" y="84.5">(from Gpds)</text></g></g><g transform="translate(-6,-22) scale(1,1)"><g><path fill="none" stroke="none"/><text fill="#000000" stroke="none" font-family="Arial" font-size="13px" font-style="normal" font-weight="normal" text-decoration="none" x="821" y="107.5">+comment: string</text></g></g><g transform="translate(-6,-22) scale(1,1)"><g><path fill="none" stroke="none"/><text fill="#000000" stroke="none" font-family="Arial" font-size="13px" font-style="normal" font-weight="normal" text-decoration="none" x="821" y="122.5">-value: variant</text></g></g><g transform="translate(-6,-22) scale(1,1)"><g><path fill="none" stroke="none"/><text fill="#000000" stroke="none" font-family="Arial" font-size="13px" font-style="normal" font-weight="normal" text-decoration="none" x="821" y="145.5">+fromString(s: string)</text></g></g><g transform="translate(-6,-22) scale(1,1)"><g><path fill="none" stroke="none"/><text fill="#000000" stroke="none" font-family="Arial" font-size="13px" font-style="normal" font-weight="normal" text-decoration="none" x="821" y="160.5">+toString(): string</text></g></g><g transform="translate(-6,-22) scale(1,1)"><g><path fill="none" stroke="none"/><text fill="#000000" stroke="none" font-family="Arial" font-size="13px" font-style="normal" font-weight="normal" text-decoration="none" x="821" y="175.5">+set(value: T)</text></g></g><g transform="translate(-6,-22) scale(1,1)"><g><path fill="none" stroke="none"/><text fill="#000000" stroke="none" font-family="Arial" font-size="13px" font-style="normal" font-weight="normal" text-decoration="none" x="821" y="190.5">+get(): T</text></g></g><g transform="translate(-6,-22) scale(1,1)"><g><path fill="none" stroke="none"/><text fill="#000000" stroke="none" font-family="Arial" font-size="13px" font-style="normal" font-weight="normal" text-decoration="none" x="821" y="205.5">+addAttribute(name: string, value: string)</text></g></g><g transform="translate(-6,-22) scale(1,1)"><g><path fill="none" stroke="none"/><text fill="#000000" stroke="none" font-family="Arial" font-size="13px" font-style="normal" font-weight="normal" text-decoration="none" x="821" y="220.5">+getAttribute(name: string): string</text></g></g><g transform="translate(-6,-22) scale(1,1)"><g><path fill="none" stroke="none"/><text fill="#000000" stroke="none" font-family="Arial" font-size="13px" font-style="normal" font-weight="normal" text-decoration="none" x="821" y="235.5">+setComment(comment: string)</text></g></g><g transform="translate(-6,-22) scale(1,1)"><g><path fill="none" stroke="none"/><text fill="#000000" stroke="none" font-family="Arial" font-size="13px" font-style="normal" font-weight="normal" text-decoration="none" x="821" y="250.5">+isType(): bool</text></g></g><g transform="translate(-6,-22) scale(1,1)"><g><path fill="none" stroke="none"/><text fill="#000000" stroke="none" font-family="Arial" font-size="13px" font-style="normal" font-weight="normal" text-decoration="none" x="821" y="265.5">+isEmpty(): bool</text></g></g><g transform="translate(-6,-22) scale(1,1)"><g><path fill="none" stroke="none"/><text fill="#000000" stroke="none" font-family="Arial" font-size="13px" font-style="normal" font-weight="normal" text-decoration="none" x="821" y="280.5">+typeString(): string</text></g></g><g transform="translate(-6,-22) scale(1,1)"><g><path fill="none" stroke="none"/><text fill="#000000" stroke="none" font-family="Arial" font-size="13px" font-style="normal" font-weight="normal" text-decoration="none" x="821" y="295.5">-allocateContainerMemory(c: Container)</text></g></g><g transform="translate(-6,-22) scale(1,1)"><g><path fill="none" stroke="none"/><text fill="#000000" stroke="none" font-family="Arial" font-size="13px" font-style="normal" font-weight="normal" text-decoration="none" x="821" y="310.5">-freeContainerMemory()</text></g></g><g transform="translate(-6,-22) scale(1,1)"><rect fill="#ffffff" stroke="none" x="1007.21435546875" y="32" width="81.9853515625" height="22"/></g><g transform="translate(-6,-22) scale(1,1)"><path fill="none" stroke="#000000" d="M 1007.21435546875 32 L 1089.19970703125 32 L 1089.19970703125 54 L 1007.21435546875 54 L 1007.21435546875 32 Z Z" stroke-miterlimit="10" stroke-dasharray="3"/></g><g transform="translate(-6,-22) scale(1,1)"><g><path fill="none" stroke="none"/><text fill="#000000" stroke="none" font-family="Arial" font-size="13px" font-style="normal" font-weight="normal" text-decoration="none" x="1012.21435546875" y="49.5">T: valueType</text></g></g><g transform="translate(-6,-22) scale(1,1)"><path fill="none" stroke="#000000" d="M 816 152 L 707 152" stroke-miterlimit="10"/></g><g transform="translate(-6,-22) scale(1,1)"><path fill="#000000" stroke="none" d="M 717.1626748576241 147.790482243984 L 707 152 L 717.1626748576241 156.209517756016 L 729 152"/></g><g transform="translate(-6,-22) scale(1,1)"><path fill="none" stroke="#000000" d="M 717.1626748576241 147.790482243984 L 707 152 L 717.1626748576241 156.209517756016 L 729 152 L 717.1626748576241 147.790482243984" stroke-miterlimit="10"/></g><g transform="translate(-6,-22) scale(1,1)"><g><path fill="none" stroke="none"/><text fill="#000000" stroke="none" font-family="Arial" font-size="13px" font-style="normal" font-weight="normal" text-decoration="none" x="767.5" y="172.5">+values</text></g></g><g transform="translate(-6,-22) scale(1,1)"><g><path fill="none" stroke="none"/><text fill="#000000" stroke="none" font-family="Arial" font-size="13px" font-style="normal" font-weight="normal" text-decoration="none" x="783.74365234375" y="145.5">0..*</text></g></g></g></svg>