<svg version="1.1" xmlns="http://www.w3.org/2000/svg" xmlns:xlink="http://www.w3.org/1999/xlink" width="400.7314453125" height="214"><defs/><g><g transform="translate(-1054,-324) scale(1,1)"><rect fill="#C0C0C0" stroke="none" x="1207" y="487" width="88" height="48" opacity="0.2"/></g><g transform="translate(-1054,-324) scale(1,1)"><rect fill="#ffffff" stroke="none" x="1200" y="480" width="88" height="48"/></g><g transform="translate(-1054,-324) scale(1,1)"><path fill="none" stroke="#000000" d="M 1200 480 L 1288 480 L 1288 528 L 1200 528 L 1200 480 Z Z" stroke-miterlimit="10"/></g><g transform="translate(-1054,-324) scale(1,1)"><g><path fill="none" stroke="none"/><text fill="#000000" stroke="none" font-family="Arial" font-size="13px" font-style="normal" font-weight="bold" text-decoration="none" x="1208.96728515625" y="499.5">ArchiverXml</text></g></g><g transform="translate(-1054,-324) scale(1,1)"><g><path fill="none" stroke="none"/><text fill="#000000" stroke="none" font-family="Arial" font-size="13px" font-style="normal" font-weight="normal" text-decoration="none" x="1210.779541015625" y="514.5">(from GDS)</text></g></g><g transform="translate(-1054,-324) scale(1,1)"><rect fill="#C0C0C0" stroke="none" x="1071" y="341" width="380.7314453125" height="90" opacity="0.2"/></g><g transform="translate(-1054,-324) scale(1,1)"><rect fill="#ffffff" stroke="none" x="1064" y="334" width="380.7314453125" height="90"/></g><g transform="translate(-1054,-324) scale(1,1)"><path fill="none" stroke="#000000" d="M 1064 334 L 1444.7314453125 334 L 1444.7314453125 424 L 1064 424 L 1064 334 Z Z" stroke-miterlimit="10"/></g><g transform="translate(-1054,-324) scale(1,1)"><path fill="#ffffff" stroke="none" d="M 1418.7314453125 351 C 1418.7314453125 346.0294368 1422.7608821125 342 1427.7314453125 342 C 1432.7020085125 342 1436.7314453125 346.0294368 1436.7314453125 351 C 1436.7314453125 355.9705632 1432.7020085125 360 1427.7314453125 360 C 1422.7608821125 360 1418.7314453125 355.9705632 1418.7314453125 351 Z"/></g><g transform="translate(-1054,-324) scale(1,1)"><path fill="none" stroke="#000000" d="M 1418.7314453125 351 C 1418.7314453125 346.0294368 1422.7608821125 342 1427.7314453125 342 C 1432.7020085125 342 1436.7314453125 346.0294368 1436.7314453125 351 C 1436.7314453125 355.9705632 1432.7020085125 360 1427.7314453125 360 C 1422.7608821125 360 1418.7314453125 355.9705632 1418.7314453125 351 Z" stroke-miterlimit="10"/></g><g transform="translate(-1054,-324) scale(1,1)"><path fill="none" stroke="#000000" d="M 1064 387 L 1444.7314453125 387" stroke-miterlimit="10"/></g><g transform="translate(-1054,-324) scale(1,1)"><g><path fill="none" stroke="none"/><text fill="#000000" stroke="none" font-family="Arial" font-size="13px" font-style="normal" font-weight="normal" text-decoration="none" x="1210.205322265625" y="351.5">«interface»</text></g></g><g transform="translate(-1054,-324) scale(1,1)"><g><path fill="none" stroke="none"/><text fill="#000000" stroke="none" font-family="Arial" font-size="13px" font-style="italic" font-weight="bold" text-decoration="none" x="1218.527099609375" y="366.5">Archiver</text></g></g><g transform="translate(-1054,-324) scale(1,1)"><g><path fill="none" stroke="none"/><text fill="#000000" stroke="none" font-family="Arial" font-size="13px" font-style="normal" font-weight="normal" text-decoration="none" x="1209.145263671875" y="381.5">(from GDS)</text></g></g><g transform="translate(-1054,-324) scale(1,1)"><g><path fill="none" stroke="none"/><text fill="#000000" stroke="none" font-family="Arial" font-size="13px" font-style="italic" font-weight="normal" text-decoration="none" x="1069" y="404.5">+save(stream: ostream, object: Serialize, rootName: string): bool</text></g></g><g transform="translate(-1054,-324) scale(1,1)"><g><path fill="none" stroke="none"/><text fill="#000000" stroke="none" font-family="Arial" font-size="13px" font-style="italic" font-weight="normal" text-decoration="none" x="1069" y="419.5">+load(stream: istream, object: Serialize, rootName: string): bool</text></g></g><g transform="translate(-1054,-324) scale(1,1)"><path fill="none" stroke="#000000" d="M 1243 480 L 1243 424" stroke-miterlimit="10" stroke-dasharray="3"/></g><g transform="translate(-1054,-324) scale(1,1)"><path fill="#FFFFFF" stroke="none" d="M 1251.419035512032 444.3253497152483 L 1243 424 L 1234.580964487968 444.3253497152483"/></g><g transform="translate(-1054,-324) scale(1,1)"><path fill="none" stroke="#000000" d="M 1251.419035512032 444.3253497152483 L 1243 424 L 1234.580964487968 444.3253497152483 L 1251.419035512032 444.3253497152483" stroke-miterlimit="10"/></g></g></svg>