<svg version="1.1" xmlns="http://www.w3.org/2000/svg" xmlns:xlink="http://www.w3.org/1999/xlink" width="634.10986328125" height="400"><defs/><g><g transform="translate(-638,-198) scale(1,1)"><rect fill="#C0C0C0" stroke="none" x="655" y="287" width="177.7080078125" height="100" opacity="0.2"/></g><g transform="translate(-638,-198) scale(1,1)"><rect fill="#ffffff" stroke="none" x="648" y="280" width="177.7080078125" height="100"/></g><g transform="translate(-638,-198) scale(1,1)"><path fill="none" stroke="#000000" d="M 648 280 L 825.7080078125 280 L 825.7080078125 380 L 648 380 L 648 280 Z Z" stroke-miterlimit="10"/></g><g transform="translate(-638,-198) scale(1,1)"><path fill="#ffffff" stroke="none" d="M 799.7080078125 297 C 799.7080078125 292.0294368 803.7374446125 288 808.7080078125 288 C 813.6785710125 288 817.7080078125 292.0294368 817.7080078125 297 C 817.7080078125 301.9705632 813.6785710125 306 808.7080078125 306 C 803.7374446125 306 799.7080078125 301.9705632 799.7080078125 297 Z"/></g><g transform="translate(-638,-198) scale(1,1)"><path fill="none" stroke="#000000" d="M 799.7080078125 297 C 799.7080078125 292.0294368 803.7374446125 288 808.7080078125 288 C 813.6785710125 288 817.7080078125 292.0294368 817.7080078125 297 C 817.7080078125 301.9705632 813.6785710125 306 808.7080078125 306 C 803.7374446125 306 799.7080078125 301.9705632 799.7080078125 297 Z" stroke-miterlimit="10"/></g><g transform="translate(-638,-198) scale(1,1)"><path fill="none" stroke="#000000" d="M 648 333 L 825.7080078125 333" stroke-miterlimit="10"/></g><g transform="translate(-638,-198) scale(1,1)"><g><path fill="none" stroke="none"/><text fill="#000000" stroke="none" font-family="Arial" font-size="13px" font-style="normal" font-weight="normal" text-decoration="none" x="692.693603515625" y="297.5">«interface»</text></g></g><g transform="translate(-638,-198) scale(1,1)"><g><path fill="none" stroke="none"/><text fill="#000000" stroke="none" font-family="Arial" font-size="13px" font-style="italic" font-weight="bold" text-decoration="none" x="699.9267578125" y="312.5">Serialize</text></g></g><g transform="translate(-638,-198) scale(1,1)"><g><path fill="none" stroke="none"/><text fill="#000000" stroke="none" font-family="Arial" font-size="13px" font-style="normal" font-weight="normal" text-decoration="none" x="690.18310546875" y="327.5">(from Gpds)</text></g></g><g transform="translate(-638,-198) scale(1,1)"><g><path fill="none" stroke="none"/><text fill="#000000" stroke="none" font-family="Arial" font-size="13px" font-style="italic" font-weight="normal" text-decoration="none" x="653" y="350.5">+toContainer(): Container</text></g></g><g transform="translate(-638,-198) scale(1,1)"><g><path fill="none" stroke="none"/><text fill="#000000" stroke="none" font-family="Arial" font-size="13px" font-style="italic" font-weight="normal" text-decoration="none" x="653" y="365.5">+fromContainer(c: Container)</text></g></g><g transform="translate(-638,-198) scale(1,1)"><rect fill="#C0C0C0" stroke="none" x="943" y="215" width="326.10986328125" height="250" opacity="0.2"/></g><g transform="translate(-638,-198) scale(1,1)"><rect fill="#ffffff" stroke="none" x="936" y="208" width="326.10986328125" height="250"/></g><g transform="translate(-638,-198) scale(1,1)"><path fill="none" stroke="#000000" d="M 936 208 L 1262.10986328125 208 L 1262.10986328125 458 L 936 458 L 936 208 Z Z" stroke-miterlimit="10"/></g><g transform="translate(-638,-198) scale(1,1)"><path fill="none" stroke="#000000" d="M 936 248 L 1262.10986328125 248" stroke-miterlimit="10"/></g><g transform="translate(-638,-198) scale(1,1)"><path fill="none" stroke="#000000" d="M 936 271 L 1262.10986328125 271" stroke-miterlimit="10"/></g><g transform="translate(-638,-198) scale(1,1)"><g><path fill="none" stroke="none"/><text fill="#000000" stroke="none" font-family="Arial" font-size="13px" font-style="normal" font-weight="bold" text-decoration="none" x="1070.871337890625" y="227.5">Container</text></g></g><g transform="translate(-638,-198) scale(1,1)"><g><path fill="none" stroke="none"/><text fill="#000000" stroke="none" font-family="Arial" font-size="13px" font-style="normal" font-weight="normal" text-decoration="none" x="1064.384033203125" y="242.5">(from Gpds)</text></g></g><g transform="translate(-638,-198) scale(1,1)"><g><path fill="none" stroke="none"/><text fill="#000000" stroke="none" font-family="Arial" font-size="13px" font-style="normal" font-weight="normal" text-decoration="none" x="941" y="265.5">+name : std::string</text></g></g><g transform="translate(-638,-198) scale(1,1)"><g><path fill="none" stroke="none"/><text fill="#000000" stroke="none" font-family="Arial" font-size="13px" font-style="normal" font-weight="normal" text-decoration="none" x="941" y="288.5">+typeString(type: ValueType): string</text></g></g><g transform="translate(-638,-198) scale(1,1)"><g><path fill="none" stroke="none"/><text fill="#000000" stroke="none" font-family="Arial" font-size="13px" font-style="normal" font-weight="normal" text-decoration="none" x="941" y="303.5">+addEntry(name: string, type: ValueType, value: Value)</text></g></g><g transform="translate(-638,-198) scale(1,1)"><g><path fill="none" stroke="none"/><text fill="#000000" stroke="none" font-family="Arial" font-size="13px" font-style="normal" font-weight="normal" text-decoration="none" x="941" y="318.5">+addEntry(name: string, value: bool)</text></g></g><g transform="translate(-638,-198) scale(1,1)"><g><path fill="none" stroke="none"/><text fill="#000000" stroke="none" font-family="Arial" font-size="13px" font-style="normal" font-weight="normal" text-decoration="none" x="941" y="333.5">+addEntry(name: string, value: int)</text></g></g><g transform="translate(-638,-198) scale(1,1)"><g><path fill="none" stroke="none"/><text fill="#000000" stroke="none" font-family="Arial" font-size="13px" font-style="normal" font-weight="normal" text-decoration="none" x="941" y="348.5">+addEntry(name: string, value: double)</text></g></g><g transform="translate(-638,-198) scale(1,1)"><g><path fill="none" stroke="none"/><text fill="#000000" stroke="none" font-family="Arial" font-size="13px" font-style="normal" font-weight="normal" text-decoration="none" x="941" y="363.5">+addEntry(name: string, value: string)</text></g></g><g transform="translate(-638,-198) scale(1,1)"><g><path fill="none" stroke="none"/><text fill="#000000" stroke="none" font-family="Arial" font-size="13px" font-style="normal" font-weight="normal" text-decoration="none" x="941" y="378.5">+addEntry(name: string, value: Container)</text></g></g><g transform="translate(-638,-198) scale(1,1)"><g><path fill="none" stroke="none"/><text fill="#000000" stroke="none" font-family="Arial" font-size="13px" font-style="normal" font-weight="normal" text-decoration="none" x="941" y="393.5">+getEntry(name: string): Value</text></g></g><g transform="translate(-638,-198) scale(1,1)"><g><path fill="none" stroke="none"/><text fill="#000000" stroke="none" font-family="Arial" font-size="13px" font-style="normal" font-weight="normal" text-decoration="none" x="941" y="408.5">+getEntries(name: string): Value[0..*]</text></g></g><g transform="translate(-638,-198) scale(1,1)"><g><path fill="none" stroke="none"/><text fill="#000000" stroke="none" font-family="Arial" font-size="13px" font-style="normal" font-weight="normal" text-decoration="none" x="941" y="423.5">+addArgument(name: string, value: string)</text></g></g><g transform="translate(-638,-198) scale(1,1)"><g><path fill="none" stroke="none"/><text fill="#000000" stroke="none" font-family="Arial" font-size="13px" font-style="normal" font-weight="normal" text-decoration="none" x="941" y="438.5">+getArgument(name: string): string</text></g></g><g transform="translate(-638,-198) scale(1,1)"><g><path fill="none" stroke="none"/><text fill="#000000" stroke="none" font-family="Arial" font-size="13px" font-style="normal" font-weight="normal" text-decoration="none" x="941" y="453.5">+isList(): bool</text></g></g><g transform="translate(-638,-198) scale(1,1)"><path fill="none" stroke="#000000" d="M 826 337 L 936 337" stroke-miterlimit="10"/></g><g transform="translate(-638,-198) scale(1,1)"><path fill="none" stroke="#000000" d="M 925.8373251423759 341.209517756016 L 936 337 L 925.8373251423758 332.790482243984" stroke-miterlimit="10"/></g><g transform="translate(-638,-198) scale(1,1)"><rect fill="#C0C0C0" stroke="none" x="655" y="511" width="149.537109375" height="77" opacity="0.2"/></g><g transform="translate(-638,-198) scale(1,1)"><rect fill="#ffffff" stroke="none" x="648" y="504" width="149.537109375" height="77"/></g><g transform="translate(-638,-198) scale(1,1)"><path fill="none" stroke="#000000" d="M 648 504 L 797.537109375 504 L 797.537109375 581 L 648 581 L 648 504 Z Z" stroke-miterlimit="10"/></g><g transform="translate(-638,-198) scale(1,1)"><path fill="none" stroke="#000000" d="M 648 529 L 797.537109375 529" stroke-miterlimit="10"/></g><g transform="translate(-638,-198) scale(1,1)"><g><path fill="none" stroke="none"/><text fill="#000000" stroke="none" font-family="Arial" font-size="13px" font-style="normal" font-weight="bold" text-decoration="none" x="712.294921875" y="523.5">Car</text></g></g><g transform="translate(-638,-198) scale(1,1)"><g><path fill="none" stroke="none"/><text fill="#000000" stroke="none" font-family="Arial" font-size="13px" font-style="normal" font-weight="normal" text-decoration="none" x="653" y="546.5">+manufacturer: string</text></g></g><g transform="translate(-638,-198) scale(1,1)"><g><path fill="none" stroke="none"/><text fill="#000000" stroke="none" font-family="Arial" font-size="13px" font-style="normal" font-weight="normal" text-decoration="none" x="653" y="561.5">+model: string</text></g></g><g transform="translate(-638,-198) scale(1,1)"><g><path fill="none" stroke="none"/><text fill="#000000" stroke="none" font-family="Arial" font-size="13px" font-style="normal" font-weight="normal" text-decoration="none" x="653" y="576.5">+yearOfConstruction: int</text></g></g><g transform="translate(-638,-198) scale(1,1)"><path fill="none" stroke="#000000" d="M 718 504 L 718 380" stroke-miterlimit="10" stroke-dasharray="3"/></g><g transform="translate(-638,-198) scale(1,1)"><path fill="#FFFFFF" stroke="none" d="M 726.419035512032 400.3253497152483 L 718 380 L 709.580964487968 400.3253497152483"/></g><g transform="translate(-638,-198) scale(1,1)"><path fill="none" stroke="#000000" d="M 726.419035512032 400.3253497152483 L 718 380 L 709.580964487968 400.3253497152483 L 726.419035512032 400.3253497152483" stroke-miterlimit="10"/></g><g transform="translate(-638,-198) scale(1,1)"><rect fill="#C0C0C0" stroke="none" x="943" y="503" width="88.12353515625" height="92" opacity="0.2"/></g><g transform="translate(-638,-198) scale(1,1)"><rect fill="#ffffff" stroke="none" x="936" y="496" width="88.12353515625" height="92"/></g><g transform="translate(-638,-198) scale(1,1)"><path fill="none" stroke="#000000" d="M 936 496 L 1024.12353515625 496 L 1024.12353515625 588 L 936 588 L 936 496 Z Z" stroke-miterlimit="10"/></g><g transform="translate(-638,-198) scale(1,1)"><path fill="none" stroke="#000000" d="M 936 521 L 1024.12353515625 521" stroke-miterlimit="10"/></g><g transform="translate(-638,-198) scale(1,1)"><g><path fill="none" stroke="none"/><text fill="#000000" stroke="none" font-family="Arial" font-size="13px" font-style="normal" font-weight="bold" text-decoration="none" x="964.529052734375" y="515.5">Color</text></g></g><g transform="translate(-638,-198) scale(1,1)"><g><path fill="none" stroke="none"/><text fill="#000000" stroke="none" font-family="Arial" font-size="13px" font-style="normal" font-weight="normal" text-decoration="none" x="941" y="538.5">+name: string</text></g></g><g transform="translate(-638,-198) scale(1,1)"><g><path fill="none" stroke="none"/><text fill="#000000" stroke="none" font-family="Arial" font-size="13px" font-style="normal" font-weight="normal" text-decoration="none" x="941" y="553.5">+red: int</text></g></g><g transform="translate(-638,-198) scale(1,1)"><g><path fill="none" stroke="none"/><text fill="#000000" stroke="none" font-family="Arial" font-size="13px" font-style="normal" font-weight="normal" text-decoration="none" x="941" y="568.5">+green: int</text></g></g><g transform="translate(-638,-198) scale(1,1)"><g><path fill="none" stroke="none"/><text fill="#000000" stroke="none" font-family="Arial" font-size="13px" font-style="normal" font-weight="normal" text-decoration="none" x="941" y="583.5">+blue: int</text></g></g><g transform="translate(-638,-198) scale(1,1)"><path fill="none" stroke="#000000" d="M 936 542 L 798 542" stroke-miterlimit="10"/></g><g transform="translate(-638,-198) scale(1,1)"><path fill="#000000" stroke="none" d="M 808.1626748576241 537.790482243984 L 798 542 L 808.1626748576241 546.209517756016 L 820 542"/></g><g transform="translate(-638,-198) scale(1,1)"><path fill="none" stroke="#000000" d="M 808.1626748576241 537.790482243984 L 798 542 L 808.1626748576241 546.209517756016 L 820 542 L 808.1626748576241 537.790482243984" stroke-miterlimit="10"/></g><g transform="translate(-638,-198) scale(1,1)"><path fill="none" stroke="#000000" d="M 925.8373251423759 546.209517756016 L 936 542 L 925.8373251423758 537.790482243984" stroke-miterlimit="10"/></g><g transform="translate(-638,-198) scale(1,1)"><g><path fill="none" stroke="none"/><text fill="#000000" stroke="none" font-family="Arial" font-size="13px" font-style="normal" font-weight="normal" text-decoration="none" x="892.5" y="562.5">+color</text></g></g><g transform="translate(-638,-198) scale(1,1)"><g><path fill="none" stroke="none"/><text fill="#000000" stroke="none" font-family="Arial" font-size="13px" font-style="normal" font-weight="normal" text-decoration="none" x="910.5" y="535.5">1</text></g></g></g></svg>