<svg version="1.1" xmlns="http://www.w3.org/2000/svg" xmlns:xlink="http://www.w3.org/1999/xlink" width="348.12353515625" height="112"><defs/><g><g transform="translate(-262,-198) scale(1,1)"><rect fill="#C0C0C0" stroke="none" x="279" y="215" width="149.537109375" height="87" opacity="0.2"/></g><g transform="translate(-262,-198) scale(1,1)"><rect fill="#ffffff" stroke="none" x="272" y="208" width="149.537109375" height="87"/></g><g transform="translate(-262,-198) scale(1,1)"><path fill="none" stroke="#000000" d="M 272 208 L 421.537109375 208 L 421.537109375 295 L 272 295 L 272 208 Z Z" stroke-miterlimit="10"/></g><g transform="translate(-262,-198) scale(1,1)"><path fill="none" stroke="#000000" d="M 272 233 L 421.537109375 233" stroke-miterlimit="10"/></g><g transform="translate(-262,-198) scale(1,1)"><g><path fill="none" stroke="none"/><text fill="#000000" stroke="none" font-family="Arial" font-size="13px" font-style="normal" font-weight="bold" text-decoration="none" x="336.294921875" y="227.5">Car</text></g></g><g transform="translate(-262,-198) scale(1,1)"><g><path fill="none" stroke="none"/><text fill="#000000" stroke="none" font-family="Arial" font-size="13px" font-style="normal" font-weight="normal" text-decoration="none" x="277" y="250.5">+manufacturer: string</text></g></g><g transform="translate(-262,-198) scale(1,1)"><g><path fill="none" stroke="none"/><text fill="#000000" stroke="none" font-family="Arial" font-size="13px" font-style="normal" font-weight="normal" text-decoration="none" x="277" y="265.5">+model: string</text></g></g><g transform="translate(-262,-198) scale(1,1)"><g><path fill="none" stroke="none"/><text fill="#000000" stroke="none" font-family="Arial" font-size="13px" font-style="normal" font-weight="normal" text-decoration="none" x="277" y="280.5">+yearOfConstruction: int</text></g></g><g transform="translate(-262,-198) scale(1,1)"><rect fill="#C0C0C0" stroke="none" x="519" y="215" width="88.12353515625" height="92" opacity="0.2"/></g><g transform="translate(-262,-198) scale(1,1)"><rect fill="#ffffff" stroke="none" x="512" y="208" width="88.12353515625" height="92"/></g><g transform="translate(-262,-198) scale(1,1)"><path fill="none" stroke="#000000" d="M 512 208 L 600.12353515625 208 L 600.12353515625 300 L 512 300 L 512 208 Z Z" stroke-miterlimit="10"/></g><g transform="translate(-262,-198) scale(1,1)"><path fill="none" stroke="#000000" d="M 512 233 L 600.12353515625 233" stroke-miterlimit="10"/></g><g transform="translate(-262,-198) scale(1,1)"><g><path fill="none" stroke="none"/><text fill="#000000" stroke="none" font-family="Arial" font-size="13px" font-style="normal" font-weight="bold" text-decoration="none" x="540.529052734375" y="227.5">Color</text></g></g><g transform="translate(-262,-198) scale(1,1)"><g><path fill="none" stroke="none"/><text fill="#000000" stroke="none" font-family="Arial" font-size="13px" font-style="normal" font-weight="normal" text-decoration="none" x="517" y="250.5">+name: string</text></g></g><g transform="translate(-262,-198) scale(1,1)"><g><path fill="none" stroke="none"/><text fill="#000000" stroke="none" font-family="Arial" font-size="13px" font-style="normal" font-weight="normal" text-decoration="none" x="517" y="265.5">+red: int</text></g></g><g transform="translate(-262,-198) scale(1,1)"><g><path fill="none" stroke="none"/><text fill="#000000" stroke="none" font-family="Arial" font-size="13px" font-style="normal" font-weight="normal" text-decoration="none" x="517" y="280.5">+green: int</text></g></g><g transform="translate(-262,-198) scale(1,1)"><g><path fill="none" stroke="none"/><text fill="#000000" stroke="none" font-family="Arial" font-size="13px" font-style="normal" font-weight="normal" text-decoration="none" x="517" y="295.5">+blue: int</text></g></g><g transform="translate(-262,-198) scale(1,1)"><path fill="none" stroke="#000000" d="M 512 253 L 422 253" stroke-miterlimit="10"/></g><g transform="translate(-262,-198) scale(1,1)"><path fill="#000000" stroke="none" d="M 432.16267485762415 248.790482243984 L 422 253 L 432.16267485762415 257.209517756016 L 444 253"/></g><g transform="translate(-262,-198) scale(1,1)"><path fill="none" stroke="#000000" d="M 432.16267485762415 248.790482243984 L 422 253 L 432.16267485762415 257.209517756016 L 444 253 L 432.16267485762415 248.790482243984" stroke-miterlimit="10"/></g><g transform="translate(-262,-198) scale(1,1)"><path fill="none" stroke="#000000" d="M 501.83732514237585 257.209517756016 L 512 253 L 501.83732514237585 248.790482243984" stroke-miterlimit="10"/></g><g transform="translate(-262,-198) scale(1,1)"><g><path fill="none" stroke="none"/><text fill="#000000" stroke="none" font-family="Arial" font-size="13px" font-style="normal" font-weight="normal" text-decoration="none" x="468.5" y="273.5">+color</text></g></g><g transform="translate(-262,-198) scale(1,1)"><g><path fill="none" stroke="none"/><text fill="#000000" stroke="none" font-family="Arial" font-size="13px" font-style="normal" font-weight="normal" text-decoration="none" x="486.5" y="246.5">1</text></g></g></g></svg>