<svg version="1.1" xmlns="http://www.w3.org/2000/svg" xmlns:xlink="http://www.w3.org/1999/xlink" width="400.7314453125" height="260"><defs/><g><g transform="translate(-94,-78) scale(1,1)"><rect fill="#C0C0C0" stroke="none" x="263" y="287" width="88" height="48" opacity="0.2"/></g><g transform="translate(-94,-78) scale(1,1)"><rect fill="#ffffff" stroke="none" x="256" y="280" width="88" height="48"/></g><g transform="translate(-94,-78) scale(1,1)"><path fill="none" stroke="#000000" d="M 256 280 L 344 280 L 344 328 L 256 328 L 256 280 Z Z" stroke-miterlimit="10"/></g><g transform="translate(-94,-78) scale(1,1)"><g><path fill="none" stroke="none"/><text fill="#000000" stroke="none" font-family="Arial" font-size="13px" font-style="normal" font-weight="bold" text-decoration="none" x="264.96728515625" y="299.5">ArchiverXml</text></g></g><g transform="translate(-94,-78) scale(1,1)"><g><path fill="none" stroke="none"/><text fill="#000000" stroke="none" font-family="Arial" font-size="13px" font-style="normal" font-weight="normal" text-decoration="none" x="265.3291015625" y="314.5">(from Gpds)</text></g></g><g transform="translate(-94,-78) scale(1,1)"><rect fill="#C0C0C0" stroke="none" x="111" y="95" width="380.7314453125" height="117" opacity="0.2"/></g><g transform="translate(-94,-78) scale(1,1)"><rect fill="#ffffff" stroke="none" x="104" y="88" width="380.7314453125" height="117"/></g><g transform="translate(-94,-78) scale(1,1)"><path fill="none" stroke="#000000" d="M 104 88 L 484.7314453125 88 L 484.7314453125 205 L 104 205 L 104 88 Z Z" stroke-miterlimit="10"/></g><g transform="translate(-94,-78) scale(1,1)"><path fill="none" stroke="#000000" d="M 104 128 L 484.7314453125 128" stroke-miterlimit="10"/></g><g transform="translate(-94,-78) scale(1,1)"><path fill="none" stroke="#000000" d="M 104 138 L 484.7314453125 138" stroke-miterlimit="10"/></g><g transform="translate(-94,-78) scale(1,1)"><g><path fill="none" stroke="none"/><text fill="#000000" stroke="none" font-family="Arial" font-size="13px" font-style="italic" font-weight="bold" text-decoration="none" x="270.527099609375" y="107.5">Archiver</text></g></g><g transform="translate(-94,-78) scale(1,1)"><g><path fill="none" stroke="none"/><text fill="#000000" stroke="none" font-family="Arial" font-size="13px" font-style="normal" font-weight="normal" text-decoration="none" x="259.69482421875" y="122.5">(from Gpds)</text></g></g><g transform="translate(-94,-78) scale(1,1)"><g><path fill="none" stroke="none"/><text fill="#000000" stroke="none" font-family="Arial" font-size="13px" font-style="italic" font-weight="normal" text-decoration="none" x="109" y="155.5">+save(stream: ostream, c: Container, rootName: string): bool</text></g></g><g transform="translate(-94,-78) scale(1,1)"><g><path fill="none" stroke="none"/><text fill="#000000" stroke="none" font-family="Arial" font-size="13px" font-style="normal" font-weight="normal" text-decoration="none" x="109" y="170.5">+save(stream: ostream, object: Serialize, rootName: string): bool</text></g></g><g transform="translate(-94,-78) scale(1,1)"><g><path fill="none" stroke="none"/><text fill="#000000" stroke="none" font-family="Arial" font-size="13px" font-style="italic" font-weight="normal" text-decoration="none" x="109" y="185.5">+load(stream: istream, c: Container, rootName: string): bool</text></g></g><g transform="translate(-94,-78) scale(1,1)"><g><path fill="none" stroke="none"/><text fill="#000000" stroke="none" font-family="Arial" font-size="13px" font-style="normal" font-weight="normal" text-decoration="none" x="109" y="200.5">+load(stream: istream, object: Serialize, rootName: string): bool</text></g></g><g transform="translate(-94,-78) scale(1,1)"><path fill="none" stroke="#000000" d="M 296 280 L 296 205" stroke-miterlimit="10"/></g><g transform="translate(-94,-78) scale(1,1)"><path fill="#FFFFFF" stroke="none" d="M 304.419035512032 225.3253497152483 L 296 205 L 287.580964487968 225.3253497152483"/></g><g transform="translate(-94,-78) scale(1,1)"><path fill="none" stroke="#000000" d="M 304.419035512032 225.3253497152483 L 296 205 L 287.580964487968 225.3253497152483 L 304.419035512032 225.3253497152483" stroke-miterlimit="10"/></g></g></svg>