<svg version="1.1" xmlns="http://www.w3.org/2000/svg" xmlns:xlink="http://www.w3.org/1999/xlink" width="400.7314453125" height="233"><defs/><g><g transform="translate(-94,-88) scale(1,1)"><rect fill="#C0C0C0" stroke="none" x="111" y="105" width="380.7314453125" height="107" opacity="0.2"/></g><g transform="translate(-94,-88) scale(1,1)"><rect fill="#ffffff" stroke="none" x="104" y="98" width="380.7314453125" height="107"/></g><g transform="translate(-94,-88) scale(1,1)"><path fill="none" stroke="#000000" d="M 104 98 L 484.7314453125 98 L 484.7314453125 205 L 104 205 L 104 98 Z Z" stroke-miterlimit="10"/></g><g transform="translate(-94,-88) scale(1,1)"><path fill="none" stroke="#000000" d="M 104 138 L 484.7314453125 138" stroke-miterlimit="10"/></g><g transform="translate(-94,-88) scale(1,1)"><g><path fill="none" stroke="none"/><text fill="#000000" stroke="none" font-family="Arial" font-size="13px" font-style="italic" font-weight="bold" text-decoration="none" x="270.527099609375" y="117.5">Archiver</text></g></g><g transform="translate(-94,-88) scale(1,1)"><g><path fill="none" stroke="none"/><text fill="#000000" stroke="none" font-family="Arial" font-size="13px" font-style="normal" font-weight="normal" text-decoration="none" x="259.69482421875" y="132.5">(from Gpds)</text></g></g><g transform="translate(-94,-88) scale(1,1)"><g><path fill="none" stroke="none"/><text fill="#000000" stroke="none" font-family="Arial" font-size="13px" font-style="italic" font-weight="normal" text-decoration="none" x="109" y="155.5">+save(stream: ostream, c: Value, rootName: string): bool</text></g></g><g transform="translate(-94,-88) scale(1,1)"><g><path fill="none" stroke="none"/><text fill="#000000" stroke="none" font-family="Arial" font-size="13px" font-style="normal" font-weight="normal" text-decoration="none" x="109" y="170.5">+save(stream: ostream, object: Serialize, rootName: string): bool</text></g></g><g transform="translate(-94,-88) scale(1,1)"><g><path fill="none" stroke="none"/><text fill="#000000" stroke="none" font-family="Arial" font-size="13px" font-style="italic" font-weight="normal" text-decoration="none" x="109" y="185.5">+load(stream: istream, c: Value, rootName: string): bool</text></g></g><g transform="translate(-94,-88) scale(1,1)"><g><path fill="none" stroke="none"/><text fill="#000000" stroke="none" font-family="Arial" font-size="13px" font-style="normal" font-weight="normal" text-decoration="none" x="109" y="200.5">+load(stream: istream, object: Serialize, rootName: string): bool</text></g></g><g transform="translate(-94,-88) scale(1,1)"><rect fill="#C0C0C0" stroke="none" x="255" y="279" width="85.5908203125" height="39" opacity="0.2"/></g><g transform="translate(-94,-88) scale(1,1)"><rect fill="#ffffff" stroke="none" x="248" y="272" width="85.5908203125" height="39"/></g><g transform="translate(-94,-88) scale(1,1)"><path fill="none" stroke="#000000" d="M 248 272 L 333.5908203125 272 L 333.5908203125 311 L 248 311 L 248 272 Z Z" stroke-miterlimit="10"/></g><g transform="translate(-94,-88) scale(1,1)"><g><path fill="none" stroke="none"/><text fill="#000000" stroke="none" font-family="Arial" font-size="13px" font-style="normal" font-weight="bold" text-decoration="none" x="255.7626953125" y="291.5">ArchiverXml</text></g></g><g transform="translate(-94,-88) scale(1,1)"><g><path fill="none" stroke="none"/><text fill="#000000" stroke="none" font-family="Arial" font-size="13px" font-style="normal" font-weight="normal" text-decoration="none" x="256.12451171875" y="306.5">(from Gpds)</text></g></g><g transform="translate(-94,-88) scale(1,1)"><path fill="none" stroke="#000000" d="M 293 272 L 293 205" stroke-miterlimit="10"/></g><g transform="translate(-94,-88) scale(1,1)"><path fill="#FFFFFF" stroke="none" d="M 301.419035512032 225.3253497152483 L 293 205 L 284.580964487968 225.3253497152483"/></g><g transform="translate(-94,-88) scale(1,1)"><path fill="none" stroke="#000000" d="M 301.419035512032 225.3253497152483 L 293 205 L 284.580964487968 225.3253497152483 L 301.419035512032 225.3253497152483" stroke-miterlimit="10"/></g></g></svg>