<svg version="1.1" xmlns="http://www.w3.org/2000/svg" xmlns:xlink="http://www.w3.org/1999/xlink" width="1107.98876953125" height="368"><defs/><g><g transform="translate(2,-54) scale(1,1)"><rect fill="#C0C0C0" stroke="none" x="15" y="87" width="255.04150390625" height="120" opacity="0.2"/></g><g transform="translate(2,-54) scale(1,1)"><rect fill="#ffffff" stroke="none" x="8" y="80" width="255.04150390625" height="120"/></g><g transform="translate(2,-54) scale(1,1)"><path fill="none" stroke="#000000" d="M 8 80 L 263.04150390625 80 L 263.04150390625 200 L 8 200 L 8 80 Z Z" stroke-miterlimit="10"/></g><g transform="translate(2,-54) scale(1,1)"><path fill="#ffffff" stroke="none" d="M 237.04150390625 97 C 237.04150390625 92.0294368 241.07094070625 88 246.04150390625 88 C 251.01206710625 88 255.04150390625 92.0294368 255.04150390625 97 C 255.04150390625 101.9705632 251.01206710625 106 246.04150390625 106 C 241.07094070625 106 237.04150390625 101.9705632 237.04150390625 97 Z"/></g><g transform="translate(2,-54) scale(1,1)"><path fill="none" stroke="#000000" d="M 237.04150390625 97 C 237.04150390625 92.0294368 241.07094070625 88 246.04150390625 88 C 251.01206710625 88 255.04150390625 92.0294368 255.04150390625 97 C 255.04150390625 101.9705632 251.01206710625 106 246.04150390625 106 C 241.07094070625 106 237.04150390625 101.9705632 237.04150390625 97 Z" stroke-miterlimit="10"/></g><g transform="translate(2,-54) scale(1,1)"><path fill="none" stroke="#000000" d="M 8 133 L 263.04150390625 133" stroke-miterlimit="10"/></g><g transform="translate(2,-54) scale(1,1)"><g><path fill="none" stroke="none"/><text fill="#000000" stroke="none" font-family="Arial" font-size="13px" font-style="normal" font-weight="normal" text-decoration="none" x="91.3603515625" y="97.5">«interface»</text></g></g><g transform="translate(2,-54) scale(1,1)"><g><path fill="none" stroke="none"/><text fill="#000000" stroke="none" font-family="Arial" font-size="13px" font-style="italic" font-weight="bold" text-decoration="none" x="99.678955078125" y="112.5">serialize</text></g></g><g transform="translate(2,-54) scale(1,1)"><g><path fill="none" stroke="none"/><text fill="#000000" stroke="none" font-family="Arial" font-size="13px" font-style="normal" font-weight="normal" text-decoration="none" x="90.290771484375" y="127.5">(from gpds)</text></g></g><g transform="translate(2,-54) scale(1,1)"><g><path fill="none" stroke="none"/><text fill="#000000" stroke="none" font-family="Arial" font-size="13px" font-style="italic" font-weight="normal" text-decoration="none" x="13" y="150.5">+to_container(): container</text></g></g><g transform="translate(2,-54) scale(1,1)"><g><path fill="none" stroke="none"/><text fill="#000000" stroke="none" font-family="Arial" font-size="13px" font-style="italic" font-weight="normal" text-decoration="none" x="13" y="165.5">+from_container(c: container)</text></g></g><g transform="translate(2,-54) scale(1,1)"><g><path fill="none" stroke="none"/><text fill="#000000" stroke="none" font-family="Arial" font-size="13px" font-style="normal" font-weight="normal" text-decoration="none" x="13" y="180.5">+to_file(p: path, root_name: string): bool</text></g></g><g transform="translate(2,-54) scale(1,1)"><g><path fill="none" stroke="none"/><text fill="#000000" stroke="none" font-family="Arial" font-size="13px" font-style="normal" font-weight="normal" text-decoration="none" x="13" y="195.5">+from_file(p: path, root_name: string): bool</text></g></g><g transform="translate(2,-54) scale(1,1)"><rect fill="#C0C0C0" stroke="none" x="39" y="335" width="149.537109375" height="77" opacity="0.2"/></g><g transform="translate(2,-54) scale(1,1)"><rect fill="#ffffff" stroke="none" x="32" y="328" width="149.537109375" height="77"/></g><g transform="translate(2,-54) scale(1,1)"><path fill="none" stroke="#000000" d="M 32 328 L 181.537109375 328 L 181.537109375 405 L 32 405 L 32 328 Z Z" stroke-miterlimit="10"/></g><g transform="translate(2,-54) scale(1,1)"><path fill="none" stroke="#000000" d="M 32 353 L 181.537109375 353" stroke-miterlimit="10"/></g><g transform="translate(2,-54) scale(1,1)"><g><path fill="none" stroke="none"/><text fill="#000000" stroke="none" font-family="Arial" font-size="13px" font-style="normal" font-weight="bold" text-decoration="none" x="97.739013671875" y="347.5">car</text></g></g><g transform="translate(2,-54) scale(1,1)"><g><path fill="none" stroke="none"/><text fill="#000000" stroke="none" font-family="Arial" font-size="13px" font-style="normal" font-weight="normal" text-decoration="none" x="37" y="370.5">+manufacturer: string</text></g></g><g transform="translate(2,-54) scale(1,1)"><g><path fill="none" stroke="none"/><text fill="#000000" stroke="none" font-family="Arial" font-size="13px" font-style="normal" font-weight="normal" text-decoration="none" x="37" y="385.5">+model: string</text></g></g><g transform="translate(2,-54) scale(1,1)"><g><path fill="none" stroke="none"/><text fill="#000000" stroke="none" font-family="Arial" font-size="13px" font-style="normal" font-weight="normal" text-decoration="none" x="37" y="400.5">+yearOfConstruction: int</text></g></g><g transform="translate(2,-54) scale(1,1)"><path fill="none" stroke="#000000" d="M 102 328 L 102 200" stroke-miterlimit="10" stroke-dasharray="3"/></g><g transform="translate(2,-54) scale(1,1)"><path fill="#FFFFFF" stroke="none" d="M 110.41903551203198 220.3253497152483 L 102 200 L 93.58096448796803 220.3253497152483"/></g><g transform="translate(2,-54) scale(1,1)"><path fill="none" stroke="#000000" d="M 110.41903551203198 220.3253497152483 L 102 200 L 93.58096448796803 220.3253497152483 L 110.41903551203198 220.3253497152483" stroke-miterlimit="10"/></g><g transform="translate(2,-54) scale(1,1)"><rect fill="#C0C0C0" stroke="none" x="287" y="327" width="88.12353515625" height="92" opacity="0.2"/></g><g transform="translate(2,-54) scale(1,1)"><rect fill="#ffffff" stroke="none" x="280" y="320" width="88.12353515625" height="92"/></g><g transform="translate(2,-54) scale(1,1)"><path fill="none" stroke="#000000" d="M 280 320 L 368.12353515625 320 L 368.12353515625 412 L 280 412 L 280 320 Z Z" stroke-miterlimit="10"/></g><g transform="translate(2,-54) scale(1,1)"><path fill="none" stroke="#000000" d="M 280 345 L 368.12353515625 345" stroke-miterlimit="10"/></g><g transform="translate(2,-54) scale(1,1)"><g><path fill="none" stroke="none"/><text fill="#000000" stroke="none" font-family="Arial" font-size="13px" font-style="normal" font-weight="bold" text-decoration="none" x="309.97314453125" y="339.5">color</text></g></g><g transform="translate(2,-54) scale(1,1)"><g><path fill="none" stroke="none"/><text fill="#000000" stroke="none" font-family="Arial" font-size="13px" font-style="normal" font-weight="normal" text-decoration="none" x="285" y="362.5">+name: string</text></g></g><g transform="translate(2,-54) scale(1,1)"><g><path fill="none" stroke="none"/><text fill="#000000" stroke="none" font-family="Arial" font-size="13px" font-style="normal" font-weight="normal" text-decoration="none" x="285" y="377.5">+red: int</text></g></g><g transform="translate(2,-54) scale(1,1)"><g><path fill="none" stroke="none"/><text fill="#000000" stroke="none" font-family="Arial" font-size="13px" font-style="normal" font-weight="normal" text-decoration="none" x="285" y="392.5">+green: int</text></g></g><g transform="translate(2,-54) scale(1,1)"><g><path fill="none" stroke="none"/><text fill="#000000" stroke="none" font-family="Arial" font-size="13px" font-style="normal" font-weight="normal" text-decoration="none" x="285" y="407.5">+blue: int</text></g></g><g transform="translate(2,-54) scale(1,1)"><path fill="none" stroke="#000000" d="M 280 366 L 182 366" stroke-miterlimit="10"/></g><g transform="translate(2,-54) scale(1,1)"><path fill="#000000" stroke="none" d="M 192.16267485762415 361.790482243984 L 182 366 L 192.16267485762415 370.209517756016 L 204 366"/></g><g transform="translate(2,-54) scale(1,1)"><path fill="none" stroke="#000000" d="M 192.16267485762415 361.790482243984 L 182 366 L 192.16267485762415 370.209517756016 L 204 366 L 192.16267485762415 361.790482243984" stroke-miterlimit="10"/></g><g transform="translate(2,-54) scale(1,1)"><path fill="none" stroke="#000000" d="M 269.83732514237585 370.209517756016 L 280 366 L 269.83732514237585 361.790482243984" stroke-miterlimit="10"/></g><g transform="translate(2,-54) scale(1,1)"><g><path fill="none" stroke="none"/><text fill="#000000" stroke="none" font-family="Arial" font-size="13px" font-style="normal" font-weight="normal" text-decoration="none" x="236.5" y="386.5">+color</text></g></g><g transform="translate(2,-54) scale(1,1)"><g><path fill="none" stroke="none"/><text fill="#000000" stroke="none" font-family="Arial" font-size="13px" font-style="normal" font-weight="normal" text-decoration="none" x="254.5" y="359.5">1</text></g></g><g transform="translate(2,-54) scale(1,1)"><rect fill="#C0C0C0" stroke="none" x="327" y="89" width="393.3046875" height="190" opacity="0.2"/></g><g transform="translate(2,-54) scale(1,1)"><rect fill="#C0C0C0" stroke="none" x="647.3193359375" y="71" width="81.9853515625" height="22" opacity="0.2"/></g><g transform="translate(2,-54) scale(1,1)"><rect fill="#ffffff" stroke="none" x="320" y="82" width="393.3046875" height="190"/></g><g transform="translate(2,-54) scale(1,1)"><path fill="none" stroke="#000000" d="M 320 82 L 713.3046875 82 L 713.3046875 272 L 320 272 L 320 82 Z Z" stroke-miterlimit="10"/></g><g transform="translate(2,-54) scale(1,1)"><path fill="none" stroke="#000000" d="M 320 122 L 713.3046875 122" stroke-miterlimit="10"/></g><g transform="translate(2,-54) scale(1,1)"><path fill="none" stroke="#000000" d="M 320 145 L 713.3046875 145" stroke-miterlimit="10"/></g><g transform="translate(2,-54) scale(1,1)"><g><path fill="none" stroke="none"/><text fill="#000000" stroke="none" font-family="Arial" font-size="13px" font-style="normal" font-weight="bold" text-decoration="none" x="489.912841796875" y="101.5">container</text></g></g><g transform="translate(2,-54) scale(1,1)"><g><path fill="none" stroke="none"/><text fill="#000000" stroke="none" font-family="Arial" font-size="13px" font-style="normal" font-weight="normal" text-decoration="none" x="483.42236328125" y="116.5">(from gpds)</text></g></g><g transform="translate(2,-54) scale(1,1)"><g><path fill="none" stroke="none"/><text fill="#000000" stroke="none" font-family="Arial" font-size="13px" font-style="normal" font-weight="normal" text-decoration="none" x="325" y="139.5">+comment: string</text></g></g><g transform="translate(2,-54) scale(1,1)"><g><path fill="none" stroke="none"/><text fill="#000000" stroke="none" font-family="Arial" font-size="13px" font-style="normal" font-weight="normal" text-decoration="none" x="325" y="162.5">+add_value(key: string, T: value)</text></g></g><g transform="translate(2,-54) scale(1,1)"><g><path fill="none" stroke="none"/><text fill="#000000" stroke="none" font-family="Arial" font-size="13px" font-style="normal" font-weight="normal" text-decoration="none" x="325" y="177.5">+get_value(key: string): T</text></g></g><g transform="translate(2,-54) scale(1,1)"><g><path fill="none" stroke="none"/><text fill="#000000" stroke="none" font-family="Arial" font-size="13px" font-style="normal" font-weight="normal" text-decoration="none" x="325" y="192.5">+get_values(key: string): T[0..*]</text></g></g><g transform="translate(2,-54) scale(1,1)"><g><path fill="none" stroke="none"/><text fill="#000000" stroke="none" font-family="Arial" font-size="13px" font-style="normal" font-weight="normal" text-decoration="none" x="325" y="207.5">+add_attribute(key: string, value: string)</text></g></g><g transform="translate(2,-54) scale(1,1)"><g><path fill="none" stroke="none"/><text fill="#000000" stroke="none" font-family="Arial" font-size="13px" font-style="normal" font-weight="normal" text-decoration="none" x="325" y="222.5">+get_attribute(key: string): string</text></g></g><g transform="translate(2,-54) scale(1,1)"><g><path fill="none" stroke="none"/><text fill="#000000" stroke="none" font-family="Arial" font-size="13px" font-style="normal" font-weight="normal" text-decoration="none" x="325" y="237.5">+get_value_attribute(valueKey: string, attributeKey: String): T</text></g></g><g transform="translate(2,-54) scale(1,1)"><g><path fill="none" stroke="none"/><text fill="#000000" stroke="none" font-family="Arial" font-size="13px" font-style="normal" font-weight="normal" text-decoration="none" x="325" y="252.5">+set_comment(comment: string)</text></g></g><g transform="translate(2,-54) scale(1,1)"><g><path fill="none" stroke="none"/><text fill="#000000" stroke="none" font-family="Arial" font-size="13px" font-style="normal" font-weight="normal" text-decoration="none" x="325" y="267.5">+is_list(): bool</text></g></g><g transform="translate(2,-54) scale(1,1)"><rect fill="#ffffff" stroke="none" x="640.3193359375" y="64" width="81.9853515625" height="22"/></g><g transform="translate(2,-54) scale(1,1)"><path fill="none" stroke="#000000" d="M 640.3193359375 64 L 722.3046875 64 L 722.3046875 86 L 640.3193359375 86 L 640.3193359375 64 Z Z" stroke-miterlimit="10" stroke-dasharray="3"/></g><g transform="translate(2,-54) scale(1,1)"><g><path fill="none" stroke="none"/><text fill="#000000" stroke="none" font-family="Arial" font-size="13px" font-style="normal" font-weight="normal" text-decoration="none" x="645.3193359375" y="81.5">T: valueType</text></g></g><g transform="translate(2,-54) scale(1,1)"><path fill="none" stroke="#000000" d="M 263 168 L 320 168" stroke-miterlimit="10"/></g><g transform="translate(2,-54) scale(1,1)"><path fill="none" stroke="#000000" d="M 309.83732514237585 172.209517756016 L 320 168 L 309.83732514237585 163.790482243984" stroke-miterlimit="10"/></g><g transform="translate(2,-54) scale(1,1)"><rect fill="#C0C0C0" stroke="none" x="823" y="89" width="269.98876953125" height="265" opacity="0.2"/></g><g transform="translate(2,-54) scale(1,1)"><rect fill="#C0C0C0" stroke="none" x="1020.00341796875" y="71" width="81.9853515625" height="22" opacity="0.2"/></g><g transform="translate(2,-54) scale(1,1)"><rect fill="#ffffff" stroke="none" x="816" y="82" width="269.98876953125" height="265"/></g><g transform="translate(2,-54) scale(1,1)"><path fill="none" stroke="#000000" d="M 816 82 L 1085.98876953125 82 L 1085.98876953125 347 L 816 347 L 816 82 Z Z" stroke-miterlimit="10"/></g><g transform="translate(2,-54) scale(1,1)"><path fill="none" stroke="#000000" d="M 816 122 L 1085.98876953125 122" stroke-miterlimit="10"/></g><g transform="translate(2,-54) scale(1,1)"><path fill="none" stroke="#000000" d="M 816 160 L 1085.98876953125 160" stroke-miterlimit="10"/></g><g transform="translate(2,-54) scale(1,1)"><g><path fill="none" stroke="none"/><text fill="#000000" stroke="none" font-family="Arial" font-size="13px" font-style="normal" font-weight="bold" text-decoration="none" x="935.455322265625" y="101.5">value</text></g></g><g transform="translate(2,-54) scale(1,1)"><g><path fill="none" stroke="none"/><text fill="#000000" stroke="none" font-family="Arial" font-size="13px" font-style="normal" font-weight="normal" text-decoration="none" x="917.764404296875" y="116.5">(from gpds)</text></g></g><g transform="translate(2,-54) scale(1,1)"><g><path fill="none" stroke="none"/><text fill="#000000" stroke="none" font-family="Arial" font-size="13px" font-style="normal" font-weight="normal" text-decoration="none" x="821" y="139.5">+comment: string</text></g></g><g transform="translate(2,-54) scale(1,1)"><g><path fill="none" stroke="none"/><text fill="#000000" stroke="none" font-family="Arial" font-size="13px" font-style="normal" font-weight="normal" text-decoration="none" x="821" y="154.5">-value: variant</text></g></g><g transform="translate(2,-54) scale(1,1)"><g><path fill="none" stroke="none"/><text fill="#000000" stroke="none" font-family="Arial" font-size="13px" font-style="normal" font-weight="normal" text-decoration="none" x="821" y="177.5">+from_string(s: string)</text></g></g><g transform="translate(2,-54) scale(1,1)"><g><path fill="none" stroke="none"/><text fill="#000000" stroke="none" font-family="Arial" font-size="13px" font-style="normal" font-weight="normal" text-decoration="none" x="821" y="192.5">+to_string(): string</text></g></g><g transform="translate(2,-54) scale(1,1)"><g><path fill="none" stroke="none"/><text fill="#000000" stroke="none" font-family="Arial" font-size="13px" font-style="normal" font-weight="normal" text-decoration="none" x="821" y="207.5">+set(value: T)</text></g></g><g transform="translate(2,-54) scale(1,1)"><g><path fill="none" stroke="none"/><text fill="#000000" stroke="none" font-family="Arial" font-size="13px" font-style="normal" font-weight="normal" text-decoration="none" x="821" y="222.5">+get(): T</text></g></g><g transform="translate(2,-54) scale(1,1)"><g><path fill="none" stroke="none"/><text fill="#000000" stroke="none" font-family="Arial" font-size="13px" font-style="normal" font-weight="normal" text-decoration="none" x="821" y="237.5">+add_attribute(name: string, value: string)</text></g></g><g transform="translate(2,-54) scale(1,1)"><g><path fill="none" stroke="none"/><text fill="#000000" stroke="none" font-family="Arial" font-size="13px" font-style="normal" font-weight="normal" text-decoration="none" x="821" y="252.5">+get_attribute(name: string): string</text></g></g><g transform="translate(2,-54) scale(1,1)"><g><path fill="none" stroke="none"/><text fill="#000000" stroke="none" font-family="Arial" font-size="13px" font-style="normal" font-weight="normal" text-decoration="none" x="821" y="267.5">+set_comment(comment: string)</text></g></g><g transform="translate(2,-54) scale(1,1)"><g><path fill="none" stroke="none"/><text fill="#000000" stroke="none" font-family="Arial" font-size="13px" font-style="normal" font-weight="normal" text-decoration="none" x="821" y="282.5">+is_type(): bool</text></g></g><g transform="translate(2,-54) scale(1,1)"><g><path fill="none" stroke="none"/><text fill="#000000" stroke="none" font-family="Arial" font-size="13px" font-style="normal" font-weight="normal" text-decoration="none" x="821" y="297.5">+is_empty(): bool</text></g></g><g transform="translate(2,-54) scale(1,1)"><g><path fill="none" stroke="none"/><text fill="#000000" stroke="none" font-family="Arial" font-size="13px" font-style="normal" font-weight="normal" text-decoration="none" x="821" y="312.5">+type_string(): string</text></g></g><g transform="translate(2,-54) scale(1,1)"><g><path fill="none" stroke="none"/><text fill="#000000" stroke="none" font-family="Arial" font-size="13px" font-style="normal" font-weight="normal" text-decoration="none" x="821" y="327.5">-allocate_container_memory(c: container)</text></g></g><g transform="translate(2,-54) scale(1,1)"><g><path fill="none" stroke="none"/><text fill="#000000" stroke="none" font-family="Arial" font-size="13px" font-style="normal" font-weight="normal" text-decoration="none" x="821" y="342.5">-free_container_memory()</text></g></g><g transform="translate(2,-54) scale(1,1)"><rect fill="#ffffff" stroke="none" x="1013.00341796875" y="64" width="81.9853515625" height="22"/></g><g transform="translate(2,-54) scale(1,1)"><path fill="none" stroke="#000000" d="M 1013.00341796875 64 L 1094.98876953125 64 L 1094.98876953125 86 L 1013.00341796875 86 L 1013.00341796875 64 Z Z" stroke-miterlimit="10" stroke-dasharray="3"/></g><g transform="translate(2,-54) scale(1,1)"><g><path fill="none" stroke="none"/><text fill="#000000" stroke="none" font-family="Arial" font-size="13px" font-style="normal" font-weight="normal" text-decoration="none" x="1018.00341796875" y="81.5">T: valueType</text></g></g><g transform="translate(2,-54) scale(1,1)"><path fill="none" stroke="#000000" d="M 816 152 L 723 152" stroke-miterlimit="10"/></g><g transform="translate(2,-54) scale(1,1)"><path fill="#000000" stroke="none" d="M 733.1626748576241 147.790482243984 L 723 152 L 733.1626748576241 156.209517756016 L 745 152"/></g><g transform="translate(2,-54) scale(1,1)"><path fill="none" stroke="#000000" d="M 733.1626748576241 147.790482243984 L 723 152 L 733.1626748576241 156.209517756016 L 745 152 L 733.1626748576241 147.790482243984" stroke-miterlimit="10"/></g><g transform="translate(2,-54) scale(1,1)"><path fill="none" stroke="#000000" d="M 805.8373251423759 156.209517756016 L 816 152 L 805.8373251423758 147.790482243984" stroke-miterlimit="10"/></g><g transform="translate(2,-54) scale(1,1)"><g><path fill="none" stroke="none"/><text fill="#000000" stroke="none" font-family="Arial" font-size="13px" font-style="normal" font-weight="normal" text-decoration="none" x="767.5" y="172.5">+values</text></g></g><g transform="translate(2,-54) scale(1,1)"><g><path fill="none" stroke="none"/><text fill="#000000" stroke="none" font-family="Arial" font-size="13px" font-style="normal" font-weight="normal" text-decoration="none" x="783.74365234375" y="145.5">0..*</text></g></g><g transform="translate(2,-54) scale(1,1)"><path fill="none" stroke="#000000" d="M 723 216 L 816 216" stroke-miterlimit="10"/></g></g></svg>