<svg version="1.1" xmlns="http://www.w3.org/2000/svg" xmlns:xlink="http://www.w3.org/1999/xlink" width="1380" height="724"><defs/><g><g transform="translate(-22,-38) scale(1,1)"><rect fill="#C0C0C0" stroke="none" x="39" y="55" width="544" height="15" opacity="0.2"/></g><g transform="translate(-22,-38) scale(1,1)"><rect fill="#C0C0C0" stroke="none" x="39" y="69" width="1360" height="690" opacity="0.2"/></g><g transform="translate(-22,-38) scale(1,1)"><rect fill="#ffffff" stroke="none" x="32" y="63" width="1360" height="689"/></g><g transform="translate(-22,-38) scale(1,1)"><path fill="none" stroke="#000000" d="M 32 63 L 1392 63 L 1392 752 L 32 752 L 32 63 Z Z" stroke-miterlimit="10"/></g><g transform="translate(-22,-38) scale(1,1)"><rect fill="#ffffff" stroke="none" x="32" y="48" width="544" height="15"/></g><g transform="translate(-22,-38) scale(1,1)"><path fill="none" stroke="#000000" d="M 32 48 L 576 48 L 576 63 L 32 63 L 32 48 Z Z" stroke-miterlimit="10"/></g><g transform="translate(-22,-38) scale(1,1)"><rect fill="#ffffff" stroke="none" x="32" y="62" width="1360" height="690"/></g><g transform="translate(-22,-38) scale(1,1)"><path fill="none" stroke="#000000" d="M 32 62 L 1392 62 L 1392 752 L 32 752 L 32 62 Z Z" stroke-miterlimit="10"/></g><g transform="translate(-22,-38) scale(1,1)"><g><path fill="none" stroke="none"/><text fill="#000000" stroke="none" font-family="Arial" font-size="13px" font-style="normal" font-weight="bold" text-decoration="none" x="696.464111328125" y="82.5">Gpds</text></g></g><g transform="translate(-22,-38) scale(1,1)"><path fill="none" stroke="#000000" d="M 234 424 L 368 424" stroke-miterlimit="10"/></g><g transform="translate(-22,-38) scale(1,1)"><path fill="#000000" stroke="none" d="M 357.83732514237585 428.209517756016 L 368 424 L 357.83732514237585 419.790482243984 L 346 424"/></g><g transform="translate(-22,-38) scale(1,1)"><path fill="none" stroke="#000000" d="M 357.83732514237585 428.209517756016 L 368 424 L 357.83732514237585 419.790482243984 L 346 424 L 357.83732514237585 428.209517756016" stroke-miterlimit="10"/></g><g transform="translate(-22,-38) scale(1,1)"><g><path fill="none" stroke="none"/><text fill="#000000" stroke="none" font-family="Arial" font-size="13px" font-style="normal" font-weight="normal" text-decoration="none" x="246.5" y="443.5">+settings</text></g></g><g transform="translate(-22,-38) scale(1,1)"><g><path fill="none" stroke="none"/><text fill="#000000" stroke="none" font-family="Arial" font-size="13px" font-style="normal" font-weight="normal" text-decoration="none" x="247.5" y="420.5">1</text></g></g><g transform="translate(-22,-38) scale(1,1)"><path fill="none" stroke="#000000" d="M 1024 448 L 931 448" stroke-miterlimit="10"/></g><g transform="translate(-22,-38) scale(1,1)"><path fill="#000000" stroke="none" d="M 941.1626748576241 443.790482243984 L 931 448 L 941.1626748576241 452.209517756016 L 953 448"/></g><g transform="translate(-22,-38) scale(1,1)"><path fill="none" stroke="#000000" d="M 941.1626748576241 443.790482243984 L 931 448 L 941.1626748576241 452.209517756016 L 953 448 L 941.1626748576241 443.790482243984" stroke-miterlimit="10"/></g><g transform="translate(-22,-38) scale(1,1)"><g><path fill="none" stroke="none"/><text fill="#000000" stroke="none" font-family="Arial" font-size="13px" font-style="normal" font-weight="normal" text-decoration="none" x="975.5" y="468.5">+values</text></g></g><g transform="translate(-22,-38) scale(1,1)"><g><path fill="none" stroke="none"/><text fill="#000000" stroke="none" font-family="Arial" font-size="13px" font-style="normal" font-weight="normal" text-decoration="none" x="991.74365234375" y="441.5">0..*</text></g></g><g transform="translate(-22,-38) scale(1,1)"><path fill="none" stroke="#000000" d="M 1013 672 L 1160 672 L 1160 572" stroke-miterlimit="10"/></g><g transform="translate(-22,-38) scale(1,1)"><path fill="#000000" stroke="none" d="M 1164.2095177560159 582.1626748576241 L 1160 572 L 1155.7904822439841 582.1626748576241 L 1160 594"/></g><g transform="translate(-22,-38) scale(1,1)"><path fill="none" stroke="#000000" d="M 1164.2095177560159 582.1626748576241 L 1160 572 L 1155.7904822439841 582.1626748576241 L 1160 594 L 1164.2095177560159 582.1626748576241" stroke-miterlimit="10"/></g><g transform="translate(-22,-38) scale(1,1)"><path fill="none" stroke="#000000" d="M 1023.1626748576241 667.790482243984 L 1013 672 L 1023.1626748576241 676.209517756016" stroke-miterlimit="10"/></g><g transform="translate(-22,-38) scale(1,1)"><g><path fill="none" stroke="none"/><text fill="#000000" stroke="none" font-family="Arial" font-size="13px" font-style="normal" font-weight="normal" text-decoration="none" x="1033.4736328125" y="687.5">+attributes</text></g></g><g transform="translate(-22,-38) scale(1,1)"><g><path fill="none" stroke="none"/><text fill="#000000" stroke="none" font-family="Arial" font-size="13px" font-style="normal" font-weight="normal" text-decoration="none" x="1036.74365234375" y="665.5">0..*</text></g></g><g transform="translate(-22,-38) scale(1,1)"><path fill="none" stroke="#000000" d="M 800 672 L 712 672 L 712 536" stroke-miterlimit="10"/></g><g transform="translate(-22,-38) scale(1,1)"><path fill="#000000" stroke="none" d="M 716.209517756016 546.1626748576241 L 712 536 L 707.790482243984 546.1626748576241 L 712 558"/></g><g transform="translate(-22,-38) scale(1,1)"><path fill="none" stroke="#000000" d="M 716.209517756016 546.1626748576241 L 712 536 L 707.790482243984 546.1626748576241 L 712 558 L 716.209517756016 546.1626748576241" stroke-miterlimit="10"/></g><g transform="translate(-22,-38) scale(1,1)"><path fill="none" stroke="#000000" d="M 789.8373251423759 676.209517756016 L 800 672 L 789.8373251423758 667.790482243984" stroke-miterlimit="10"/></g><g transform="translate(-22,-38) scale(1,1)"><g><path fill="none" stroke="none"/><text fill="#000000" stroke="none" font-family="Arial" font-size="13px" font-style="normal" font-weight="normal" text-decoration="none" x="723.4736328125" y="692.5">+attributes</text></g></g><g transform="translate(-22,-38) scale(1,1)"><g><path fill="none" stroke="none"/><text fill="#000000" stroke="none" font-family="Arial" font-size="13px" font-style="normal" font-weight="normal" text-decoration="none" x="766.74365234375" y="667.5">0..*</text></g></g><g transform="translate(-22,-38) scale(1,1)"><rect fill="#C0C0C0" stroke="none" x="535" y="353" width="393.3046875" height="190" opacity="0.2"/></g><g transform="translate(-22,-38) scale(1,1)"><rect fill="#C0C0C0" stroke="none" x="855.3193359375" y="335" width="81.9853515625" height="22" opacity="0.2"/></g><g transform="translate(-22,-38) scale(1,1)"><rect fill="#ffffff" stroke="none" x="528" y="346" width="393.3046875" height="190"/></g><g transform="translate(-22,-38) scale(1,1)"><path fill="none" stroke="#000000" d="M 528 346 L 921.3046875 346 L 921.3046875 536 L 528 536 L 528 346 Z Z" stroke-miterlimit="10"/></g><g transform="translate(-22,-38) scale(1,1)"><path fill="none" stroke="#000000" d="M 528 386 L 921.3046875 386" stroke-miterlimit="10"/></g><g transform="translate(-22,-38) scale(1,1)"><path fill="none" stroke="#000000" d="M 528 409 L 921.3046875 409" stroke-miterlimit="10"/></g><g transform="translate(-22,-38) scale(1,1)"><g><path fill="none" stroke="none"/><text fill="#000000" stroke="none" font-family="Arial" font-size="13px" font-style="normal" font-weight="bold" text-decoration="none" x="696.46875" y="365.5">Container</text></g></g><g transform="translate(-22,-38) scale(1,1)"><g><path fill="none" stroke="none"/><text fill="#000000" stroke="none" font-family="Arial" font-size="13px" font-style="normal" font-weight="normal" text-decoration="none" x="689.9814453125" y="380.5">(from Gpds)</text></g></g><g transform="translate(-22,-38) scale(1,1)"><g><path fill="none" stroke="none"/><text fill="#000000" stroke="none" font-family="Arial" font-size="13px" font-style="normal" font-weight="normal" text-decoration="none" x="533" y="403.5">+comment: string</text></g></g><g transform="translate(-22,-38) scale(1,1)"><g><path fill="none" stroke="none"/><text fill="#000000" stroke="none" font-family="Arial" font-size="13px" font-style="normal" font-weight="normal" text-decoration="none" x="533" y="426.5">+addValue(key: string, T: value)</text></g></g><g transform="translate(-22,-38) scale(1,1)"><g><path fill="none" stroke="none"/><text fill="#000000" stroke="none" font-family="Arial" font-size="13px" font-style="normal" font-weight="normal" text-decoration="none" x="533" y="441.5">+getValue(key: string): T</text></g></g><g transform="translate(-22,-38) scale(1,1)"><g><path fill="none" stroke="none"/><text fill="#000000" stroke="none" font-family="Arial" font-size="13px" font-style="normal" font-weight="normal" text-decoration="none" x="533" y="456.5">+getValues(key: string): T[0..*]</text></g></g><g transform="translate(-22,-38) scale(1,1)"><g><path fill="none" stroke="none"/><text fill="#000000" stroke="none" font-family="Arial" font-size="13px" font-style="normal" font-weight="normal" text-decoration="none" x="533" y="471.5">+addAttribute(key: string, value: string)</text></g></g><g transform="translate(-22,-38) scale(1,1)"><g><path fill="none" stroke="none"/><text fill="#000000" stroke="none" font-family="Arial" font-size="13px" font-style="normal" font-weight="normal" text-decoration="none" x="533" y="486.5">+getAttribute(key: string): string</text></g></g><g transform="translate(-22,-38) scale(1,1)"><g><path fill="none" stroke="none"/><text fill="#000000" stroke="none" font-family="Arial" font-size="13px" font-style="normal" font-weight="normal" text-decoration="none" x="533" y="501.5">+getValueAttribute(valueKey: string, attributeKey: String): T</text></g></g><g transform="translate(-22,-38) scale(1,1)"><g><path fill="none" stroke="none"/><text fill="#000000" stroke="none" font-family="Arial" font-size="13px" font-style="normal" font-weight="normal" text-decoration="none" x="533" y="516.5">+setComment(comment: string)</text></g></g><g transform="translate(-22,-38) scale(1,1)"><g><path fill="none" stroke="none"/><text fill="#000000" stroke="none" font-family="Arial" font-size="13px" font-style="normal" font-weight="normal" text-decoration="none" x="533" y="531.5">+isList(): bool</text></g></g><g transform="translate(-22,-38) scale(1,1)"><rect fill="#ffffff" stroke="none" x="848.3193359375" y="328" width="81.9853515625" height="22"/></g><g transform="translate(-22,-38) scale(1,1)"><path fill="none" stroke="#000000" d="M 848.3193359375 328 L 930.3046875 328 L 930.3046875 350 L 848.3193359375 350 L 848.3193359375 328 Z Z" stroke-miterlimit="10" stroke-dasharray="3"/></g><g transform="translate(-22,-38) scale(1,1)"><g><path fill="none" stroke="none"/><text fill="#000000" stroke="none" font-family="Arial" font-size="13px" font-style="normal" font-weight="normal" text-decoration="none" x="853.3193359375" y="345.5">T: valueType</text></g></g><g transform="translate(-22,-38) scale(1,1)"><rect fill="#C0C0C0" stroke="none" x="1031" y="329" width="264.19970703125" height="250" opacity="0.2"/></g><g transform="translate(-22,-38) scale(1,1)"><rect fill="#C0C0C0" stroke="none" x="1222.21435546875" y="311" width="81.9853515625" height="22" opacity="0.2"/></g><g transform="translate(-22,-38) scale(1,1)"><rect fill="#ffffff" stroke="none" x="1024" y="322" width="264.19970703125" height="250"/></g><g transform="translate(-22,-38) scale(1,1)"><path fill="none" stroke="#000000" d="M 1024 322 L 1288.19970703125 322 L 1288.19970703125 572 L 1024 572 L 1024 322 Z Z" stroke-miterlimit="10"/></g><g transform="translate(-22,-38) scale(1,1)"><path fill="none" stroke="#000000" d="M 1024 362 L 1288.19970703125 362" stroke-miterlimit="10"/></g><g transform="translate(-22,-38) scale(1,1)"><path fill="none" stroke="#000000" d="M 1024 400 L 1288.19970703125 400" stroke-miterlimit="10"/></g><g transform="translate(-22,-38) scale(1,1)"><g><path fill="none" stroke="none"/><text fill="#000000" stroke="none" font-family="Arial" font-size="13px" font-style="normal" font-weight="bold" text-decoration="none" x="1139.957763671875" y="341.5">Value</text></g></g><g transform="translate(-22,-38) scale(1,1)"><g><path fill="none" stroke="none"/><text fill="#000000" stroke="none" font-family="Arial" font-size="13px" font-style="normal" font-weight="normal" text-decoration="none" x="1121.428955078125" y="356.5">(from Gpds)</text></g></g><g transform="translate(-22,-38) scale(1,1)"><g><path fill="none" stroke="none"/><text fill="#000000" stroke="none" font-family="Arial" font-size="13px" font-style="normal" font-weight="normal" text-decoration="none" x="1029" y="379.5">+comment: string</text></g></g><g transform="translate(-22,-38) scale(1,1)"><g><path fill="none" stroke="none"/><text fill="#000000" stroke="none" font-family="Arial" font-size="13px" font-style="normal" font-weight="normal" text-decoration="none" x="1029" y="394.5">-value: variant</text></g></g><g transform="translate(-22,-38) scale(1,1)"><g><path fill="none" stroke="none"/><text fill="#000000" stroke="none" font-family="Arial" font-size="13px" font-style="normal" font-weight="normal" text-decoration="none" x="1029" y="417.5">+fromString(s: string)</text></g></g><g transform="translate(-22,-38) scale(1,1)"><g><path fill="none" stroke="none"/><text fill="#000000" stroke="none" font-family="Arial" font-size="13px" font-style="normal" font-weight="normal" text-decoration="none" x="1029" y="432.5">+set(value: T)</text></g></g><g transform="translate(-22,-38) scale(1,1)"><g><path fill="none" stroke="none"/><text fill="#000000" stroke="none" font-family="Arial" font-size="13px" font-style="normal" font-weight="normal" text-decoration="none" x="1029" y="447.5">+get(): T</text></g></g><g transform="translate(-22,-38) scale(1,1)"><g><path fill="none" stroke="none"/><text fill="#000000" stroke="none" font-family="Arial" font-size="13px" font-style="normal" font-weight="normal" text-decoration="none" x="1029" y="462.5">+addAttribute(name: string, value: string)</text></g></g><g transform="translate(-22,-38) scale(1,1)"><g><path fill="none" stroke="none"/><text fill="#000000" stroke="none" font-family="Arial" font-size="13px" font-style="normal" font-weight="normal" text-decoration="none" x="1029" y="477.5">+getAttribute(name: string): string</text></g></g><g transform="translate(-22,-38) scale(1,1)"><g><path fill="none" stroke="none"/><text fill="#000000" stroke="none" font-family="Arial" font-size="13px" font-style="normal" font-weight="normal" text-decoration="none" x="1029" y="492.5">+setComment(comment: string)</text></g></g><g transform="translate(-22,-38) scale(1,1)"><g><path fill="none" stroke="none"/><text fill="#000000" stroke="none" font-family="Arial" font-size="13px" font-style="normal" font-weight="normal" text-decoration="none" x="1029" y="507.5">+isType(): bool</text></g></g><g transform="translate(-22,-38) scale(1,1)"><g><path fill="none" stroke="none"/><text fill="#000000" stroke="none" font-family="Arial" font-size="13px" font-style="normal" font-weight="normal" text-decoration="none" x="1029" y="522.5">+isEmpty(): bool</text></g></g><g transform="translate(-22,-38) scale(1,1)"><g><path fill="none" stroke="none"/><text fill="#000000" stroke="none" font-family="Arial" font-size="13px" font-style="normal" font-weight="normal" text-decoration="none" x="1029" y="537.5">+typeString(): string</text></g></g><g transform="translate(-22,-38) scale(1,1)"><g><path fill="none" stroke="none"/><text fill="#000000" stroke="none" font-family="Arial" font-size="13px" font-style="normal" font-weight="normal" text-decoration="none" x="1029" y="552.5">-allocateContainerMemory(c: Container)</text></g></g><g transform="translate(-22,-38) scale(1,1)"><g><path fill="none" stroke="none"/><text fill="#000000" stroke="none" font-family="Arial" font-size="13px" font-style="normal" font-weight="normal" text-decoration="none" x="1029" y="567.5">-freeContainerMemory()</text></g></g><g transform="translate(-22,-38) scale(1,1)"><rect fill="#ffffff" stroke="none" x="1215.21435546875" y="304" width="81.9853515625" height="22"/></g><g transform="translate(-22,-38) scale(1,1)"><path fill="none" stroke="#000000" d="M 1215.21435546875 304 L 1297.19970703125 304 L 1297.19970703125 326 L 1215.21435546875 326 L 1215.21435546875 304 Z Z" stroke-miterlimit="10" stroke-dasharray="3"/></g><g transform="translate(-22,-38) scale(1,1)"><g><path fill="none" stroke="none"/><text fill="#000000" stroke="none" font-family="Arial" font-size="13px" font-style="normal" font-weight="normal" text-decoration="none" x="1220.21435546875" y="321.5">T: valueType</text></g></g><g transform="translate(-22,-38) scale(1,1)"><rect fill="#C0C0C0" stroke="none" x="87" y="383" width="153.9169921875" height="107" opacity="0.2"/></g><g transform="translate(-22,-38) scale(1,1)"><rect fill="#ffffff" stroke="none" x="80" y="376" width="153.9169921875" height="107"/></g><g transform="translate(-22,-38) scale(1,1)"><path fill="none" stroke="#000000" d="M 80 376 L 233.9169921875 376 L 233.9169921875 483 L 80 483 L 80 376 Z Z" stroke-miterlimit="10"/></g><g transform="translate(-22,-38) scale(1,1)"><path fill="none" stroke="#000000" d="M 80 416 L 233.9169921875 416" stroke-miterlimit="10"/></g><g transform="translate(-22,-38) scale(1,1)"><g><path fill="none" stroke="none"/><text fill="#000000" stroke="none" font-family="Arial" font-size="13px" font-style="normal" font-weight="bold" text-decoration="none" x="133.47216796875" y="395.5">Settings</text></g></g><g transform="translate(-22,-38) scale(1,1)"><g><path fill="none" stroke="none"/><text fill="#000000" stroke="none" font-family="Arial" font-size="13px" font-style="normal" font-weight="normal" text-decoration="none" x="102.790771484375" y="410.5">(from ArchiverXml)</text></g></g><g transform="translate(-22,-38) scale(1,1)"><g><path fill="none" stroke="none"/><text fill="#000000" stroke="none" font-family="Arial" font-size="13px" font-style="normal" font-weight="normal" text-decoration="none" x="85" y="433.5">+printComments: bool</text></g></g><g transform="translate(-22,-38) scale(1,1)"><g><path fill="none" stroke="none"/><text fill="#000000" stroke="none" font-family="Arial" font-size="13px" font-style="normal" font-weight="normal" text-decoration="none" x="85" y="448.5">+prefixAnnotations: bool</text></g></g><g transform="translate(-22,-38) scale(1,1)"><g><path fill="none" stroke="none"/><text fill="#000000" stroke="none" font-family="Arial" font-size="13px" font-style="normal" font-weight="normal" text-decoration="none" x="85" y="463.5">+annotateListCount: bool</text></g></g><g transform="translate(-22,-38) scale(1,1)"><g><path fill="none" stroke="none"/><text fill="#000000" stroke="none" font-family="Arial" font-size="13px" font-style="normal" font-weight="normal" text-decoration="none" x="85" y="478.5">+annotateTypes: bool</text></g></g><g transform="translate(-22,-38) scale(1,1)"><rect fill="#C0C0C0" stroke="none" x="807" y="649" width="203.4970703125" height="77" opacity="0.2"/></g><g transform="translate(-22,-38) scale(1,1)"><rect fill="#C0C0C0" stroke="none" x="937.51171875" y="631" width="81.9853515625" height="22" opacity="0.2"/></g><g transform="translate(-22,-38) scale(1,1)"><rect fill="#ffffff" stroke="none" x="800" y="642" width="203.4970703125" height="77"/></g><g transform="translate(-22,-38) scale(1,1)"><path fill="none" stroke="#000000" d="M 800 642 L 1003.4970703125 642 L 1003.4970703125 719 L 800 719 L 800 642 Z Z" stroke-miterlimit="10"/></g><g transform="translate(-22,-38) scale(1,1)"><path fill="none" stroke="#000000" d="M 800 682 L 1003.4970703125 682" stroke-miterlimit="10"/></g><g transform="translate(-22,-38) scale(1,1)"><g><path fill="none" stroke="none"/><text fill="#000000" stroke="none" font-family="Arial" font-size="13px" font-style="normal" font-weight="bold" text-decoration="none" x="874.291748046875" y="661.5">Attributes</text></g></g><g transform="translate(-22,-38) scale(1,1)"><g><path fill="none" stroke="none"/><text fill="#000000" stroke="none" font-family="Arial" font-size="13px" font-style="normal" font-weight="normal" text-decoration="none" x="867.07763671875" y="676.5">(from Gpds)</text></g></g><g transform="translate(-22,-38) scale(1,1)"><g><path fill="none" stroke="none"/><text fill="#000000" stroke="none" font-family="Arial" font-size="13px" font-style="normal" font-weight="normal" text-decoration="none" x="805" y="699.5">+add(key: string, value: T)</text></g></g><g transform="translate(-22,-38) scale(1,1)"><g><path fill="none" stroke="none"/><text fill="#000000" stroke="none" font-family="Arial" font-size="13px" font-style="normal" font-weight="normal" text-decoration="none" x="805" y="714.5">+get(key: string): T</text></g></g><g transform="translate(-22,-38) scale(1,1)"><rect fill="#ffffff" stroke="none" x="930.51171875" y="624" width="81.9853515625" height="22"/></g><g transform="translate(-22,-38) scale(1,1)"><path fill="none" stroke="#000000" d="M 930.51171875 624 L 1012.4970703125 624 L 1012.4970703125 646 L 930.51171875 646 L 930.51171875 624 Z Z" stroke-miterlimit="10" stroke-dasharray="3"/></g><g transform="translate(-22,-38) scale(1,1)"><g><path fill="none" stroke="none"/><text fill="#000000" stroke="none" font-family="Arial" font-size="13px" font-style="normal" font-weight="normal" text-decoration="none" x="935.51171875" y="641.5">T: valueType</text></g></g><g transform="translate(-22,-38) scale(1,1)"><rect fill="#C0C0C0" stroke="none" x="375" y="415" width="85.5908203125" height="32" opacity="0.2"/></g><g transform="translate(-22,-38) scale(1,1)"><rect fill="#ffffff" stroke="none" x="368" y="408" width="85.5908203125" height="32"/></g><g transform="translate(-22,-38) scale(1,1)"><path fill="none" stroke="#000000" d="M 368 408 L 453.5908203125 408 L 453.5908203125 440 L 368 440 L 368 408 Z Z" stroke-miterlimit="10"/></g><g transform="translate(-22,-38) scale(1,1)"><g><path fill="none" stroke="none"/><text fill="#000000" stroke="none" font-family="Arial" font-size="13px" font-style="normal" font-weight="bold" text-decoration="none" x="375.7626953125" y="427.5">ArchiverXml</text></g></g><g transform="translate(-22,-38) scale(1,1)"><path fill="none" stroke="#000000" d="M 408 408 L 408 211" stroke-miterlimit="10"/></g><g transform="translate(-22,-38) scale(1,1)"><path fill="#FFFFFF" stroke="none" d="M 416.419035512032 231.3253497152483 L 408 211 L 399.580964487968 231.3253497152483"/></g><g transform="translate(-22,-38) scale(1,1)"><path fill="none" stroke="#000000" d="M 416.419035512032 231.3253497152483 L 408 211 L 399.580964487968 231.3253497152483 L 416.419035512032 231.3253497152483" stroke-miterlimit="10"/></g><g transform="translate(-22,-38) scale(1,1)"><rect fill="#C0C0C0" stroke="none" x="87" y="111" width="380.7314453125" height="107" opacity="0.2"/></g><g transform="translate(-22,-38) scale(1,1)"><rect fill="#ffffff" stroke="none" x="80" y="104" width="380.7314453125" height="107"/></g><g transform="translate(-22,-38) scale(1,1)"><path fill="none" stroke="#000000" d="M 80 104 L 460.7314453125 104 L 460.7314453125 211 L 80 211 L 80 104 Z Z" stroke-miterlimit="10"/></g><g transform="translate(-22,-38) scale(1,1)"><path fill="none" stroke="#000000" d="M 80 144 L 460.7314453125 144" stroke-miterlimit="10"/></g><g transform="translate(-22,-38) scale(1,1)"><g><path fill="none" stroke="none"/><text fill="#000000" stroke="none" font-family="Arial" font-size="13px" font-style="italic" font-weight="bold" text-decoration="none" x="246.527099609375" y="123.5">Archiver</text></g></g><g transform="translate(-22,-38) scale(1,1)"><g><path fill="none" stroke="none"/><text fill="#000000" stroke="none" font-family="Arial" font-size="13px" font-style="normal" font-weight="normal" text-decoration="none" x="235.69482421875" y="138.5">(from Gpds)</text></g></g><g transform="translate(-22,-38) scale(1,1)"><g><path fill="none" stroke="none"/><text fill="#000000" stroke="none" font-family="Arial" font-size="13px" font-style="italic" font-weight="normal" text-decoration="none" x="85" y="161.5">+save(stream: ostream, c: Value, rootName: string): bool</text></g></g><g transform="translate(-22,-38) scale(1,1)"><g><path fill="none" stroke="none"/><text fill="#000000" stroke="none" font-family="Arial" font-size="13px" font-style="normal" font-weight="normal" text-decoration="none" x="85" y="176.5">+save(stream: ostream, object: Serialize, rootName: string): bool</text></g></g><g transform="translate(-22,-38) scale(1,1)"><g><path fill="none" stroke="none"/><text fill="#000000" stroke="none" font-family="Arial" font-size="13px" font-style="italic" font-weight="normal" text-decoration="none" x="85" y="191.5">+load(stream: istream, c: Value, rootName: string): bool</text></g></g><g transform="translate(-22,-38) scale(1,1)"><g><path fill="none" stroke="none"/><text fill="#000000" stroke="none" font-family="Arial" font-size="13px" font-style="normal" font-weight="normal" text-decoration="none" x="85" y="206.5">+load(stream: istream, object: Serialize, rootName: string): bool</text></g></g><g transform="translate(-22,-38) scale(1,1)"><path fill="none" stroke="#000000" d="M 704 202 L 704 328" stroke-miterlimit="10"/></g><g transform="translate(-22,-38) scale(1,1)"><path fill="none" stroke="#000000" d="M 699.790482243984 317.83732514237585 L 704 328 L 708.209517756016 317.83732514237585" stroke-miterlimit="10"/></g><g transform="translate(-22,-38) scale(1,1)"><path fill="none" stroke="#000000" d="M 461 156 L 616 156" stroke-miterlimit="10"/></g><g transform="translate(-22,-38) scale(1,1)"><path fill="none" stroke="#000000" d="M 605.8373251423759 160.209517756016 L 616 156 L 605.8373251423758 151.790482243984" stroke-miterlimit="10"/></g><g transform="translate(-22,-38) scale(1,1)"><rect fill="#C0C0C0" stroke="none" x="623" y="119" width="177.7080078125" height="90" opacity="0.2"/></g><g transform="translate(-22,-38) scale(1,1)"><rect fill="#ffffff" stroke="none" x="616" y="112" width="177.7080078125" height="90"/></g><g transform="translate(-22,-38) scale(1,1)"><path fill="none" stroke="#000000" d="M 616 112 L 793.7080078125 112 L 793.7080078125 202 L 616 202 L 616 112 Z Z" stroke-miterlimit="10"/></g><g transform="translate(-22,-38) scale(1,1)"><path fill="#ffffff" stroke="none" d="M 767.7080078125 129 C 767.7080078125 124.0294368 771.7374446125 120 776.7080078125 120 C 781.6785710125 120 785.7080078125 124.0294368 785.7080078125 129 C 785.7080078125 133.9705632 781.6785710125 138 776.7080078125 138 C 771.7374446125 138 767.7080078125 133.9705632 767.7080078125 129 Z"/></g><g transform="translate(-22,-38) scale(1,1)"><path fill="none" stroke="#000000" d="M 767.7080078125 129 C 767.7080078125 124.0294368 771.7374446125 120 776.7080078125 120 C 781.6785710125 120 785.7080078125 124.0294368 785.7080078125 129 C 785.7080078125 133.9705632 781.6785710125 138 776.7080078125 138 C 771.7374446125 138 767.7080078125 133.9705632 767.7080078125 129 Z" stroke-miterlimit="10"/></g><g transform="translate(-22,-38) scale(1,1)"><path fill="none" stroke="#000000" d="M 616 165 L 793.7080078125 165" stroke-miterlimit="10"/></g><g transform="translate(-22,-38) scale(1,1)"><g><path fill="none" stroke="none"/><text fill="#000000" stroke="none" font-family="Arial" font-size="13px" font-style="normal" font-weight="normal" text-decoration="none" x="660.693603515625" y="129.5">«interface»</text></g></g><g transform="translate(-22,-38) scale(1,1)"><g><path fill="none" stroke="none"/><text fill="#000000" stroke="none" font-family="Arial" font-size="13px" font-style="italic" font-weight="bold" text-decoration="none" x="667.9267578125" y="144.5">Serialize</text></g></g><g transform="translate(-22,-38) scale(1,1)"><g><path fill="none" stroke="none"/><text fill="#000000" stroke="none" font-family="Arial" font-size="13px" font-style="normal" font-weight="normal" text-decoration="none" x="658.18310546875" y="159.5">(from Gpds)</text></g></g><g transform="translate(-22,-38) scale(1,1)"><g><path fill="none" stroke="none"/><text fill="#000000" stroke="none" font-family="Arial" font-size="13px" font-style="italic" font-weight="normal" text-decoration="none" x="621" y="182.5">+toContainer(): Container</text></g></g><g transform="translate(-22,-38) scale(1,1)"><g><path fill="none" stroke="none"/><text fill="#000000" stroke="none" font-family="Arial" font-size="13px" font-style="italic" font-weight="normal" text-decoration="none" x="621" y="197.5">+fromContainer(c: Container)</text></g></g></g></svg>