<svg version="1.1" xmlns="http://www.w3.org/2000/svg" xmlns:xlink="http://www.w3.org/1999/xlink" width="836" height="292"><defs/><g><g transform="translate(-270,-422) scale(1,1)"><rect fill="#C0C0C0" stroke="none" x="287" y="439" width="201.60000000000002" height="15" opacity="0.2"/></g><g transform="translate(-270,-422) scale(1,1)"><rect fill="#C0C0C0" stroke="none" x="287" y="453" width="504" height="258" opacity="0.2"/></g><g transform="translate(-270,-422) scale(1,1)"><rect fill="#ffffff" stroke="none" x="280" y="447" width="504" height="257"/></g><g transform="translate(-270,-422) scale(1,1)"><path fill="none" stroke="#000000" d="M 280 447 L 784 447 L 784 704 L 280 704 L 280 447 Z Z" stroke-miterlimit="10"/></g><g transform="translate(-270,-422) scale(1,1)"><rect fill="#ffffff" stroke="none" x="280" y="432" width="201.60000000000002" height="15"/></g><g transform="translate(-270,-422) scale(1,1)"><path fill="none" stroke="#000000" d="M 280 432 L 481.6 432 L 481.6 447 L 280 447 L 280 432 Z Z" stroke-miterlimit="10"/></g><g transform="translate(-270,-422) scale(1,1)"><rect fill="#ffffff" stroke="none" x="280" y="446" width="504" height="258"/></g><g transform="translate(-270,-422) scale(1,1)"><path fill="none" stroke="#000000" d="M 280 446 L 784 446 L 784 704 L 280 704 L 280 446 Z Z" stroke-miterlimit="10"/></g><g transform="translate(-270,-422) scale(1,1)"><g><path fill="none" stroke="none"/><text fill="#000000" stroke="none" font-family="Arial" font-size="13px" font-style="normal" font-weight="bold" text-decoration="none" x="491.536865234375" y="466.5">MyApplication</text></g></g><g transform="translate(-270,-422) scale(1,1)"><rect fill="#C0C0C0" stroke="none" x="311" y="495" width="210.18896484375" height="192" opacity="0.2"/></g><g transform="translate(-270,-422) scale(1,1)"><rect fill="#ffffff" stroke="none" x="304" y="488" width="210.18896484375" height="192"/></g><g transform="translate(-270,-422) scale(1,1)"><path fill="none" stroke="#000000" d="M 304 488 L 514.18896484375 488 L 514.18896484375 680 L 304 680 L 304 488 Z Z" stroke-miterlimit="10"/></g><g transform="translate(-270,-422) scale(1,1)"><path fill="none" stroke="#000000" d="M 304 528 L 514.18896484375 528" stroke-miterlimit="10"/></g><g transform="translate(-270,-422) scale(1,1)"><g><path fill="none" stroke="none"/><text fill="#000000" stroke="none" font-family="Arial" font-size="13px" font-style="normal" font-weight="bold" text-decoration="none" x="370.43408203125" y="507.5">AddressBook</text></g></g><g transform="translate(-270,-422) scale(1,1)"><g><path fill="none" stroke="none"/><text fill="#000000" stroke="none" font-family="Arial" font-size="13px" font-style="normal" font-weight="normal" text-decoration="none" x="349.496337890625" y="522.5">(from MyApplication)</text></g></g><g transform="translate(-270,-422) scale(1,1)"><g><path fill="none" stroke="none"/><text fill="#000000" stroke="none" font-family="Arial" font-size="13px" font-style="normal" font-weight="normal" text-decoration="none" x="309" y="545.5">+toFile(fileName: string): bool</text></g></g><g transform="translate(-270,-422) scale(1,1)"><g><path fill="none" stroke="none"/><text fill="#000000" stroke="none" font-family="Arial" font-size="13px" font-style="normal" font-weight="normal" text-decoration="none" x="309" y="560.5">+fromFile(fileName: string): bool</text></g></g><g transform="translate(-270,-422) scale(1,1)"><rect fill="#C0C0C0" stroke="none" x="847" y="447" width="102.39999999999998" height="15" opacity="0.2"/></g><g transform="translate(-270,-422) scale(1,1)"><rect fill="#C0C0C0" stroke="none" x="847" y="461" width="256" height="250" opacity="0.2"/></g><g transform="translate(-270,-422) scale(1,1)"><rect fill="#ffffff" stroke="none" x="840" y="455" width="256" height="249"/></g><g transform="translate(-270,-422) scale(1,1)"><path fill="none" stroke="#000000" d="M 840 455 L 1096 455 L 1096 704 L 840 704 L 840 455 Z Z" stroke-miterlimit="10"/></g><g transform="translate(-270,-422) scale(1,1)"><rect fill="#ffffff" stroke="none" x="840" y="440" width="102.39999999999998" height="15"/></g><g transform="translate(-270,-422) scale(1,1)"><path fill="none" stroke="#000000" d="M 840 440 L 942.4 440 L 942.4 455 L 840 455 L 840 440 Z Z" stroke-miterlimit="10"/></g><g transform="translate(-270,-422) scale(1,1)"><rect fill="#ffffff" stroke="none" x="840" y="454" width="256" height="250"/></g><g transform="translate(-270,-422) scale(1,1)"><path fill="none" stroke="#000000" d="M 840 454 L 1096 454 L 1096 704 L 840 704 L 840 454 Z Z" stroke-miterlimit="10"/></g><g transform="translate(-270,-422) scale(1,1)"><g><path fill="none" stroke="none"/><text fill="#000000" stroke="none" font-family="Arial" font-size="13px" font-style="normal" font-weight="bold" text-decoration="none" x="952.464111328125" y="474.5">Gpds</text></g></g><g transform="translate(-270,-422) scale(1,1)"><rect fill="#C0C0C0" stroke="none" x="639" y="503" width="129" height="107" opacity="0.2"/></g><g transform="translate(-270,-422) scale(1,1)"><rect fill="#ffffff" stroke="none" x="632" y="496" width="129" height="107"/></g><g transform="translate(-270,-422) scale(1,1)"><path fill="none" stroke="#000000" d="M 632 496 L 761 496 L 761 603 L 632 603 L 632 496 Z Z" stroke-miterlimit="10"/></g><g transform="translate(-270,-422) scale(1,1)"><path fill="none" stroke="#000000" d="M 632 536 L 761 536" stroke-miterlimit="10"/></g><g transform="translate(-270,-422) scale(1,1)"><g><path fill="none" stroke="none"/><text fill="#000000" stroke="none" font-family="Arial" font-size="13px" font-style="normal" font-weight="bold" text-decoration="none" x="672.655029296875" y="515.5">Address</text></g></g><g transform="translate(-270,-422) scale(1,1)"><g><path fill="none" stroke="none"/><text fill="#000000" stroke="none" font-family="Arial" font-size="13px" font-style="normal" font-weight="normal" text-decoration="none" x="636.90185546875" y="530.5">(from MyApplication)</text></g></g><g transform="translate(-270,-422) scale(1,1)"><g><path fill="none" stroke="none"/><text fill="#000000" stroke="none" font-family="Arial" font-size="13px" font-style="normal" font-weight="normal" text-decoration="none" x="637" y="553.5">+address1: string</text></g></g><g transform="translate(-270,-422) scale(1,1)"><g><path fill="none" stroke="none"/><text fill="#000000" stroke="none" font-family="Arial" font-size="13px" font-style="normal" font-weight="normal" text-decoration="none" x="637" y="568.5">+address2: string</text></g></g><g transform="translate(-270,-422) scale(1,1)"><g><path fill="none" stroke="none"/><text fill="#000000" stroke="none" font-family="Arial" font-size="13px" font-style="normal" font-weight="normal" text-decoration="none" x="637" y="583.5">+city: string</text></g></g><g transform="translate(-270,-422) scale(1,1)"><g><path fill="none" stroke="none"/><text fill="#000000" stroke="none" font-family="Arial" font-size="13px" font-style="normal" font-weight="normal" text-decoration="none" x="637" y="598.5">+country: string</text></g></g><g transform="translate(-270,-422) scale(1,1)"><path fill="none" stroke="#000000" d="M 632 529 L 514 529" stroke-miterlimit="10"/></g><g transform="translate(-270,-422) scale(1,1)"><path fill="#000000" stroke="none" d="M 524.1626748576241 524.790482243984 L 514 529 L 524.1626748576241 533.209517756016 L 536 529"/></g><g transform="translate(-270,-422) scale(1,1)"><path fill="none" stroke="#000000" d="M 524.1626748576241 524.790482243984 L 514 529 L 524.1626748576241 533.209517756016 L 536 529 L 524.1626748576241 524.790482243984" stroke-miterlimit="10"/></g><g transform="translate(-270,-422) scale(1,1)"><path fill="none" stroke="#000000" d="M 621.8373251423759 533.209517756016 L 632 529 L 621.8373251423758 524.790482243984" stroke-miterlimit="10"/></g><g transform="translate(-270,-422) scale(1,1)"><g><path fill="none" stroke="none"/><text fill="#000000" stroke="none" font-family="Arial" font-size="13px" font-style="normal" font-weight="normal" text-decoration="none" x="558.5" y="549.5">+adresses</text></g></g><g transform="translate(-270,-422) scale(1,1)"><g><path fill="none" stroke="none"/><text fill="#000000" stroke="none" font-family="Arial" font-size="13px" font-style="normal" font-weight="normal" text-decoration="none" x="599.74365234375" y="522.5">0..*</text></g></g><g transform="translate(-270,-422) scale(1,1)"><path fill="none" stroke="#000000" d="M 761 544 L 888 544" stroke-miterlimit="10" stroke-dasharray="3"/></g><g transform="translate(-270,-422) scale(1,1)"><path fill="#FFFFFF" stroke="none" d="M 867.6746502847517 552.419035512032 L 888 544 L 867.6746502847517 535.580964487968"/></g><g transform="translate(-270,-422) scale(1,1)"><path fill="none" stroke="#000000" d="M 867.6746502847517 552.419035512032 L 888 544 L 867.6746502847517 535.580964487968 L 867.6746502847517 552.419035512032" stroke-miterlimit="10"/></g><g transform="translate(-270,-422) scale(1,1)"><path fill="none" stroke="#000000" d="M 936 648 L 514 648" stroke-miterlimit="10"/></g><g transform="translate(-270,-422) scale(1,1)"><path fill="#FFFFFF" stroke="none" d="M 524.1626748576241 643.790482243984 L 514 648 L 524.1626748576241 652.209517756016 L 536 648"/></g><g transform="translate(-270,-422) scale(1,1)"><path fill="none" stroke="#000000" d="M 524.1626748576241 643.790482243984 L 514 648 L 524.1626748576241 652.209517756016 L 536 648 L 524.1626748576241 643.790482243984" stroke-miterlimit="10"/></g><g transform="translate(-270,-422) scale(1,1)"><path fill="none" stroke="#000000" d="M 925.8373251423759 652.209517756016 L 936 648 L 925.8373251423758 643.790482243984" stroke-miterlimit="10"/></g><g transform="translate(-270,-422) scale(1,1)"><g><path fill="none" stroke="none"/><text fill="#000000" stroke="none" font-family="Arial" font-size="13px" font-style="normal" font-weight="normal" text-decoration="none" x="873.13134765625" y="668.5">-archiver</text></g></g><g transform="translate(-270,-422) scale(1,1)"><rect fill="#C0C0C0" stroke="none" x="895" y="503" width="177.7080078125" height="104" opacity="0.2"/></g><g transform="translate(-270,-422) scale(1,1)"><rect fill="#ffffff" stroke="none" x="888" y="496" width="177.7080078125" height="104"/></g><g transform="translate(-270,-422) scale(1,1)"><path fill="none" stroke="#000000" d="M 888 496 L 1065.7080078125 496 L 1065.7080078125 600 L 888 600 L 888 496 Z Z" stroke-miterlimit="10"/></g><g transform="translate(-270,-422) scale(1,1)"><path fill="#ffffff" stroke="none" d="M 1039.7080078125 513 C 1039.7080078125 508.0294368 1043.7374446125 504 1048.7080078125 504 C 1053.6785710125 504 1057.7080078125 508.0294368 1057.7080078125 513 C 1057.7080078125 517.9705632 1053.6785710125 522 1048.7080078125 522 C 1043.7374446125 522 1039.7080078125 517.9705632 1039.7080078125 513 Z"/></g><g transform="translate(-270,-422) scale(1,1)"><path fill="none" stroke="#000000" d="M 1039.7080078125 513 C 1039.7080078125 508.0294368 1043.7374446125 504 1048.7080078125 504 C 1053.6785710125 504 1057.7080078125 508.0294368 1057.7080078125 513 C 1057.7080078125 517.9705632 1053.6785710125 522 1048.7080078125 522 C 1043.7374446125 522 1039.7080078125 517.9705632 1039.7080078125 513 Z" stroke-miterlimit="10"/></g><g transform="translate(-270,-422) scale(1,1)"><path fill="none" stroke="#000000" d="M 888 549 L 1065.7080078125 549" stroke-miterlimit="10"/></g><g transform="translate(-270,-422) scale(1,1)"><g><path fill="none" stroke="none"/><text fill="#000000" stroke="none" font-family="Arial" font-size="13px" font-style="normal" font-weight="normal" text-decoration="none" x="932.693603515625" y="513.5">«interface»</text></g></g><g transform="translate(-270,-422) scale(1,1)"><g><path fill="none" stroke="none"/><text fill="#000000" stroke="none" font-family="Arial" font-size="13px" font-style="italic" font-weight="bold" text-decoration="none" x="939.9267578125" y="528.5">Serialize</text></g></g><g transform="translate(-270,-422) scale(1,1)"><g><path fill="none" stroke="none"/><text fill="#000000" stroke="none" font-family="Arial" font-size="13px" font-style="normal" font-weight="normal" text-decoration="none" x="930.18310546875" y="543.5">(from Gpds)</text></g></g><g transform="translate(-270,-422) scale(1,1)"><g><path fill="none" stroke="none"/><text fill="#000000" stroke="none" font-family="Arial" font-size="13px" font-style="italic" font-weight="normal" text-decoration="none" x="893" y="566.5">+toContainer(): Container</text></g></g><g transform="translate(-270,-422) scale(1,1)"><g><path fill="none" stroke="none"/><text fill="#000000" stroke="none" font-family="Arial" font-size="13px" font-style="italic" font-weight="normal" text-decoration="none" x="893" y="581.5">+fromContainer(c: Container)</text></g></g><g transform="translate(-270,-422) scale(1,1)"><rect fill="#C0C0C0" stroke="none" x="943" y="623" width="128.1962890625" height="56" opacity="0.2"/></g><g transform="translate(-270,-422) scale(1,1)"><rect fill="#ffffff" stroke="none" x="936" y="616" width="128.1962890625" height="56"/></g><g transform="translate(-270,-422) scale(1,1)"><path fill="none" stroke="#000000" d="M 936 616 L 1064.1962890625 616 L 1064.1962890625 672 L 936 672 L 936 616 Z Z" stroke-miterlimit="10"/></g><g transform="translate(-270,-422) scale(1,1)"><g><path fill="none" stroke="none"/><text fill="#000000" stroke="none" font-family="Arial" font-size="13px" font-style="normal" font-weight="bold" text-decoration="none" x="965.0654296875" y="635.5">ArchiverXml</text></g></g><g transform="translate(-270,-422) scale(1,1)"><g><path fill="none" stroke="none"/><text fill="#000000" stroke="none" font-family="Arial" font-size="13px" font-style="normal" font-weight="normal" text-decoration="none" x="965.42724609375" y="650.5">(from Gpds)</text></g></g></g></svg>