<svg version="1.1" xmlns="http://www.w3.org/2000/svg" xmlns:xlink="http://www.w3.org/1999/xlink" width="852" height="292"><defs/><g><g transform="translate(-270,-422) scale(1,1)"><rect fill="#C0C0C0" stroke="none" x="287" y="439" width="201.60000000000002" height="15" opacity="0.2"/></g><g transform="translate(-270,-422) scale(1,1)"><rect fill="#C0C0C0" stroke="none" x="287" y="453" width="504" height="258" opacity="0.2"/></g><g transform="translate(-270,-422) scale(1,1)"><rect fill="#ffffff" stroke="none" x="280" y="447" width="504" height="257"/></g><g transform="translate(-270,-422) scale(1,1)"><path fill="none" stroke="#000000" d="M 280 447 L 784 447 L 784 704 L 280 704 L 280 447 Z Z" stroke-miterlimit="10"/></g><g transform="translate(-270,-422) scale(1,1)"><rect fill="#ffffff" stroke="none" x="280" y="432" width="201.60000000000002" height="15"/></g><g transform="translate(-270,-422) scale(1,1)"><path fill="none" stroke="#000000" d="M 280 432 L 481.6 432 L 481.6 447 L 280 447 L 280 432 Z Z" stroke-miterlimit="10"/></g><g transform="translate(-270,-422) scale(1,1)"><rect fill="#ffffff" stroke="none" x="280" y="446" width="504" height="258"/></g><g transform="translate(-270,-422) scale(1,1)"><path fill="none" stroke="#000000" d="M 280 446 L 784 446 L 784 704 L 280 704 L 280 446 Z Z" stroke-miterlimit="10"/></g><g transform="translate(-270,-422) scale(1,1)"><g><path fill="none" stroke="none"/><text fill="#000000" stroke="none" font-family="Arial" font-size="13px" font-style="normal" font-weight="bold" text-decoration="none" x="491.536865234375" y="466.5">MyApplication</text></g></g><g transform="translate(-270,-422) scale(1,1)"><rect fill="#C0C0C0" stroke="none" x="311" y="495" width="210.18896484375" height="192" opacity="0.2"/></g><g transform="translate(-270,-422) scale(1,1)"><rect fill="#ffffff" stroke="none" x="304" y="488" width="210.18896484375" height="192"/></g><g transform="translate(-270,-422) scale(1,1)"><path fill="none" stroke="#000000" d="M 304 488 L 514.18896484375 488 L 514.18896484375 680 L 304 680 L 304 488 Z Z" stroke-miterlimit="10"/></g><g transform="translate(-270,-422) scale(1,1)"><path fill="none" stroke="#000000" d="M 304 528 L 514.18896484375 528" stroke-miterlimit="10"/></g><g transform="translate(-270,-422) scale(1,1)"><path fill="none" stroke="#000000" d="M 304 538 L 514.18896484375 538" stroke-miterlimit="10"/></g><g transform="translate(-270,-422) scale(1,1)"><g><path fill="none" stroke="none"/><text fill="#000000" stroke="none" font-family="Arial" font-size="13px" font-style="normal" font-weight="bold" text-decoration="none" x="370.43408203125" y="507.5">AddressBook</text></g></g><g transform="translate(-270,-422) scale(1,1)"><g><path fill="none" stroke="none"/><text fill="#000000" stroke="none" font-family="Arial" font-size="13px" font-style="normal" font-weight="normal" text-decoration="none" x="349.496337890625" y="522.5">(from MyApplication)</text></g></g><g transform="translate(-270,-422) scale(1,1)"><g><path fill="none" stroke="none"/><text fill="#000000" stroke="none" font-family="Arial" font-size="13px" font-style="normal" font-weight="normal" text-decoration="none" x="309" y="555.5">+toFile(fileName: string): bool</text></g></g><g transform="translate(-270,-422) scale(1,1)"><g><path fill="none" stroke="none"/><text fill="#000000" stroke="none" font-family="Arial" font-size="13px" font-style="normal" font-weight="normal" text-decoration="none" x="309" y="570.5">+fromFile(fileName: string): bool</text></g></g><g transform="translate(-270,-422) scale(1,1)"><rect fill="#C0C0C0" stroke="none" x="863" y="447" width="102.39999999999998" height="15" opacity="0.2"/></g><g transform="translate(-270,-422) scale(1,1)"><rect fill="#C0C0C0" stroke="none" x="863" y="461" width="256" height="250" opacity="0.2"/></g><g transform="translate(-270,-422) scale(1,1)"><rect fill="#ffffff" stroke="none" x="856" y="455" width="256" height="249"/></g><g transform="translate(-270,-422) scale(1,1)"><path fill="none" stroke="#000000" d="M 856 455 L 1112 455 L 1112 704 L 856 704 L 856 455 Z Z" stroke-miterlimit="10"/></g><g transform="translate(-270,-422) scale(1,1)"><rect fill="#ffffff" stroke="none" x="856" y="440" width="102.39999999999998" height="15"/></g><g transform="translate(-270,-422) scale(1,1)"><path fill="none" stroke="#000000" d="M 856 440 L 958.4 440 L 958.4 455 L 856 455 L 856 440 Z Z" stroke-miterlimit="10"/></g><g transform="translate(-270,-422) scale(1,1)"><rect fill="#ffffff" stroke="none" x="856" y="454" width="256" height="250"/></g><g transform="translate(-270,-422) scale(1,1)"><path fill="none" stroke="#000000" d="M 856 454 L 1112 454 L 1112 704 L 856 704 L 856 454 Z Z" stroke-miterlimit="10"/></g><g transform="translate(-270,-422) scale(1,1)"><g><path fill="none" stroke="none"/><text fill="#000000" stroke="none" font-family="Arial" font-size="13px" font-style="normal" font-weight="bold" text-decoration="none" x="968.464111328125" y="474.5">Gpds</text></g></g><g transform="translate(-270,-422) scale(1,1)"><rect fill="#C0C0C0" stroke="none" x="639" y="503" width="128.1962890625" height="107" opacity="0.2"/></g><g transform="translate(-270,-422) scale(1,1)"><rect fill="#ffffff" stroke="none" x="632" y="496" width="128.1962890625" height="107"/></g><g transform="translate(-270,-422) scale(1,1)"><path fill="none" stroke="#000000" d="M 632 496 L 760.1962890625 496 L 760.1962890625 603 L 632 603 L 632 496 Z Z" stroke-miterlimit="10"/></g><g transform="translate(-270,-422) scale(1,1)"><path fill="none" stroke="#000000" d="M 632 536 L 760.1962890625 536" stroke-miterlimit="10"/></g><g transform="translate(-270,-422) scale(1,1)"><g><path fill="none" stroke="none"/><text fill="#000000" stroke="none" font-family="Arial" font-size="13px" font-style="normal" font-weight="bold" text-decoration="none" x="672.253173828125" y="515.5">Address</text></g></g><g transform="translate(-270,-422) scale(1,1)"><g><path fill="none" stroke="none"/><text fill="#000000" stroke="none" font-family="Arial" font-size="13px" font-style="normal" font-weight="normal" text-decoration="none" x="636.5" y="530.5">(from MyApplication)</text></g></g><g transform="translate(-270,-422) scale(1,1)"><g><path fill="none" stroke="none"/><text fill="#000000" stroke="none" font-family="Arial" font-size="13px" font-style="normal" font-weight="normal" text-decoration="none" x="637" y="553.5">+address1: string</text></g></g><g transform="translate(-270,-422) scale(1,1)"><g><path fill="none" stroke="none"/><text fill="#000000" stroke="none" font-family="Arial" font-size="13px" font-style="normal" font-weight="normal" text-decoration="none" x="637" y="568.5">+address2: string</text></g></g><g transform="translate(-270,-422) scale(1,1)"><g><path fill="none" stroke="none"/><text fill="#000000" stroke="none" font-family="Arial" font-size="13px" font-style="normal" font-weight="normal" text-decoration="none" x="637" y="583.5">+city: string</text></g></g><g transform="translate(-270,-422) scale(1,1)"><g><path fill="none" stroke="none"/><text fill="#000000" stroke="none" font-family="Arial" font-size="13px" font-style="normal" font-weight="normal" text-decoration="none" x="637" y="598.5">+country: string</text></g></g><g transform="translate(-270,-422) scale(1,1)"><path fill="none" stroke="#000000" d="M 632 529 L 514 529" stroke-miterlimit="10"/></g><g transform="translate(-270,-422) scale(1,1)"><path fill="#000000" stroke="none" d="M 524.1626748576241 524.790482243984 L 514 529 L 524.1626748576241 533.209517756016 L 536 529"/></g><g transform="translate(-270,-422) scale(1,1)"><path fill="none" stroke="#000000" d="M 524.1626748576241 524.790482243984 L 514 529 L 524.1626748576241 533.209517756016 L 536 529 L 524.1626748576241 524.790482243984" stroke-miterlimit="10"/></g><g transform="translate(-270,-422) scale(1,1)"><path fill="none" stroke="#000000" d="M 621.8373251423759 533.209517756016 L 632 529 L 621.8373251423758 524.790482243984" stroke-miterlimit="10"/></g><g transform="translate(-270,-422) scale(1,1)"><g><path fill="none" stroke="none"/><text fill="#000000" stroke="none" font-family="Arial" font-size="13px" font-style="normal" font-weight="normal" text-decoration="none" x="558.5" y="549.5">+adresses</text></g></g><g transform="translate(-270,-422) scale(1,1)"><g><path fill="none" stroke="none"/><text fill="#000000" stroke="none" font-family="Arial" font-size="13px" font-style="normal" font-weight="normal" text-decoration="none" x="600.5" y="522.5">0..*</text></g></g><g transform="translate(-270,-422) scale(1,1)"><path fill="none" stroke="#000000" d="M 760 544 L 904 544" stroke-miterlimit="10" stroke-dasharray="3"/></g><g transform="translate(-270,-422) scale(1,1)"><path fill="#FFFFFF" stroke="none" d="M 883.6746502847517 552.419035512032 L 904 544 L 883.6746502847517 535.580964487968"/></g><g transform="translate(-270,-422) scale(1,1)"><path fill="none" stroke="#000000" d="M 883.6746502847517 552.419035512032 L 904 544 L 883.6746502847517 535.580964487968 L 883.6746502847517 552.419035512032" stroke-miterlimit="10"/></g><g transform="translate(-270,-422) scale(1,1)"><rect fill="#C0C0C0" stroke="none" x="639" y="631" width="128.1962890625" height="56" opacity="0.2"/></g><g transform="translate(-270,-422) scale(1,1)"><rect fill="#ffffff" stroke="none" x="632" y="624" width="128.1962890625" height="56"/></g><g transform="translate(-270,-422) scale(1,1)"><path fill="none" stroke="#000000" d="M 632 624 L 760.1962890625 624 L 760.1962890625 680 L 632 680 L 632 624 Z Z" stroke-miterlimit="10"/></g><g transform="translate(-270,-422) scale(1,1)"><g><path fill="none" stroke="none"/><text fill="#000000" stroke="none" font-family="Arial" font-size="13px" font-style="normal" font-weight="bold" text-decoration="none" x="661.0654296875" y="643.5">ArchiverXml</text></g></g><g transform="translate(-270,-422) scale(1,1)"><g><path fill="none" stroke="none"/><text fill="#000000" stroke="none" font-family="Arial" font-size="13px" font-style="normal" font-weight="normal" text-decoration="none" x="661.42724609375" y="658.5">(from Gpds)</text></g></g><g transform="translate(-270,-422) scale(1,1)"><path fill="none" stroke="#000000" d="M 632 648 L 514 648" stroke-miterlimit="10"/></g><g transform="translate(-270,-422) scale(1,1)"><path fill="#000000" stroke="none" d="M 524.1626748576241 643.790482243984 L 514 648 L 524.1626748576241 652.209517756016 L 536 648"/></g><g transform="translate(-270,-422) scale(1,1)"><path fill="none" stroke="#000000" d="M 524.1626748576241 643.790482243984 L 514 648 L 524.1626748576241 652.209517756016 L 536 648 L 524.1626748576241 643.790482243984" stroke-miterlimit="10"/></g><g transform="translate(-270,-422) scale(1,1)"><path fill="none" stroke="#000000" d="M 621.8373251423759 652.209517756016 L 632 648 L 621.8373251423758 643.790482243984" stroke-miterlimit="10"/></g><g transform="translate(-270,-422) scale(1,1)"><g><path fill="none" stroke="none"/><text fill="#000000" stroke="none" font-family="Arial" font-size="13px" font-style="normal" font-weight="normal" text-decoration="none" x="569.13134765625" y="668.5">-archiver</text></g></g><g transform="translate(-270,-422) scale(1,1)"><rect fill="#C0C0C0" stroke="none" x="911" y="503" width="177.7080078125" height="104" opacity="0.2"/></g><g transform="translate(-270,-422) scale(1,1)"><rect fill="#ffffff" stroke="none" x="904" y="496" width="177.7080078125" height="104"/></g><g transform="translate(-270,-422) scale(1,1)"><path fill="none" stroke="#000000" d="M 904 496 L 1081.7080078125 496 L 1081.7080078125 600 L 904 600 L 904 496 Z Z" stroke-miterlimit="10"/></g><g transform="translate(-270,-422) scale(1,1)"><path fill="#ffffff" stroke="none" d="M 1055.7080078125 513 C 1055.7080078125 508.0294368 1059.7374446125 504 1064.7080078125 504 C 1069.6785710125 504 1073.7080078125 508.0294368 1073.7080078125 513 C 1073.7080078125 517.9705632 1069.6785710125 522 1064.7080078125 522 C 1059.7374446125 522 1055.7080078125 517.9705632 1055.7080078125 513 Z"/></g><g transform="translate(-270,-422) scale(1,1)"><path fill="none" stroke="#000000" d="M 1055.7080078125 513 C 1055.7080078125 508.0294368 1059.7374446125 504 1064.7080078125 504 C 1069.6785710125 504 1073.7080078125 508.0294368 1073.7080078125 513 C 1073.7080078125 517.9705632 1069.6785710125 522 1064.7080078125 522 C 1059.7374446125 522 1055.7080078125 517.9705632 1055.7080078125 513 Z" stroke-miterlimit="10"/></g><g transform="translate(-270,-422) scale(1,1)"><path fill="none" stroke="#000000" d="M 904 549 L 1081.7080078125 549" stroke-miterlimit="10"/></g><g transform="translate(-270,-422) scale(1,1)"><g><path fill="none" stroke="none"/><text fill="#000000" stroke="none" font-family="Arial" font-size="13px" font-style="normal" font-weight="normal" text-decoration="none" x="948.693603515625" y="513.5">«interface»</text></g></g><g transform="translate(-270,-422) scale(1,1)"><g><path fill="none" stroke="none"/><text fill="#000000" stroke="none" font-family="Arial" font-size="13px" font-style="italic" font-weight="bold" text-decoration="none" x="955.9267578125" y="528.5">Serialize</text></g></g><g transform="translate(-270,-422) scale(1,1)"><g><path fill="none" stroke="none"/><text fill="#000000" stroke="none" font-family="Arial" font-size="13px" font-style="normal" font-weight="normal" text-decoration="none" x="946.18310546875" y="543.5">(from Gpds)</text></g></g><g transform="translate(-270,-422) scale(1,1)"><g><path fill="none" stroke="none"/><text fill="#000000" stroke="none" font-family="Arial" font-size="13px" font-style="italic" font-weight="normal" text-decoration="none" x="909" y="566.5">+toContainer(): Container</text></g></g><g transform="translate(-270,-422) scale(1,1)"><g><path fill="none" stroke="none"/><text fill="#000000" stroke="none" font-family="Arial" font-size="13px" font-style="italic" font-weight="normal" text-decoration="none" x="909" y="581.5">+fromContainer(c: Container)</text></g></g></g></svg>