<svg version="1.1" xmlns="http://www.w3.org/2000/svg" xmlns:xlink="http://www.w3.org/1999/xlink" width="900" height="300"><defs/><g><g transform="translate(-270,-422) scale(1,1)"><rect fill="#C0C0C0" stroke="none" x="287" y="439" width="201.60000000000002" height="15" opacity="0.2"/></g><g transform="translate(-270,-422) scale(1,1)"><rect fill="#C0C0C0" stroke="none" x="287" y="453" width="504" height="266" opacity="0.2"/></g><g transform="translate(-270,-422) scale(1,1)"><rect fill="#ffffff" stroke="none" x="280" y="447" width="504" height="265"/></g><g transform="translate(-270,-422) scale(1,1)"><path fill="none" stroke="#000000" d="M 280 447 L 784 447 L 784 712 L 280 712 L 280 447 Z Z" stroke-miterlimit="10"/></g><g transform="translate(-270,-422) scale(1,1)"><rect fill="#ffffff" stroke="none" x="280" y="432" width="201.60000000000002" height="15"/></g><g transform="translate(-270,-422) scale(1,1)"><path fill="none" stroke="#000000" d="M 280 432 L 481.6 432 L 481.6 447 L 280 447 L 280 432 Z Z" stroke-miterlimit="10"/></g><g transform="translate(-270,-422) scale(1,1)"><rect fill="#ffffff" stroke="none" x="280" y="446" width="504" height="266"/></g><g transform="translate(-270,-422) scale(1,1)"><path fill="none" stroke="#000000" d="M 280 446 L 784 446 L 784 712 L 280 712 L 280 446 Z Z" stroke-miterlimit="10"/></g><g transform="translate(-270,-422) scale(1,1)"><g><path fill="none" stroke="none"/><text fill="#000000" stroke="none" font-family="Arial" font-size="13px" font-style="normal" font-weight="bold" text-decoration="none" x="488.642333984375" y="466.5">my_application</text></g></g><g transform="translate(-270,-422) scale(1,1)"><rect fill="#C0C0C0" stroke="none" x="303" y="495" width="210.18896484375" height="200" opacity="0.2"/></g><g transform="translate(-270,-422) scale(1,1)"><rect fill="#ffffff" stroke="none" x="296" y="488" width="210.18896484375" height="200"/></g><g transform="translate(-270,-422) scale(1,1)"><path fill="none" stroke="#000000" d="M 296 488 L 506.18896484375 488 L 506.18896484375 688 L 296 688 L 296 488 Z Z" stroke-miterlimit="10"/></g><g transform="translate(-270,-422) scale(1,1)"><path fill="none" stroke="#000000" d="M 296 528 L 506.18896484375 528" stroke-miterlimit="10"/></g><g transform="translate(-270,-422) scale(1,1)"><g><path fill="none" stroke="none"/><text fill="#000000" stroke="none" font-family="Arial" font-size="13px" font-style="normal" font-weight="bold" text-decoration="none" x="360.260009765625" y="507.5">address_book</text></g></g><g transform="translate(-270,-422) scale(1,1)"><g><path fill="none" stroke="none"/><text fill="#000000" stroke="none" font-family="Arial" font-size="13px" font-style="normal" font-weight="normal" text-decoration="none" x="338.601806640625" y="522.5">(from my_application)</text></g></g><g transform="translate(-270,-422) scale(1,1)"><g><path fill="none" stroke="none"/><text fill="#000000" stroke="none" font-family="Arial" font-size="13px" font-style="normal" font-weight="normal" text-decoration="none" x="301" y="545.5">+to_file(fileName: string): bool</text></g></g><g transform="translate(-270,-422) scale(1,1)"><g><path fill="none" stroke="none"/><text fill="#000000" stroke="none" font-family="Arial" font-size="13px" font-style="normal" font-weight="normal" text-decoration="none" x="301" y="560.5">+from_file(fileName: string): bool</text></g></g><g transform="translate(-270,-422) scale(1,1)"><rect fill="#C0C0C0" stroke="none" x="847" y="447" width="128" height="15" opacity="0.2"/></g><g transform="translate(-270,-422) scale(1,1)"><rect fill="#C0C0C0" stroke="none" x="847" y="461" width="320" height="258" opacity="0.2"/></g><g transform="translate(-270,-422) scale(1,1)"><rect fill="#ffffff" stroke="none" x="840" y="455" width="320" height="257"/></g><g transform="translate(-270,-422) scale(1,1)"><path fill="none" stroke="#000000" d="M 840 455 L 1160 455 L 1160 712 L 840 712 L 840 455 Z Z" stroke-miterlimit="10"/></g><g transform="translate(-270,-422) scale(1,1)"><rect fill="#ffffff" stroke="none" x="840" y="440" width="128" height="15"/></g><g transform="translate(-270,-422) scale(1,1)"><path fill="none" stroke="#000000" d="M 840 440 L 968 440 L 968 455 L 840 455 L 840 440 Z Z" stroke-miterlimit="10"/></g><g transform="translate(-270,-422) scale(1,1)"><rect fill="#ffffff" stroke="none" x="840" y="454" width="320" height="258"/></g><g transform="translate(-270,-422) scale(1,1)"><path fill="none" stroke="#000000" d="M 840 454 L 1160 454 L 1160 712 L 840 712 L 840 454 Z Z" stroke-miterlimit="10"/></g><g transform="translate(-270,-422) scale(1,1)"><g><path fill="none" stroke="none"/><text fill="#000000" stroke="none" font-family="Arial" font-size="13px" font-style="normal" font-weight="bold" text-decoration="none" x="985.905029296875" y="474.5">gpds</text></g></g><g transform="translate(-270,-422) scale(1,1)"><rect fill="#C0C0C0" stroke="none" x="639" y="503" width="133.9853515625" height="107" opacity="0.2"/></g><g transform="translate(-270,-422) scale(1,1)"><rect fill="#ffffff" stroke="none" x="632" y="496" width="133.9853515625" height="107"/></g><g transform="translate(-270,-422) scale(1,1)"><path fill="none" stroke="#000000" d="M 632 496 L 765.9853515625 496 L 765.9853515625 603 L 632 603 L 632 496 Z Z" stroke-miterlimit="10"/></g><g transform="translate(-270,-422) scale(1,1)"><path fill="none" stroke="#000000" d="M 632 536 L 765.9853515625 536" stroke-miterlimit="10"/></g><g transform="translate(-270,-422) scale(1,1)"><g><path fill="none" stroke="none"/><text fill="#000000" stroke="none" font-family="Arial" font-size="13px" font-style="normal" font-weight="bold" text-decoration="none" x="675.8681640625" y="515.5">address</text></g></g><g transform="translate(-270,-422) scale(1,1)"><g><path fill="none" stroke="none"/><text fill="#000000" stroke="none" font-family="Arial" font-size="13px" font-style="normal" font-weight="normal" text-decoration="none" x="636.5" y="530.5">(from my_application)</text></g></g><g transform="translate(-270,-422) scale(1,1)"><g><path fill="none" stroke="none"/><text fill="#000000" stroke="none" font-family="Arial" font-size="13px" font-style="normal" font-weight="normal" text-decoration="none" x="637" y="553.5">+address1: string</text></g></g><g transform="translate(-270,-422) scale(1,1)"><g><path fill="none" stroke="none"/><text fill="#000000" stroke="none" font-family="Arial" font-size="13px" font-style="normal" font-weight="normal" text-decoration="none" x="637" y="568.5">+address2: string</text></g></g><g transform="translate(-270,-422) scale(1,1)"><g><path fill="none" stroke="none"/><text fill="#000000" stroke="none" font-family="Arial" font-size="13px" font-style="normal" font-weight="normal" text-decoration="none" x="637" y="583.5">+city: string</text></g></g><g transform="translate(-270,-422) scale(1,1)"><g><path fill="none" stroke="none"/><text fill="#000000" stroke="none" font-family="Arial" font-size="13px" font-style="normal" font-weight="normal" text-decoration="none" x="637" y="598.5">+country: string</text></g></g><g transform="translate(-270,-422) scale(1,1)"><path fill="none" stroke="#000000" d="M 632 529 L 506 529" stroke-miterlimit="10"/></g><g transform="translate(-270,-422) scale(1,1)"><path fill="#000000" stroke="none" d="M 516.1626748576241 524.790482243984 L 506 529 L 516.1626748576241 533.209517756016 L 528 529"/></g><g transform="translate(-270,-422) scale(1,1)"><path fill="none" stroke="#000000" d="M 516.1626748576241 524.790482243984 L 506 529 L 516.1626748576241 533.209517756016 L 528 529 L 516.1626748576241 524.790482243984" stroke-miterlimit="10"/></g><g transform="translate(-270,-422) scale(1,1)"><path fill="none" stroke="#000000" d="M 621.8373251423759 533.209517756016 L 632 529 L 621.8373251423758 524.790482243984" stroke-miterlimit="10"/></g><g transform="translate(-270,-422) scale(1,1)"><g><path fill="none" stroke="none"/><text fill="#000000" stroke="none" font-family="Arial" font-size="13px" font-style="normal" font-weight="normal" text-decoration="none" x="558.5" y="549.5">+adresses</text></g></g><g transform="translate(-270,-422) scale(1,1)"><g><path fill="none" stroke="none"/><text fill="#000000" stroke="none" font-family="Arial" font-size="13px" font-style="normal" font-weight="normal" text-decoration="none" x="599.74365234375" y="522.5">0..*</text></g></g><g transform="translate(-270,-422) scale(1,1)"><path fill="none" stroke="#000000" d="M 766 544 L 888 544" stroke-miterlimit="10" stroke-dasharray="3"/></g><g transform="translate(-270,-422) scale(1,1)"><path fill="#FFFFFF" stroke="none" d="M 867.6746502847517 552.419035512032 L 888 544 L 867.6746502847517 535.580964487968"/></g><g transform="translate(-270,-422) scale(1,1)"><path fill="none" stroke="#000000" d="M 867.6746502847517 552.419035512032 L 888 544 L 867.6746502847517 535.580964487968 L 867.6746502847517 552.419035512032" stroke-miterlimit="10"/></g><g transform="translate(-270,-422) scale(1,1)"><path fill="none" stroke="#000000" d="M 936 664 L 506 664" stroke-miterlimit="10"/></g><g transform="translate(-270,-422) scale(1,1)"><path fill="#FFFFFF" stroke="none" d="M 516.1626748576241 659.790482243984 L 506 664 L 516.1626748576241 668.209517756016 L 528 664"/></g><g transform="translate(-270,-422) scale(1,1)"><path fill="none" stroke="#000000" d="M 516.1626748576241 659.790482243984 L 506 664 L 516.1626748576241 668.209517756016 L 528 664 L 516.1626748576241 659.790482243984" stroke-miterlimit="10"/></g><g transform="translate(-270,-422) scale(1,1)"><path fill="none" stroke="#000000" d="M 925.8373251423759 668.209517756016 L 936 664 L 925.8373251423758 659.790482243984" stroke-miterlimit="10"/></g><g transform="translate(-270,-422) scale(1,1)"><g><path fill="none" stroke="none"/><text fill="#000000" stroke="none" font-family="Arial" font-size="13px" font-style="normal" font-weight="normal" text-decoration="none" x="873.13134765625" y="684.5">-archiver</text></g></g><g transform="translate(-270,-422) scale(1,1)"><rect fill="#C0C0C0" stroke="none" x="895" y="503" width="255.04150390625" height="120" opacity="0.2"/></g><g transform="translate(-270,-422) scale(1,1)"><rect fill="#ffffff" stroke="none" x="888" y="496" width="255.04150390625" height="120"/></g><g transform="translate(-270,-422) scale(1,1)"><path fill="none" stroke="#000000" d="M 888 496 L 1143.04150390625 496 L 1143.04150390625 616 L 888 616 L 888 496 Z Z" stroke-miterlimit="10"/></g><g transform="translate(-270,-422) scale(1,1)"><path fill="#ffffff" stroke="none" d="M 1117.04150390625 513 C 1117.04150390625 508.0294368 1121.07094070625 504 1126.04150390625 504 C 1131.01206710625 504 1135.04150390625 508.0294368 1135.04150390625 513 C 1135.04150390625 517.9705632 1131.01206710625 522 1126.04150390625 522 C 1121.07094070625 522 1117.04150390625 517.9705632 1117.04150390625 513 Z"/></g><g transform="translate(-270,-422) scale(1,1)"><path fill="none" stroke="#000000" d="M 1117.04150390625 513 C 1117.04150390625 508.0294368 1121.07094070625 504 1126.04150390625 504 C 1131.01206710625 504 1135.04150390625 508.0294368 1135.04150390625 513 C 1135.04150390625 517.9705632 1131.01206710625 522 1126.04150390625 522 C 1121.07094070625 522 1117.04150390625 517.9705632 1117.04150390625 513 Z" stroke-miterlimit="10"/></g><g transform="translate(-270,-422) scale(1,1)"><path fill="none" stroke="#000000" d="M 888 549 L 1143.04150390625 549" stroke-miterlimit="10"/></g><g transform="translate(-270,-422) scale(1,1)"><g><path fill="none" stroke="none"/><text fill="#000000" stroke="none" font-family="Arial" font-size="13px" font-style="normal" font-weight="normal" text-decoration="none" x="971.3603515625" y="513.5">«interface»</text></g></g><g transform="translate(-270,-422) scale(1,1)"><g><path fill="none" stroke="none"/><text fill="#000000" stroke="none" font-family="Arial" font-size="13px" font-style="italic" font-weight="bold" text-decoration="none" x="979.678955078125" y="528.5">serialize</text></g></g><g transform="translate(-270,-422) scale(1,1)"><g><path fill="none" stroke="none"/><text fill="#000000" stroke="none" font-family="Arial" font-size="13px" font-style="normal" font-weight="normal" text-decoration="none" x="970.290771484375" y="543.5">(from gpds)</text></g></g><g transform="translate(-270,-422) scale(1,1)"><g><path fill="none" stroke="none"/><text fill="#000000" stroke="none" font-family="Arial" font-size="13px" font-style="italic" font-weight="normal" text-decoration="none" x="893" y="566.5">+to_container(): container</text></g></g><g transform="translate(-270,-422) scale(1,1)"><g><path fill="none" stroke="none"/><text fill="#000000" stroke="none" font-family="Arial" font-size="13px" font-style="italic" font-weight="normal" text-decoration="none" x="893" y="581.5">+from_container(c: container)</text></g></g><g transform="translate(-270,-422) scale(1,1)"><g><path fill="none" stroke="none"/><text fill="#000000" stroke="none" font-family="Arial" font-size="13px" font-style="normal" font-weight="normal" text-decoration="none" x="893" y="596.5">+to_file(p: path, root_name: string): bool</text></g></g><g transform="translate(-270,-422) scale(1,1)"><g><path fill="none" stroke="none"/><text fill="#000000" stroke="none" font-family="Arial" font-size="13px" font-style="normal" font-weight="normal" text-decoration="none" x="893" y="611.5">+from_file(p: path, root_name: string): bool</text></g></g><g transform="translate(-270,-422) scale(1,1)"><rect fill="#C0C0C0" stroke="none" x="943" y="647" width="128.1962890625" height="48" opacity="0.2"/></g><g transform="translate(-270,-422) scale(1,1)"><rect fill="#ffffff" stroke="none" x="936" y="640" width="128.1962890625" height="48"/></g><g transform="translate(-270,-422) scale(1,1)"><path fill="none" stroke="#000000" d="M 936 640 L 1064.1962890625 640 L 1064.1962890625 688 L 936 688 L 936 640 Z Z" stroke-miterlimit="10"/></g><g transform="translate(-270,-422) scale(1,1)"><g><path fill="none" stroke="none"/><text fill="#000000" stroke="none" font-family="Arial" font-size="13px" font-style="normal" font-weight="bold" text-decoration="none" x="963.25634765625" y="659.5">archiver_xml</text></g></g><g transform="translate(-270,-422) scale(1,1)"><g><path fill="none" stroke="none"/><text fill="#000000" stroke="none" font-family="Arial" font-size="13px" font-style="normal" font-weight="normal" text-decoration="none" x="966.8681640625" y="674.5">(from gpds)</text></g></g><g transform="translate(-270,-422) scale(1,1)"><path fill="none" stroke="#000000" d="M 1000 640 L 1000 616" stroke-miterlimit="10"/></g><g transform="translate(-270,-422) scale(1,1)"><path fill="none" stroke="#000000" d="M 1004.209517756016 626.1626748576241 L 1000 616 L 995.790482243984 626.1626748576241" stroke-miterlimit="10"/></g></g></svg>