<svg version="1.1" xmlns="http://www.w3.org/2000/svg" xmlns:xlink="http://www.w3.org/1999/xlink" width="1132" height="652"><defs/><g><g transform="translate(-350,-182) scale(1,1)"><rect fill="#C0C0C0" stroke="none" x="367" y="199" width="444.79999999999995" height="15" opacity="0.2"/></g><g transform="translate(-350,-182) scale(1,1)"><rect fill="#C0C0C0" stroke="none" x="367" y="213" width="1112" height="618" opacity="0.2"/></g><g transform="translate(-350,-182) scale(1,1)"><rect fill="#ffffff" stroke="none" x="360" y="207" width="1112" height="617"/></g><g transform="translate(-350,-182) scale(1,1)"><path fill="none" stroke="#000000" d="M 360 207 L 1472 207 L 1472 824 L 360 824 L 360 207 Z Z" stroke-miterlimit="10"/></g><g transform="translate(-350,-182) scale(1,1)"><rect fill="#ffffff" stroke="none" x="360" y="192" width="444.79999999999995" height="15"/></g><g transform="translate(-350,-182) scale(1,1)"><path fill="none" stroke="#000000" d="M 360 192 L 804.8 192 L 804.8 207 L 360 207 L 360 192 Z Z" stroke-miterlimit="10"/></g><g transform="translate(-350,-182) scale(1,1)"><rect fill="#ffffff" stroke="none" x="360" y="206" width="1112" height="618"/></g><g transform="translate(-350,-182) scale(1,1)"><path fill="none" stroke="#000000" d="M 360 206 L 1472 206 L 1472 824 L 360 824 L 360 206 Z Z" stroke-miterlimit="10"/></g><g transform="translate(-350,-182) scale(1,1)"><g><path fill="none" stroke="none"/><text fill="#000000" stroke="none" font-family="Arial" font-size="13px" font-style="normal" font-weight="bold" text-decoration="none" x="900.464111328125" y="226.5">Gpds</text></g></g><g transform="translate(-350,-182) scale(1,1)"><rect fill="#C0C0C0" stroke="none" x="863" y="455" width="326.10986328125" height="344" opacity="0.2"/></g><g transform="translate(-350,-182) scale(1,1)"><rect fill="#ffffff" stroke="none" x="856" y="448" width="326.10986328125" height="344"/></g><g transform="translate(-350,-182) scale(1,1)"><path fill="none" stroke="#000000" d="M 856 448 L 1182.10986328125 448 L 1182.10986328125 792 L 856 792 L 856 448 Z Z" stroke-miterlimit="10"/></g><g transform="translate(-350,-182) scale(1,1)"><path fill="none" stroke="#000000" d="M 856 473 L 1182.10986328125 473" stroke-miterlimit="10"/></g><g transform="translate(-350,-182) scale(1,1)"><path fill="none" stroke="#000000" d="M 856 496 L 1182.10986328125 496" stroke-miterlimit="10"/></g><g transform="translate(-350,-182) scale(1,1)"><g><path fill="none" stroke="none"/><text fill="#000000" stroke="none" font-family="Arial" font-size="13px" font-style="normal" font-weight="bold" text-decoration="none" x="990.871337890625" y="467.5">Container</text></g></g><g transform="translate(-350,-182) scale(1,1)"><g><path fill="none" stroke="none"/><text fill="#000000" stroke="none" font-family="Arial" font-size="13px" font-style="normal" font-weight="normal" text-decoration="none" x="861" y="490.5">+name : std::string</text></g></g><g transform="translate(-350,-182) scale(1,1)"><g><path fill="none" stroke="none"/><text fill="#000000" stroke="none" font-family="Arial" font-size="13px" font-style="normal" font-weight="normal" text-decoration="none" x="861" y="513.5">+typeString(type: ValueType): string</text></g></g><g transform="translate(-350,-182) scale(1,1)"><g><path fill="none" stroke="none"/><text fill="#000000" stroke="none" font-family="Arial" font-size="13px" font-style="normal" font-weight="normal" text-decoration="none" x="861" y="528.5">+addEntry(name: string, type: ValueType, value: Value)</text></g></g><g transform="translate(-350,-182) scale(1,1)"><g><path fill="none" stroke="none"/><text fill="#000000" stroke="none" font-family="Arial" font-size="13px" font-style="normal" font-weight="normal" text-decoration="none" x="861" y="543.5">+addEntry(name: string, value: bool)</text></g></g><g transform="translate(-350,-182) scale(1,1)"><g><path fill="none" stroke="none"/><text fill="#000000" stroke="none" font-family="Arial" font-size="13px" font-style="normal" font-weight="normal" text-decoration="none" x="861" y="558.5">+addEntry(name: string, value: int)</text></g></g><g transform="translate(-350,-182) scale(1,1)"><g><path fill="none" stroke="none"/><text fill="#000000" stroke="none" font-family="Arial" font-size="13px" font-style="normal" font-weight="normal" text-decoration="none" x="861" y="573.5">+addEntry(name: string, value: double)</text></g></g><g transform="translate(-350,-182) scale(1,1)"><g><path fill="none" stroke="none"/><text fill="#000000" stroke="none" font-family="Arial" font-size="13px" font-style="normal" font-weight="normal" text-decoration="none" x="861" y="588.5">+addEntry(name: string, value: string)</text></g></g><g transform="translate(-350,-182) scale(1,1)"><g><path fill="none" stroke="none"/><text fill="#000000" stroke="none" font-family="Arial" font-size="13px" font-style="normal" font-weight="normal" text-decoration="none" x="861" y="603.5">+addEntry(name: string, value: Container)</text></g></g><g transform="translate(-350,-182) scale(1,1)"><g><path fill="none" stroke="none"/><text fill="#000000" stroke="none" font-family="Arial" font-size="13px" font-style="normal" font-weight="normal" text-decoration="none" x="861" y="618.5">+getEntry(name: string): Value</text></g></g><g transform="translate(-350,-182) scale(1,1)"><g><path fill="none" stroke="none"/><text fill="#000000" stroke="none" font-family="Arial" font-size="13px" font-style="normal" font-weight="normal" text-decoration="none" x="861" y="633.5">+getEntries(name: string): Value[0..*]</text></g></g><g transform="translate(-350,-182) scale(1,1)"><g><path fill="none" stroke="none"/><text fill="#000000" stroke="none" font-family="Arial" font-size="13px" font-style="normal" font-weight="normal" text-decoration="none" x="861" y="648.5">+addArgument(name: string, value: string)</text></g></g><g transform="translate(-350,-182) scale(1,1)"><g><path fill="none" stroke="none"/><text fill="#000000" stroke="none" font-family="Arial" font-size="13px" font-style="normal" font-weight="normal" text-decoration="none" x="861" y="663.5">+getArgument(name: string): string</text></g></g><g transform="translate(-350,-182) scale(1,1)"><g><path fill="none" stroke="none"/><text fill="#000000" stroke="none" font-family="Arial" font-size="13px" font-style="normal" font-weight="normal" text-decoration="none" x="861" y="678.5">+isList(): bool</text></g></g><g transform="translate(-350,-182) scale(1,1)"><rect fill="#C0C0C0" stroke="none" x="1327" y="455" width="125.34619140625" height="135" opacity="0.2"/></g><g transform="translate(-350,-182) scale(1,1)"><rect fill="#ffffff" stroke="none" x="1320" y="448" width="125.34619140625" height="135"/></g><g transform="translate(-350,-182) scale(1,1)"><path fill="none" stroke="#000000" d="M 1320 448 L 1445.34619140625 448 L 1445.34619140625 583 L 1320 583 L 1320 448 Z Z" stroke-miterlimit="10"/></g><g transform="translate(-350,-182) scale(1,1)"><path fill="none" stroke="#000000" d="M 1320 501 L 1445.34619140625 501" stroke-miterlimit="10"/></g><g transform="translate(-350,-182) scale(1,1)"><g><path fill="none" stroke="none"/><text fill="#000000" stroke="none" font-family="Arial" font-size="13px" font-style="normal" font-weight="normal" text-decoration="none" x="1339.30908203125" y="465.5">«enumeration»</text></g></g><g transform="translate(-350,-182) scale(1,1)"><g><path fill="none" stroke="none"/><text fill="#000000" stroke="none" font-family="Arial" font-size="13px" font-style="normal" font-weight="bold" text-decoration="none" x="1352.439208984375" y="480.5">ValueType</text></g></g><g transform="translate(-350,-182) scale(1,1)"><g><path fill="none" stroke="none"/><text fill="#000000" stroke="none" font-family="Arial" font-size="13px" font-style="normal" font-weight="normal" text-decoration="none" x="1335.3544921875" y="495.5">(from Container)</text></g></g><g transform="translate(-350,-182) scale(1,1)"><g><path fill="none" stroke="none"/><text fill="#000000" stroke="none" font-family="Arial" font-size="13px" font-style="normal" font-weight="normal" text-decoration="none" x="1325" y="518.5">BoolType</text></g></g><g transform="translate(-350,-182) scale(1,1)"><g><path fill="none" stroke="none"/><text fill="#000000" stroke="none" font-family="Arial" font-size="13px" font-style="normal" font-weight="normal" text-decoration="none" x="1325" y="533.5">IntType</text></g></g><g transform="translate(-350,-182) scale(1,1)"><g><path fill="none" stroke="none"/><text fill="#000000" stroke="none" font-family="Arial" font-size="13px" font-style="normal" font-weight="normal" text-decoration="none" x="1325" y="548.5">DoubleType</text></g></g><g transform="translate(-350,-182) scale(1,1)"><g><path fill="none" stroke="none"/><text fill="#000000" stroke="none" font-family="Arial" font-size="13px" font-style="normal" font-weight="normal" text-decoration="none" x="1325" y="563.5">StringType</text></g></g><g transform="translate(-350,-182) scale(1,1)"><g><path fill="none" stroke="none"/><text fill="#000000" stroke="none" font-family="Arial" font-size="13px" font-style="normal" font-weight="normal" text-decoration="none" x="1325" y="578.5">ContainerType</text></g></g><g transform="translate(-350,-182) scale(1,1)"><rect fill="#C0C0C0" stroke="none" x="415" y="271" width="380.7314453125" height="75" opacity="0.2"/></g><g transform="translate(-350,-182) scale(1,1)"><rect fill="#ffffff" stroke="none" x="408" y="264" width="380.7314453125" height="75"/></g><g transform="translate(-350,-182) scale(1,1)"><path fill="none" stroke="#000000" d="M 408 264 L 788.7314453125 264 L 788.7314453125 339 L 408 339 L 408 264 Z Z" stroke-miterlimit="10"/></g><g transform="translate(-350,-182) scale(1,1)"><path fill="#ffffff" stroke="none" d="M 762.7314453125 281 C 762.7314453125 276.0294368 766.7608821125 272 771.7314453125 272 C 776.7020085125 272 780.7314453125 276.0294368 780.7314453125 281 C 780.7314453125 285.9705632 776.7020085125 290 771.7314453125 290 C 766.7608821125 290 762.7314453125 285.9705632 762.7314453125 281 Z"/></g><g transform="translate(-350,-182) scale(1,1)"><path fill="none" stroke="#000000" d="M 762.7314453125 281 C 762.7314453125 276.0294368 766.7608821125 272 771.7314453125 272 C 776.7020085125 272 780.7314453125 276.0294368 780.7314453125 281 C 780.7314453125 285.9705632 776.7020085125 290 771.7314453125 290 C 766.7608821125 290 762.7314453125 285.9705632 762.7314453125 281 Z" stroke-miterlimit="10"/></g><g transform="translate(-350,-182) scale(1,1)"><path fill="none" stroke="#000000" d="M 408 302 L 788.7314453125 302" stroke-miterlimit="10"/></g><g transform="translate(-350,-182) scale(1,1)"><g><path fill="none" stroke="none"/><text fill="#000000" stroke="none" font-family="Arial" font-size="13px" font-style="normal" font-weight="normal" text-decoration="none" x="554.205322265625" y="281.5">«interface»</text></g></g><g transform="translate(-350,-182) scale(1,1)"><g><path fill="none" stroke="none"/><text fill="#000000" stroke="none" font-family="Arial" font-size="13px" font-style="italic" font-weight="bold" text-decoration="none" x="562.527099609375" y="296.5">Archiver</text></g></g><g transform="translate(-350,-182) scale(1,1)"><g><path fill="none" stroke="none"/><text fill="#000000" stroke="none" font-family="Arial" font-size="13px" font-style="italic" font-weight="normal" text-decoration="none" x="413" y="319.5">+save(stream: ostream, object: Serialize, rootName: string): bool</text></g></g><g transform="translate(-350,-182) scale(1,1)"><g><path fill="none" stroke="none"/><text fill="#000000" stroke="none" font-family="Arial" font-size="13px" font-style="italic" font-weight="normal" text-decoration="none" x="413" y="334.5">+load(stream: istream, object: Serialize, rootName: string): bool</text></g></g><g transform="translate(-350,-182) scale(1,1)"><rect fill="#C0C0C0" stroke="none" x="663" y="463" width="89.57080078125" height="47" opacity="0.2"/></g><g transform="translate(-350,-182) scale(1,1)"><rect fill="#ffffff" stroke="none" x="656" y="456" width="89.57080078125" height="47"/></g><g transform="translate(-350,-182) scale(1,1)"><path fill="none" stroke="#000000" d="M 656 456 L 745.57080078125 456 L 745.57080078125 503 L 656 503 L 656 456 Z Z" stroke-miterlimit="10"/></g><g transform="translate(-350,-182) scale(1,1)"><g><path fill="none" stroke="none"/><text fill="#000000" stroke="none" font-family="Arial" font-size="13px" font-style="normal" font-weight="bold" text-decoration="none" x="665.752685546875" y="475.5">ArchiverXml</text></g></g><g transform="translate(-350,-182) scale(1,1)"><path fill="none" stroke="#000000" d="M 696 456 L 696 339" stroke-miterlimit="10" stroke-dasharray="3"/></g><g transform="translate(-350,-182) scale(1,1)"><path fill="#FFFFFF" stroke="none" d="M 704.419035512032 359.3253497152483 L 696 339 L 687.580964487968 359.3253497152483"/></g><g transform="translate(-350,-182) scale(1,1)"><path fill="none" stroke="#000000" d="M 704.419035512032 359.3253497152483 L 696 339 L 687.580964487968 359.3253497152483 L 704.419035512032 359.3253497152483" stroke-miterlimit="10"/></g><g transform="translate(-350,-182) scale(1,1)"><rect fill="#C0C0C0" stroke="none" x="415" y="439" width="153.9169921875" height="87" opacity="0.2"/></g><g transform="translate(-350,-182) scale(1,1)"><rect fill="#ffffff" stroke="none" x="408" y="432" width="153.9169921875" height="87"/></g><g transform="translate(-350,-182) scale(1,1)"><path fill="none" stroke="#000000" d="M 408 432 L 561.9169921875 432 L 561.9169921875 519 L 408 519 L 408 432 Z Z" stroke-miterlimit="10"/></g><g transform="translate(-350,-182) scale(1,1)"><path fill="none" stroke="#000000" d="M 408 472 L 561.9169921875 472" stroke-miterlimit="10"/></g><g transform="translate(-350,-182) scale(1,1)"><g><path fill="none" stroke="none"/><text fill="#000000" stroke="none" font-family="Arial" font-size="13px" font-style="normal" font-weight="bold" text-decoration="none" x="461.47216796875" y="451.5">Settings</text></g></g><g transform="translate(-350,-182) scale(1,1)"><g><path fill="none" stroke="none"/><text fill="#000000" stroke="none" font-family="Arial" font-size="13px" font-style="normal" font-weight="normal" text-decoration="none" x="430.790771484375" y="466.5">(from ArchiverXml)</text></g></g><g transform="translate(-350,-182) scale(1,1)"><g><path fill="none" stroke="none"/><text fill="#000000" stroke="none" font-family="Arial" font-size="13px" font-style="normal" font-weight="normal" text-decoration="none" x="413" y="489.5">+annotateListCount: bool</text></g></g><g transform="translate(-350,-182) scale(1,1)"><g><path fill="none" stroke="none"/><text fill="#000000" stroke="none" font-family="Arial" font-size="13px" font-style="normal" font-weight="normal" text-decoration="none" x="413" y="504.5">+annotateTypes: bool</text></g></g><g transform="translate(-350,-182) scale(1,1)"><path fill="none" stroke="#000000" d="M 562 484 L 656 484" stroke-miterlimit="10"/></g><g transform="translate(-350,-182) scale(1,1)"><path fill="#000000" stroke="none" d="M 645.8373251423759 488.209517756016 L 656 484 L 645.8373251423758 479.790482243984 L 634 484"/></g><g transform="translate(-350,-182) scale(1,1)"><path fill="none" stroke="#000000" d="M 645.8373251423759 488.209517756016 L 656 484 L 645.8373251423758 479.790482243984 L 634 484 L 645.8373251423759 488.209517756016" stroke-miterlimit="10"/></g><g transform="translate(-350,-182) scale(1,1)"><g><path fill="none" stroke="none"/><text fill="#000000" stroke="none" font-family="Arial" font-size="13px" font-style="normal" font-weight="normal" text-decoration="none" x="579.5" y="502.5">1</text></g></g><g transform="translate(-350,-182) scale(1,1)"><path fill="none" stroke="#000000" d="M 790 301 L 927 301" stroke-miterlimit="10"/></g><g transform="translate(-350,-182) scale(1,1)"><path fill="none" stroke="#000000" d="M 916.8373251423759 305.209517756016 L 927 301 L 916.8373251423758 296.790482243984" stroke-miterlimit="10"/></g><g transform="translate(-350,-182) scale(1,1)"><path fill="none" stroke="#000000" d="M 1182 520 L 1320 520" stroke-miterlimit="10"/></g><g transform="translate(-350,-182) scale(1,1)"><path fill="none" stroke="#000000" d="M 1309.837325142376 524.209517756016 L 1320 520 L 1309.837325142376 515.790482243984" stroke-miterlimit="10"/></g><g transform="translate(-350,-182) scale(1,1)"><path fill="none" stroke="#000000" d="M 1016 339 L 1016 448" stroke-miterlimit="10"/></g><g transform="translate(-350,-182) scale(1,1)"><path fill="none" stroke="#000000" d="M 1011.790482243984 437.83732514237585 L 1016 448 L 1020.209517756016 437.83732514237585" stroke-miterlimit="10"/></g><g transform="translate(-350,-182) scale(1,1)"><rect fill="#C0C0C0" stroke="none" x="1327" y="623" width="128" height="59" opacity="0.2"/></g><g transform="translate(-350,-182) scale(1,1)"><rect fill="#ffffff" stroke="none" x="1320" y="616" width="128" height="59"/></g><g transform="translate(-350,-182) scale(1,1)"><path fill="none" stroke="#000000" d="M 1320 616 L 1448 616 L 1448 675 L 1320 675 L 1320 616 Z Z" stroke-miterlimit="10"/></g><g transform="translate(-350,-182) scale(1,1)"><g><path fill="none" stroke="none"/><text fill="#000000" stroke="none" font-family="Arial" font-size="13px" font-style="normal" font-weight="bold" text-decoration="none" x="1367.85791015625" y="635.5">Value</text></g></g><g transform="translate(-350,-182) scale(1,1)"><g><path fill="none" stroke="none"/><text fill="#000000" stroke="none" font-family="Arial" font-size="13px" font-style="normal" font-weight="normal" text-decoration="none" x="1336.681396484375" y="650.5">(from Container)</text></g></g><g transform="translate(-350,-182) scale(1,1)"><path fill="none" stroke="#000000" d="M 1320 640 L 1182 640" stroke-miterlimit="10"/></g><g transform="translate(-350,-182) scale(1,1)"><path fill="#000000" stroke="none" d="M 1192.162674857624 635.790482243984 L 1182 640 L 1192.162674857624 644.209517756016 L 1204 640"/></g><g transform="translate(-350,-182) scale(1,1)"><path fill="none" stroke="#000000" d="M 1192.162674857624 635.790482243984 L 1182 640 L 1192.162674857624 644.209517756016 L 1204 640 L 1192.162674857624 635.790482243984" stroke-miterlimit="10"/></g><g transform="translate(-350,-182) scale(1,1)"><path fill="none" stroke="#000000" d="M 1309.837325142376 644.209517756016 L 1320 640 L 1309.837325142376 635.790482243984" stroke-miterlimit="10"/></g><g transform="translate(-350,-182) scale(1,1)"><g><path fill="none" stroke="none"/><text fill="#000000" stroke="none" font-family="Arial" font-size="13px" font-style="normal" font-weight="normal" text-decoration="none" x="1239.5" y="659.5">«map»</text></g></g><g transform="translate(-350,-182) scale(1,1)"><g><path fill="none" stroke="none"/><text fill="#000000" stroke="none" font-family="Arial" font-size="13px" font-style="normal" font-weight="normal" text-decoration="none" x="1287.74365234375" y="633.5">0..*</text></g></g><g transform="translate(-350,-182) scale(1,1)"><rect fill="#C0C0C0" stroke="none" x="1327" y="719" width="128" height="80" opacity="0.2"/></g><g transform="translate(-350,-182) scale(1,1)"><rect fill="#ffffff" stroke="none" x="1320" y="712" width="128" height="80"/></g><g transform="translate(-350,-182) scale(1,1)"><path fill="none" stroke="#000000" d="M 1320 712 L 1448 712 L 1448 792 L 1320 792 L 1320 712 Z Z" stroke-miterlimit="10"/></g><g transform="translate(-350,-182) scale(1,1)"><path fill="none" stroke="#000000" d="M 1320 752 L 1448 752" stroke-miterlimit="10"/></g><g transform="translate(-350,-182) scale(1,1)"><g><path fill="none" stroke="none"/><text fill="#000000" stroke="none" font-family="Arial" font-size="13px" font-style="normal" font-weight="bold" text-decoration="none" x="1355.819580078125" y="731.5">Argument</text></g></g><g transform="translate(-350,-182) scale(1,1)"><g><path fill="none" stroke="none"/><text fill="#000000" stroke="none" font-family="Arial" font-size="13px" font-style="normal" font-weight="normal" text-decoration="none" x="1349.3291015625" y="746.5">(from Gpds)</text></g></g><g transform="translate(-350,-182) scale(1,1)"><g><path fill="none" stroke="none"/><text fill="#000000" stroke="none" font-family="Arial" font-size="13px" font-style="normal" font-weight="normal" text-decoration="none" x="1325" y="769.5">+key: string</text></g></g><g transform="translate(-350,-182) scale(1,1)"><g><path fill="none" stroke="none"/><text fill="#000000" stroke="none" font-family="Arial" font-size="13px" font-style="normal" font-weight="normal" text-decoration="none" x="1325" y="784.5">+value: string</text></g></g><g transform="translate(-350,-182) scale(1,1)"><path fill="none" stroke="#000000" d="M 1320 760 L 1182 760" stroke-miterlimit="10"/></g><g transform="translate(-350,-182) scale(1,1)"><path fill="#000000" stroke="none" d="M 1192.162674857624 755.790482243984 L 1182 760 L 1192.162674857624 764.209517756016 L 1204 760"/></g><g transform="translate(-350,-182) scale(1,1)"><path fill="none" stroke="#000000" d="M 1192.162674857624 755.790482243984 L 1182 760 L 1192.162674857624 764.209517756016 L 1204 760 L 1192.162674857624 755.790482243984" stroke-miterlimit="10"/></g><g transform="translate(-350,-182) scale(1,1)"><path fill="none" stroke="#000000" d="M 1309.837325142376 764.209517756016 L 1320 760 L 1309.837325142376 755.790482243984" stroke-miterlimit="10"/></g><g transform="translate(-350,-182) scale(1,1)"><g><path fill="none" stroke="none"/><text fill="#000000" stroke="none" font-family="Arial" font-size="13px" font-style="normal" font-weight="normal" text-decoration="none" x="1247.5" y="780.5">+arguments</text></g></g><g transform="translate(-350,-182) scale(1,1)"><rect fill="#C0C0C0" stroke="none" x="935" y="271" width="177.7080078125" height="75" opacity="0.2"/></g><g transform="translate(-350,-182) scale(1,1)"><rect fill="#ffffff" stroke="none" x="928" y="264" width="177.7080078125" height="75"/></g><g transform="translate(-350,-182) scale(1,1)"><path fill="none" stroke="#000000" d="M 928 264 L 1105.7080078125 264 L 1105.7080078125 339 L 928 339 L 928 264 Z Z" stroke-miterlimit="10"/></g><g transform="translate(-350,-182) scale(1,1)"><path fill="#ffffff" stroke="none" d="M 1079.7080078125 281 C 1079.7080078125 276.0294368 1083.7374446125 272 1088.7080078125 272 C 1093.6785710125 272 1097.7080078125 276.0294368 1097.7080078125 281 C 1097.7080078125 285.9705632 1093.6785710125 290 1088.7080078125 290 C 1083.7374446125 290 1079.7080078125 285.9705632 1079.7080078125 281 Z"/></g><g transform="translate(-350,-182) scale(1,1)"><path fill="none" stroke="#000000" d="M 1079.7080078125 281 C 1079.7080078125 276.0294368 1083.7374446125 272 1088.7080078125 272 C 1093.6785710125 272 1097.7080078125 276.0294368 1097.7080078125 281 C 1097.7080078125 285.9705632 1093.6785710125 290 1088.7080078125 290 C 1083.7374446125 290 1079.7080078125 285.9705632 1079.7080078125 281 Z" stroke-miterlimit="10"/></g><g transform="translate(-350,-182) scale(1,1)"><path fill="none" stroke="#000000" d="M 928 302 L 1105.7080078125 302" stroke-miterlimit="10"/></g><g transform="translate(-350,-182) scale(1,1)"><g><path fill="none" stroke="none"/><text fill="#000000" stroke="none" font-family="Arial" font-size="13px" font-style="normal" font-weight="normal" text-decoration="none" x="972.693603515625" y="281.5">«interface»</text></g></g><g transform="translate(-350,-182) scale(1,1)"><g><path fill="none" stroke="none"/><text fill="#000000" stroke="none" font-family="Arial" font-size="13px" font-style="italic" font-weight="bold" text-decoration="none" x="979.9267578125" y="296.5">Serialize</text></g></g><g transform="translate(-350,-182) scale(1,1)"><g><path fill="none" stroke="none"/><text fill="#000000" stroke="none" font-family="Arial" font-size="13px" font-style="italic" font-weight="normal" text-decoration="none" x="933" y="319.5">+toContainer(): Container</text></g></g><g transform="translate(-350,-182) scale(1,1)"><g><path fill="none" stroke="none"/><text fill="#000000" stroke="none" font-family="Arial" font-size="13px" font-style="italic" font-weight="normal" text-decoration="none" x="933" y="334.5">+fromContainer(c: Container)</text></g></g></g></svg>