<svg version="1.1" xmlns="http://www.w3.org/2000/svg" xmlns:xlink="http://www.w3.org/1999/xlink" width="1380" height="724"><defs/><g><g transform="translate(-14,-38) scale(1,1)"><rect fill="#C0C0C0" stroke="none" x="31" y="55" width="544" height="15" opacity="0.2"/></g><g transform="translate(-14,-38) scale(1,1)"><rect fill="#C0C0C0" stroke="none" x="31" y="69" width="1360" height="690" opacity="0.2"/></g><g transform="translate(-14,-38) scale(1,1)"><rect fill="#ffffff" stroke="none" x="24" y="63" width="1360" height="689"/></g><g transform="translate(-14,-38) scale(1,1)"><path fill="none" stroke="#000000" d="M 24 63 L 1384 63 L 1384 752 L 24 752 L 24 63 Z Z" stroke-miterlimit="10"/></g><g transform="translate(-14,-38) scale(1,1)"><rect fill="#ffffff" stroke="none" x="24" y="48" width="544" height="15"/></g><g transform="translate(-14,-38) scale(1,1)"><path fill="none" stroke="#000000" d="M 24 48 L 568 48 L 568 63 L 24 63 L 24 48 Z Z" stroke-miterlimit="10"/></g><g transform="translate(-14,-38) scale(1,1)"><rect fill="#ffffff" stroke="none" x="24" y="62" width="1360" height="690"/></g><g transform="translate(-14,-38) scale(1,1)"><path fill="none" stroke="#000000" d="M 24 62 L 1384 62 L 1384 752 L 24 752 L 24 62 Z Z" stroke-miterlimit="10"/></g><g transform="translate(-14,-38) scale(1,1)"><g><path fill="none" stroke="none"/><text fill="#000000" stroke="none" font-family="Arial" font-size="13px" font-style="normal" font-weight="bold" text-decoration="none" x="689.905029296875" y="82.5">gpds</text></g></g><g transform="translate(-14,-38) scale(1,1)"><path fill="none" stroke="#000000" d="M 226 424 L 360 424" stroke-miterlimit="10"/></g><g transform="translate(-14,-38) scale(1,1)"><path fill="#000000" stroke="none" d="M 349.83732514237585 428.209517756016 L 360 424 L 349.83732514237585 419.790482243984 L 338 424"/></g><g transform="translate(-14,-38) scale(1,1)"><path fill="none" stroke="#000000" d="M 349.83732514237585 428.209517756016 L 360 424 L 349.83732514237585 419.790482243984 L 338 424 L 349.83732514237585 428.209517756016" stroke-miterlimit="10"/></g><g transform="translate(-14,-38) scale(1,1)"><g><path fill="none" stroke="none"/><text fill="#000000" stroke="none" font-family="Arial" font-size="13px" font-style="normal" font-weight="normal" text-decoration="none" x="238.5" y="443.5">+settings</text></g></g><g transform="translate(-14,-38) scale(1,1)"><g><path fill="none" stroke="none"/><text fill="#000000" stroke="none" font-family="Arial" font-size="13px" font-style="normal" font-weight="normal" text-decoration="none" x="239.5" y="420.5">1</text></g></g><g transform="translate(-14,-38) scale(1,1)"><path fill="none" stroke="#000000" d="M 1016 448 L 923 448" stroke-miterlimit="10"/></g><g transform="translate(-14,-38) scale(1,1)"><path fill="#000000" stroke="none" d="M 933.1626748576241 443.790482243984 L 923 448 L 933.1626748576241 452.209517756016 L 945 448"/></g><g transform="translate(-14,-38) scale(1,1)"><path fill="none" stroke="#000000" d="M 933.1626748576241 443.790482243984 L 923 448 L 933.1626748576241 452.209517756016 L 945 448 L 933.1626748576241 443.790482243984" stroke-miterlimit="10"/></g><g transform="translate(-14,-38) scale(1,1)"><path fill="none" stroke="#000000" d="M 1005.8373251423759 452.209517756016 L 1016 448 L 1005.8373251423758 443.790482243984" stroke-miterlimit="10"/></g><g transform="translate(-14,-38) scale(1,1)"><g><path fill="none" stroke="none"/><text fill="#000000" stroke="none" font-family="Arial" font-size="13px" font-style="normal" font-weight="normal" text-decoration="none" x="967.5" y="468.5">+values</text></g></g><g transform="translate(-14,-38) scale(1,1)"><g><path fill="none" stroke="none"/><text fill="#000000" stroke="none" font-family="Arial" font-size="13px" font-style="normal" font-weight="normal" text-decoration="none" x="983.74365234375" y="441.5">0..*</text></g></g><g transform="translate(-14,-38) scale(1,1)"><path fill="none" stroke="#000000" d="M 1013 672 L 1160 672 L 1160 587" stroke-miterlimit="10"/></g><g transform="translate(-14,-38) scale(1,1)"><path fill="#000000" stroke="none" d="M 1164.2095177560159 597.1626748576241 L 1160 587 L 1155.7904822439841 597.1626748576241 L 1160 609"/></g><g transform="translate(-14,-38) scale(1,1)"><path fill="none" stroke="#000000" d="M 1164.2095177560159 597.1626748576241 L 1160 587 L 1155.7904822439841 597.1626748576241 L 1160 609 L 1164.2095177560159 597.1626748576241" stroke-miterlimit="10"/></g><g transform="translate(-14,-38) scale(1,1)"><path fill="none" stroke="#000000" d="M 1023.1626748576241 667.790482243984 L 1013 672 L 1023.1626748576241 676.209517756016" stroke-miterlimit="10"/></g><g transform="translate(-14,-38) scale(1,1)"><g><path fill="none" stroke="none"/><text fill="#000000" stroke="none" font-family="Arial" font-size="13px" font-style="normal" font-weight="normal" text-decoration="none" x="1033.4736328125" y="687.5">+attributes</text></g></g><g transform="translate(-14,-38) scale(1,1)"><g><path fill="none" stroke="none"/><text fill="#000000" stroke="none" font-family="Arial" font-size="13px" font-style="normal" font-weight="normal" text-decoration="none" x="1036.74365234375" y="665.5">0..*</text></g></g><g transform="translate(-14,-38) scale(1,1)"><path fill="none" stroke="#000000" d="M 800 672 L 712 672 L 712 536" stroke-miterlimit="10"/></g><g transform="translate(-14,-38) scale(1,1)"><path fill="#000000" stroke="none" d="M 716.209517756016 546.1626748576241 L 712 536 L 707.790482243984 546.1626748576241 L 712 558"/></g><g transform="translate(-14,-38) scale(1,1)"><path fill="none" stroke="#000000" d="M 716.209517756016 546.1626748576241 L 712 536 L 707.790482243984 546.1626748576241 L 712 558 L 716.209517756016 546.1626748576241" stroke-miterlimit="10"/></g><g transform="translate(-14,-38) scale(1,1)"><path fill="none" stroke="#000000" d="M 789.8373251423759 676.209517756016 L 800 672 L 789.8373251423758 667.790482243984" stroke-miterlimit="10"/></g><g transform="translate(-14,-38) scale(1,1)"><g><path fill="none" stroke="none"/><text fill="#000000" stroke="none" font-family="Arial" font-size="13px" font-style="normal" font-weight="normal" text-decoration="none" x="723.4736328125" y="692.5">+attributes</text></g></g><g transform="translate(-14,-38) scale(1,1)"><g><path fill="none" stroke="none"/><text fill="#000000" stroke="none" font-family="Arial" font-size="13px" font-style="normal" font-weight="normal" text-decoration="none" x="766.74365234375" y="667.5">0..*</text></g></g><g transform="translate(-14,-38) scale(1,1)"><rect fill="#C0C0C0" stroke="none" x="527" y="353" width="393.3046875" height="190" opacity="0.2"/></g><g transform="translate(-14,-38) scale(1,1)"><rect fill="#C0C0C0" stroke="none" x="847.3193359375" y="335" width="81.9853515625" height="22" opacity="0.2"/></g><g transform="translate(-14,-38) scale(1,1)"><rect fill="#ffffff" stroke="none" x="520" y="346" width="393.3046875" height="190"/></g><g transform="translate(-14,-38) scale(1,1)"><path fill="none" stroke="#000000" d="M 520 346 L 913.3046875 346 L 913.3046875 536 L 520 536 L 520 346 Z Z" stroke-miterlimit="10"/></g><g transform="translate(-14,-38) scale(1,1)"><path fill="none" stroke="#000000" d="M 520 386 L 913.3046875 386" stroke-miterlimit="10"/></g><g transform="translate(-14,-38) scale(1,1)"><path fill="none" stroke="#000000" d="M 520 409 L 913.3046875 409" stroke-miterlimit="10"/></g><g transform="translate(-14,-38) scale(1,1)"><g><path fill="none" stroke="none"/><text fill="#000000" stroke="none" font-family="Arial" font-size="13px" font-style="normal" font-weight="bold" text-decoration="none" x="689.912841796875" y="365.5">container</text></g></g><g transform="translate(-14,-38) scale(1,1)"><g><path fill="none" stroke="none"/><text fill="#000000" stroke="none" font-family="Arial" font-size="13px" font-style="normal" font-weight="normal" text-decoration="none" x="683.42236328125" y="380.5">(from gpds)</text></g></g><g transform="translate(-14,-38) scale(1,1)"><g><path fill="none" stroke="none"/><text fill="#000000" stroke="none" font-family="Arial" font-size="13px" font-style="normal" font-weight="normal" text-decoration="none" x="525" y="403.5">+comment: string</text></g></g><g transform="translate(-14,-38) scale(1,1)"><g><path fill="none" stroke="none"/><text fill="#000000" stroke="none" font-family="Arial" font-size="13px" font-style="normal" font-weight="normal" text-decoration="none" x="525" y="426.5">+add_value(key: string, T: value)</text></g></g><g transform="translate(-14,-38) scale(1,1)"><g><path fill="none" stroke="none"/><text fill="#000000" stroke="none" font-family="Arial" font-size="13px" font-style="normal" font-weight="normal" text-decoration="none" x="525" y="441.5">+get_value(key: string): T</text></g></g><g transform="translate(-14,-38) scale(1,1)"><g><path fill="none" stroke="none"/><text fill="#000000" stroke="none" font-family="Arial" font-size="13px" font-style="normal" font-weight="normal" text-decoration="none" x="525" y="456.5">+get_values(key: string): T[0..*]</text></g></g><g transform="translate(-14,-38) scale(1,1)"><g><path fill="none" stroke="none"/><text fill="#000000" stroke="none" font-family="Arial" font-size="13px" font-style="normal" font-weight="normal" text-decoration="none" x="525" y="471.5">+add_attribute(key: string, value: string)</text></g></g><g transform="translate(-14,-38) scale(1,1)"><g><path fill="none" stroke="none"/><text fill="#000000" stroke="none" font-family="Arial" font-size="13px" font-style="normal" font-weight="normal" text-decoration="none" x="525" y="486.5">+get_attribute(key: string): string</text></g></g><g transform="translate(-14,-38) scale(1,1)"><g><path fill="none" stroke="none"/><text fill="#000000" stroke="none" font-family="Arial" font-size="13px" font-style="normal" font-weight="normal" text-decoration="none" x="525" y="501.5">+get_value_attribute(valueKey: string, attributeKey: String): T</text></g></g><g transform="translate(-14,-38) scale(1,1)"><g><path fill="none" stroke="none"/><text fill="#000000" stroke="none" font-family="Arial" font-size="13px" font-style="normal" font-weight="normal" text-decoration="none" x="525" y="516.5">+set_comment(comment: string)</text></g></g><g transform="translate(-14,-38) scale(1,1)"><g><path fill="none" stroke="none"/><text fill="#000000" stroke="none" font-family="Arial" font-size="13px" font-style="normal" font-weight="normal" text-decoration="none" x="525" y="531.5">+is_list(): bool</text></g></g><g transform="translate(-14,-38) scale(1,1)"><rect fill="#ffffff" stroke="none" x="840.3193359375" y="328" width="81.9853515625" height="22"/></g><g transform="translate(-14,-38) scale(1,1)"><path fill="none" stroke="#000000" d="M 840.3193359375 328 L 922.3046875 328 L 922.3046875 350 L 840.3193359375 350 L 840.3193359375 328 Z Z" stroke-miterlimit="10" stroke-dasharray="3"/></g><g transform="translate(-14,-38) scale(1,1)"><g><path fill="none" stroke="none"/><text fill="#000000" stroke="none" font-family="Arial" font-size="13px" font-style="normal" font-weight="normal" text-decoration="none" x="845.3193359375" y="345.5">T: valueType</text></g></g><g transform="translate(-14,-38) scale(1,1)"><rect fill="#C0C0C0" stroke="none" x="1023" y="329" width="269.98876953125" height="265" opacity="0.2"/></g><g transform="translate(-14,-38) scale(1,1)"><rect fill="#C0C0C0" stroke="none" x="1220.00341796875" y="311" width="81.9853515625" height="22" opacity="0.2"/></g><g transform="translate(-14,-38) scale(1,1)"><rect fill="#ffffff" stroke="none" x="1016" y="322" width="269.98876953125" height="265"/></g><g transform="translate(-14,-38) scale(1,1)"><path fill="none" stroke="#000000" d="M 1016 322 L 1285.98876953125 322 L 1285.98876953125 587 L 1016 587 L 1016 322 Z Z" stroke-miterlimit="10"/></g><g transform="translate(-14,-38) scale(1,1)"><path fill="none" stroke="#000000" d="M 1016 362 L 1285.98876953125 362" stroke-miterlimit="10"/></g><g transform="translate(-14,-38) scale(1,1)"><path fill="none" stroke="#000000" d="M 1016 400 L 1285.98876953125 400" stroke-miterlimit="10"/></g><g transform="translate(-14,-38) scale(1,1)"><g><path fill="none" stroke="none"/><text fill="#000000" stroke="none" font-family="Arial" font-size="13px" font-style="normal" font-weight="bold" text-decoration="none" x="1135.455322265625" y="341.5">value</text></g></g><g transform="translate(-14,-38) scale(1,1)"><g><path fill="none" stroke="none"/><text fill="#000000" stroke="none" font-family="Arial" font-size="13px" font-style="normal" font-weight="normal" text-decoration="none" x="1117.764404296875" y="356.5">(from gpds)</text></g></g><g transform="translate(-14,-38) scale(1,1)"><g><path fill="none" stroke="none"/><text fill="#000000" stroke="none" font-family="Arial" font-size="13px" font-style="normal" font-weight="normal" text-decoration="none" x="1021" y="379.5">+comment: string</text></g></g><g transform="translate(-14,-38) scale(1,1)"><g><path fill="none" stroke="none"/><text fill="#000000" stroke="none" font-family="Arial" font-size="13px" font-style="normal" font-weight="normal" text-decoration="none" x="1021" y="394.5">-value: variant</text></g></g><g transform="translate(-14,-38) scale(1,1)"><g><path fill="none" stroke="none"/><text fill="#000000" stroke="none" font-family="Arial" font-size="13px" font-style="normal" font-weight="normal" text-decoration="none" x="1021" y="417.5">+from_string(s: string)</text></g></g><g transform="translate(-14,-38) scale(1,1)"><g><path fill="none" stroke="none"/><text fill="#000000" stroke="none" font-family="Arial" font-size="13px" font-style="normal" font-weight="normal" text-decoration="none" x="1021" y="432.5">+to_string(): string</text></g></g><g transform="translate(-14,-38) scale(1,1)"><g><path fill="none" stroke="none"/><text fill="#000000" stroke="none" font-family="Arial" font-size="13px" font-style="normal" font-weight="normal" text-decoration="none" x="1021" y="447.5">+set(value: T)</text></g></g><g transform="translate(-14,-38) scale(1,1)"><g><path fill="none" stroke="none"/><text fill="#000000" stroke="none" font-family="Arial" font-size="13px" font-style="normal" font-weight="normal" text-decoration="none" x="1021" y="462.5">+get(): T</text></g></g><g transform="translate(-14,-38) scale(1,1)"><g><path fill="none" stroke="none"/><text fill="#000000" stroke="none" font-family="Arial" font-size="13px" font-style="normal" font-weight="normal" text-decoration="none" x="1021" y="477.5">+add_attribute(name: string, value: string)</text></g></g><g transform="translate(-14,-38) scale(1,1)"><g><path fill="none" stroke="none"/><text fill="#000000" stroke="none" font-family="Arial" font-size="13px" font-style="normal" font-weight="normal" text-decoration="none" x="1021" y="492.5">+get_attribute(name: string): string</text></g></g><g transform="translate(-14,-38) scale(1,1)"><g><path fill="none" stroke="none"/><text fill="#000000" stroke="none" font-family="Arial" font-size="13px" font-style="normal" font-weight="normal" text-decoration="none" x="1021" y="507.5">+set_comment(comment: string)</text></g></g><g transform="translate(-14,-38) scale(1,1)"><g><path fill="none" stroke="none"/><text fill="#000000" stroke="none" font-family="Arial" font-size="13px" font-style="normal" font-weight="normal" text-decoration="none" x="1021" y="522.5">+is_type(): bool</text></g></g><g transform="translate(-14,-38) scale(1,1)"><g><path fill="none" stroke="none"/><text fill="#000000" stroke="none" font-family="Arial" font-size="13px" font-style="normal" font-weight="normal" text-decoration="none" x="1021" y="537.5">+is_empty(): bool</text></g></g><g transform="translate(-14,-38) scale(1,1)"><g><path fill="none" stroke="none"/><text fill="#000000" stroke="none" font-family="Arial" font-size="13px" font-style="normal" font-weight="normal" text-decoration="none" x="1021" y="552.5">+type_string(): string</text></g></g><g transform="translate(-14,-38) scale(1,1)"><g><path fill="none" stroke="none"/><text fill="#000000" stroke="none" font-family="Arial" font-size="13px" font-style="normal" font-weight="normal" text-decoration="none" x="1021" y="567.5">-allocate_container_memory(c: container)</text></g></g><g transform="translate(-14,-38) scale(1,1)"><g><path fill="none" stroke="none"/><text fill="#000000" stroke="none" font-family="Arial" font-size="13px" font-style="normal" font-weight="normal" text-decoration="none" x="1021" y="582.5">-free_container_memory()</text></g></g><g transform="translate(-14,-38) scale(1,1)"><rect fill="#ffffff" stroke="none" x="1213.00341796875" y="304" width="81.9853515625" height="22"/></g><g transform="translate(-14,-38) scale(1,1)"><path fill="none" stroke="#000000" d="M 1213.00341796875 304 L 1294.98876953125 304 L 1294.98876953125 326 L 1213.00341796875 326 L 1213.00341796875 304 Z Z" stroke-miterlimit="10" stroke-dasharray="3"/></g><g transform="translate(-14,-38) scale(1,1)"><g><path fill="none" stroke="none"/><text fill="#000000" stroke="none" font-family="Arial" font-size="13px" font-style="normal" font-weight="normal" text-decoration="none" x="1218.00341796875" y="321.5">T: valueType</text></g></g><g transform="translate(-14,-38) scale(1,1)"><rect fill="#C0C0C0" stroke="none" x="79" y="383" width="153.9169921875" height="107" opacity="0.2"/></g><g transform="translate(-14,-38) scale(1,1)"><rect fill="#ffffff" stroke="none" x="72" y="376" width="153.9169921875" height="107"/></g><g transform="translate(-14,-38) scale(1,1)"><path fill="none" stroke="#000000" d="M 72 376 L 225.9169921875 376 L 225.9169921875 483 L 72 483 L 72 376 Z Z" stroke-miterlimit="10"/></g><g transform="translate(-14,-38) scale(1,1)"><path fill="none" stroke="#000000" d="M 72 416 L 225.9169921875 416" stroke-miterlimit="10"/></g><g transform="translate(-14,-38) scale(1,1)"><g><path fill="none" stroke="none"/><text fill="#000000" stroke="none" font-family="Arial" font-size="13px" font-style="normal" font-weight="bold" text-decoration="none" x="126.5576171875" y="395.5">settings</text></g></g><g transform="translate(-14,-38) scale(1,1)"><g><path fill="none" stroke="none"/><text fill="#000000" stroke="none" font-family="Arial" font-size="13px" font-style="normal" font-weight="normal" text-decoration="none" x="92.981689453125" y="410.5">(from archiver_xml)</text></g></g><g transform="translate(-14,-38) scale(1,1)"><g><path fill="none" stroke="none"/><text fill="#000000" stroke="none" font-family="Arial" font-size="13px" font-style="normal" font-weight="normal" text-decoration="none" x="77" y="433.5">+printComments: bool</text></g></g><g transform="translate(-14,-38) scale(1,1)"><g><path fill="none" stroke="none"/><text fill="#000000" stroke="none" font-family="Arial" font-size="13px" font-style="normal" font-weight="normal" text-decoration="none" x="77" y="448.5">+prefixAnnotations: bool</text></g></g><g transform="translate(-14,-38) scale(1,1)"><g><path fill="none" stroke="none"/><text fill="#000000" stroke="none" font-family="Arial" font-size="13px" font-style="normal" font-weight="normal" text-decoration="none" x="77" y="463.5">+annotateListCount: bool</text></g></g><g transform="translate(-14,-38) scale(1,1)"><g><path fill="none" stroke="none"/><text fill="#000000" stroke="none" font-family="Arial" font-size="13px" font-style="normal" font-weight="normal" text-decoration="none" x="77" y="478.5">+annotateTypes: bool</text></g></g><g transform="translate(-14,-38) scale(1,1)"><rect fill="#C0C0C0" stroke="none" x="807" y="649" width="203.4970703125" height="77" opacity="0.2"/></g><g transform="translate(-14,-38) scale(1,1)"><rect fill="#C0C0C0" stroke="none" x="937.51171875" y="631" width="81.9853515625" height="22" opacity="0.2"/></g><g transform="translate(-14,-38) scale(1,1)"><rect fill="#ffffff" stroke="none" x="800" y="642" width="203.4970703125" height="77"/></g><g transform="translate(-14,-38) scale(1,1)"><path fill="none" stroke="#000000" d="M 800 642 L 1003.4970703125 642 L 1003.4970703125 719 L 800 719 L 800 642 Z Z" stroke-miterlimit="10"/></g><g transform="translate(-14,-38) scale(1,1)"><path fill="none" stroke="#000000" d="M 800 682 L 1003.4970703125 682" stroke-miterlimit="10"/></g><g transform="translate(-14,-38) scale(1,1)"><g><path fill="none" stroke="none"/><text fill="#000000" stroke="none" font-family="Arial" font-size="13px" font-style="normal" font-weight="bold" text-decoration="none" x="875.01220703125" y="661.5">attributes</text></g></g><g transform="translate(-14,-38) scale(1,1)"><g><path fill="none" stroke="none"/><text fill="#000000" stroke="none" font-family="Arial" font-size="13px" font-style="normal" font-weight="normal" text-decoration="none" x="868.5185546875" y="676.5">(from gpds)</text></g></g><g transform="translate(-14,-38) scale(1,1)"><g><path fill="none" stroke="none"/><text fill="#000000" stroke="none" font-family="Arial" font-size="13px" font-style="normal" font-weight="normal" text-decoration="none" x="805" y="699.5">+add(key: string, value: T)</text></g></g><g transform="translate(-14,-38) scale(1,1)"><g><path fill="none" stroke="none"/><text fill="#000000" stroke="none" font-family="Arial" font-size="13px" font-style="normal" font-weight="normal" text-decoration="none" x="805" y="714.5">+get(key: string): T</text></g></g><g transform="translate(-14,-38) scale(1,1)"><rect fill="#ffffff" stroke="none" x="930.51171875" y="624" width="81.9853515625" height="22"/></g><g transform="translate(-14,-38) scale(1,1)"><path fill="none" stroke="#000000" d="M 930.51171875 624 L 1012.4970703125 624 L 1012.4970703125 646 L 930.51171875 646 L 930.51171875 624 Z Z" stroke-miterlimit="10" stroke-dasharray="3"/></g><g transform="translate(-14,-38) scale(1,1)"><g><path fill="none" stroke="none"/><text fill="#000000" stroke="none" font-family="Arial" font-size="13px" font-style="normal" font-weight="normal" text-decoration="none" x="935.51171875" y="641.5">T: valueType</text></g></g><g transform="translate(-14,-38) scale(1,1)"><rect fill="#C0C0C0" stroke="none" x="367" y="415" width="89.2216796875" height="32" opacity="0.2"/></g><g transform="translate(-14,-38) scale(1,1)"><rect fill="#ffffff" stroke="none" x="360" y="408" width="89.2216796875" height="32"/></g><g transform="translate(-14,-38) scale(1,1)"><path fill="none" stroke="#000000" d="M 360 408 L 449.2216796875 408 L 449.2216796875 440 L 360 440 L 360 408 Z Z" stroke-miterlimit="10"/></g><g transform="translate(-14,-38) scale(1,1)"><g><path fill="none" stroke="none"/><text fill="#000000" stroke="none" font-family="Arial" font-size="13px" font-style="normal" font-weight="bold" text-decoration="none" x="367.76904296875" y="427.5">archiver_xml</text></g></g><g transform="translate(-14,-38) scale(1,1)"><path fill="none" stroke="#000000" d="M 400 408 L 400 211" stroke-miterlimit="10"/></g><g transform="translate(-14,-38) scale(1,1)"><path fill="#FFFFFF" stroke="none" d="M 408.419035512032 231.3253497152483 L 400 211 L 391.580964487968 231.3253497152483"/></g><g transform="translate(-14,-38) scale(1,1)"><path fill="none" stroke="#000000" d="M 408.419035512032 231.3253497152483 L 400 211 L 391.580964487968 231.3253497152483 L 408.419035512032 231.3253497152483" stroke-miterlimit="10"/></g><g transform="translate(-14,-38) scale(1,1)"><rect fill="#C0C0C0" stroke="none" x="79" y="111" width="380.7314453125" height="107" opacity="0.2"/></g><g transform="translate(-14,-38) scale(1,1)"><rect fill="#ffffff" stroke="none" x="72" y="104" width="380.7314453125" height="107"/></g><g transform="translate(-14,-38) scale(1,1)"><path fill="none" stroke="#000000" d="M 72 104 L 452.7314453125 104 L 452.7314453125 211 L 72 211 L 72 104 Z Z" stroke-miterlimit="10"/></g><g transform="translate(-14,-38) scale(1,1)"><path fill="none" stroke="#000000" d="M 72 144 L 452.7314453125 144" stroke-miterlimit="10"/></g><g transform="translate(-14,-38) scale(1,1)"><g><path fill="none" stroke="none"/><text fill="#000000" stroke="none" font-family="Arial" font-size="13px" font-style="italic" font-weight="bold" text-decoration="none" x="239.24755859375" y="123.5">archiver</text></g></g><g transform="translate(-14,-38) scale(1,1)"><g><path fill="none" stroke="none"/><text fill="#000000" stroke="none" font-family="Arial" font-size="13px" font-style="normal" font-weight="normal" text-decoration="none" x="229.1357421875" y="138.5">(from gpds)</text></g></g><g transform="translate(-14,-38) scale(1,1)"><g><path fill="none" stroke="none"/><text fill="#000000" stroke="none" font-family="Arial" font-size="13px" font-style="italic" font-weight="normal" text-decoration="none" x="77" y="161.5">+save(stream: ostream, c: value, rootName: string): bool</text></g></g><g transform="translate(-14,-38) scale(1,1)"><g><path fill="none" stroke="none"/><text fill="#000000" stroke="none" font-family="Arial" font-size="13px" font-style="normal" font-weight="normal" text-decoration="none" x="77" y="176.5">+save(stream: ostream, object: serialize, rootName: string): bool</text></g></g><g transform="translate(-14,-38) scale(1,1)"><g><path fill="none" stroke="none"/><text fill="#000000" stroke="none" font-family="Arial" font-size="13px" font-style="italic" font-weight="normal" text-decoration="none" x="77" y="191.5">+load(stream: istream, c: value, rootName: string): bool</text></g></g><g transform="translate(-14,-38) scale(1,1)"><g><path fill="none" stroke="none"/><text fill="#000000" stroke="none" font-family="Arial" font-size="13px" font-style="normal" font-weight="normal" text-decoration="none" x="77" y="206.5">+load(stream: istream, object: serialize, rootName: string): bool</text></g></g><g transform="translate(-14,-38) scale(1,1)"><path fill="none" stroke="#000000" d="M 696 202 L 696 328" stroke-miterlimit="10"/></g><g transform="translate(-14,-38) scale(1,1)"><path fill="none" stroke="#000000" d="M 691.790482243984 317.83732514237585 L 696 328 L 700.209517756016 317.83732514237585" stroke-miterlimit="10"/></g><g transform="translate(-14,-38) scale(1,1)"><path fill="none" stroke="#000000" d="M 453 156 L 608 156" stroke-miterlimit="10"/></g><g transform="translate(-14,-38) scale(1,1)"><path fill="none" stroke="#000000" d="M 597.8373251423759 160.209517756016 L 608 156 L 597.8373251423758 151.790482243984" stroke-miterlimit="10"/></g><g transform="translate(-14,-38) scale(1,1)"><rect fill="#C0C0C0" stroke="none" x="615" y="119" width="179.16162109375" height="90" opacity="0.2"/></g><g transform="translate(-14,-38) scale(1,1)"><rect fill="#ffffff" stroke="none" x="608" y="112" width="179.16162109375" height="90"/></g><g transform="translate(-14,-38) scale(1,1)"><path fill="none" stroke="#000000" d="M 608 112 L 787.16162109375 112 L 787.16162109375 202 L 608 202 L 608 112 Z Z" stroke-miterlimit="10"/></g><g transform="translate(-14,-38) scale(1,1)"><path fill="#ffffff" stroke="none" d="M 761.16162109375 129 C 761.16162109375 124.0294368 765.19105789375 120 770.16162109375 120 C 775.13218429375 120 779.16162109375 124.0294368 779.16162109375 129 C 779.16162109375 133.9705632 775.13218429375 138 770.16162109375 138 C 765.19105789375 138 761.16162109375 133.9705632 761.16162109375 129 Z"/></g><g transform="translate(-14,-38) scale(1,1)"><path fill="none" stroke="#000000" d="M 761.16162109375 129 C 761.16162109375 124.0294368 765.19105789375 120 770.16162109375 120 C 775.13218429375 120 779.16162109375 124.0294368 779.16162109375 129 C 779.16162109375 133.9705632 775.13218429375 138 770.16162109375 138 C 765.19105789375 138 761.16162109375 133.9705632 761.16162109375 129 Z" stroke-miterlimit="10"/></g><g transform="translate(-14,-38) scale(1,1)"><path fill="none" stroke="#000000" d="M 608 165 L 787.16162109375 165" stroke-miterlimit="10"/></g><g transform="translate(-14,-38) scale(1,1)"><g><path fill="none" stroke="none"/><text fill="#000000" stroke="none" font-family="Arial" font-size="13px" font-style="normal" font-weight="normal" text-decoration="none" x="653.42041015625" y="129.5">«interface»</text></g></g><g transform="translate(-14,-38) scale(1,1)"><g><path fill="none" stroke="none"/><text fill="#000000" stroke="none" font-family="Arial" font-size="13px" font-style="italic" font-weight="bold" text-decoration="none" x="661.739013671875" y="144.5">serialize</text></g></g><g transform="translate(-14,-38) scale(1,1)"><g><path fill="none" stroke="none"/><text fill="#000000" stroke="none" font-family="Arial" font-size="13px" font-style="normal" font-weight="normal" text-decoration="none" x="652.350830078125" y="159.5">(from gpds)</text></g></g><g transform="translate(-14,-38) scale(1,1)"><g><path fill="none" stroke="none"/><text fill="#000000" stroke="none" font-family="Arial" font-size="13px" font-style="italic" font-weight="normal" text-decoration="none" x="613" y="182.5">+to_container(): container</text></g></g><g transform="translate(-14,-38) scale(1,1)"><g><path fill="none" stroke="none"/><text fill="#000000" stroke="none" font-family="Arial" font-size="13px" font-style="italic" font-weight="normal" text-decoration="none" x="613" y="197.5">+from_container(c: container)</text></g></g></g></svg>