<svg version="1.1" xmlns="http://www.w3.org/2000/svg" xmlns:xlink="http://www.w3.org/1999/xlink" width="1252" height="724"><defs/><g><g transform="translate(-22,-38) scale(1,1)"><rect fill="#C0C0C0" stroke="none" x="39" y="55" width="492.79999999999995" height="15" opacity="0.2"/></g><g transform="translate(-22,-38) scale(1,1)"><rect fill="#C0C0C0" stroke="none" x="39" y="69" width="1232" height="690" opacity="0.2"/></g><g transform="translate(-22,-38) scale(1,1)"><rect fill="#ffffff" stroke="none" x="32" y="63" width="1232" height="689"/></g><g transform="translate(-22,-38) scale(1,1)"><path fill="none" stroke="#000000" d="M 32 63 L 1264 63 L 1264 752 L 32 752 L 32 63 Z Z" stroke-miterlimit="10"/></g><g transform="translate(-22,-38) scale(1,1)"><rect fill="#ffffff" stroke="none" x="32" y="48" width="492.79999999999995" height="15"/></g><g transform="translate(-22,-38) scale(1,1)"><path fill="none" stroke="#000000" d="M 32 48 L 524.8 48 L 524.8 63 L 32 63 L 32 48 Z Z" stroke-miterlimit="10"/></g><g transform="translate(-22,-38) scale(1,1)"><rect fill="#ffffff" stroke="none" x="32" y="62" width="1232" height="690"/></g><g transform="translate(-22,-38) scale(1,1)"><path fill="none" stroke="#000000" d="M 32 62 L 1264 62 L 1264 752 L 32 752 L 32 62 Z Z" stroke-miterlimit="10"/></g><g transform="translate(-22,-38) scale(1,1)"><g><path fill="none" stroke="none"/><text fill="#000000" stroke="none" font-family="Arial" font-size="13px" font-style="normal" font-weight="bold" text-decoration="none" x="632.464111328125" y="82.5">Gpds</text></g></g><g transform="translate(-22,-38) scale(1,1)"><path fill="none" stroke="#000000" d="M 234 424 L 368 424" stroke-miterlimit="10"/></g><g transform="translate(-22,-38) scale(1,1)"><path fill="#000000" stroke="none" d="M 357.83732514237585 428.209517756016 L 368 424 L 357.83732514237585 419.790482243984 L 346 424"/></g><g transform="translate(-22,-38) scale(1,1)"><path fill="none" stroke="#000000" d="M 357.83732514237585 428.209517756016 L 368 424 L 357.83732514237585 419.790482243984 L 346 424 L 357.83732514237585 428.209517756016" stroke-miterlimit="10"/></g><g transform="translate(-22,-38) scale(1,1)"><g><path fill="none" stroke="none"/><text fill="#000000" stroke="none" font-family="Arial" font-size="13px" font-style="normal" font-weight="normal" text-decoration="none" x="246.5" y="443.5">+settings</text></g></g><g transform="translate(-22,-38) scale(1,1)"><g><path fill="none" stroke="none"/><text fill="#000000" stroke="none" font-family="Arial" font-size="13px" font-style="normal" font-weight="normal" text-decoration="none" x="247.5" y="420.5">1</text></g></g><g transform="translate(-22,-38) scale(1,1)"><path fill="none" stroke="#000000" d="M 952 420 L 838 420" stroke-miterlimit="10"/></g><g transform="translate(-22,-38) scale(1,1)"><path fill="#000000" stroke="none" d="M 848.1626748576241 415.790482243984 L 838 420 L 848.1626748576241 424.209517756016 L 860 420"/></g><g transform="translate(-22,-38) scale(1,1)"><path fill="none" stroke="#000000" d="M 848.1626748576241 415.790482243984 L 838 420 L 848.1626748576241 424.209517756016 L 860 420 L 848.1626748576241 415.790482243984" stroke-miterlimit="10"/></g><g transform="translate(-22,-38) scale(1,1)"><g><path fill="none" stroke="none"/><text fill="#000000" stroke="none" font-family="Arial" font-size="13px" font-style="normal" font-weight="normal" text-decoration="none" x="903.5" y="440.5">+values</text></g></g><g transform="translate(-22,-38) scale(1,1)"><g><path fill="none" stroke="none"/><text fill="#000000" stroke="none" font-family="Arial" font-size="13px" font-style="normal" font-weight="normal" text-decoration="none" x="919.74365234375" y="413.5">0..*</text></g></g><g transform="translate(-22,-38) scale(1,1)"><path fill="none" stroke="#000000" d="M 967 672 L 1091 672 L 1091 557" stroke-miterlimit="10"/></g><g transform="translate(-22,-38) scale(1,1)"><path fill="#000000" stroke="none" d="M 1095.2095177560159 567.1626748576241 L 1091 557 L 1086.7904822439841 567.1626748576241 L 1091 579"/></g><g transform="translate(-22,-38) scale(1,1)"><path fill="none" stroke="#000000" d="M 1095.2095177560159 567.1626748576241 L 1091 557 L 1086.7904822439841 567.1626748576241 L 1091 579 L 1095.2095177560159 567.1626748576241" stroke-miterlimit="10"/></g><g transform="translate(-22,-38) scale(1,1)"><path fill="none" stroke="#000000" d="M 977.1626748576241 667.790482243984 L 967 672 L 977.1626748576241 676.209517756016" stroke-miterlimit="10"/></g><g transform="translate(-22,-38) scale(1,1)"><g><path fill="none" stroke="none"/><text fill="#000000" stroke="none" font-family="Arial" font-size="13px" font-style="normal" font-weight="normal" text-decoration="none" x="991.5" y="688.5">+arguments</text></g></g><g transform="translate(-22,-38) scale(1,1)"><g><path fill="none" stroke="none"/><text fill="#000000" stroke="none" font-family="Arial" font-size="13px" font-style="normal" font-weight="normal" text-decoration="none" x="990.74365234375" y="665.5">0..*</text></g></g><g transform="translate(-22,-38) scale(1,1)"><path fill="none" stroke="#000000" d="M 784 672 L 648 672 L 648 513" stroke-miterlimit="10"/></g><g transform="translate(-22,-38) scale(1,1)"><path fill="#000000" stroke="none" d="M 652.209517756016 523.1626748576241 L 648 513 L 643.790482243984 523.1626748576241 L 648 535"/></g><g transform="translate(-22,-38) scale(1,1)"><path fill="none" stroke="#000000" d="M 652.209517756016 523.1626748576241 L 648 513 L 643.790482243984 523.1626748576241 L 648 535 L 652.209517756016 523.1626748576241" stroke-miterlimit="10"/></g><g transform="translate(-22,-38) scale(1,1)"><path fill="none" stroke="#000000" d="M 773.8373251423759 676.209517756016 L 784 672 L 773.8373251423758 667.790482243984" stroke-miterlimit="10"/></g><g transform="translate(-22,-38) scale(1,1)"><g><path fill="none" stroke="none"/><text fill="#000000" stroke="none" font-family="Arial" font-size="13px" font-style="normal" font-weight="normal" text-decoration="none" x="703.5" y="692.5">+arguments</text></g></g><g transform="translate(-22,-38) scale(1,1)"><g><path fill="none" stroke="none"/><text fill="#000000" stroke="none" font-family="Arial" font-size="13px" font-style="normal" font-weight="normal" text-decoration="none" x="750.74365234375" y="667.5">0..*</text></g></g><g transform="translate(-22,-38) scale(1,1)"><rect fill="#C0C0C0" stroke="none" x="583" y="345" width="251.91064453125" height="175" opacity="0.2"/></g><g transform="translate(-22,-38) scale(1,1)"><rect fill="#C0C0C0" stroke="none" x="761.92529296875" y="327" width="81.9853515625" height="22" opacity="0.2"/></g><g transform="translate(-22,-38) scale(1,1)"><rect fill="#ffffff" stroke="none" x="576" y="338" width="251.91064453125" height="175"/></g><g transform="translate(-22,-38) scale(1,1)"><path fill="none" stroke="#000000" d="M 576 338 L 827.91064453125 338 L 827.91064453125 513 L 576 513 L 576 338 Z Z" stroke-miterlimit="10"/></g><g transform="translate(-22,-38) scale(1,1)"><path fill="none" stroke="#000000" d="M 576 378 L 827.91064453125 378" stroke-miterlimit="10"/></g><g transform="translate(-22,-38) scale(1,1)"><path fill="none" stroke="#000000" d="M 576 401 L 827.91064453125 401" stroke-miterlimit="10"/></g><g transform="translate(-22,-38) scale(1,1)"><g><path fill="none" stroke="none"/><text fill="#000000" stroke="none" font-family="Arial" font-size="13px" font-style="normal" font-weight="bold" text-decoration="none" x="673.771728515625" y="357.5">Container</text></g></g><g transform="translate(-22,-38) scale(1,1)"><g><path fill="none" stroke="none"/><text fill="#000000" stroke="none" font-family="Arial" font-size="13px" font-style="normal" font-weight="normal" text-decoration="none" x="667.284423828125" y="372.5">(from Gpds)</text></g></g><g transform="translate(-22,-38) scale(1,1)"><g><path fill="none" stroke="none"/><text fill="#000000" stroke="none" font-family="Arial" font-size="13px" font-style="normal" font-weight="normal" text-decoration="none" x="581" y="395.5">+comment: string</text></g></g><g transform="translate(-22,-38) scale(1,1)"><g><path fill="none" stroke="none"/><text fill="#000000" stroke="none" font-family="Arial" font-size="13px" font-style="normal" font-weight="normal" text-decoration="none" x="581" y="418.5">+addValue(key: string, T: value)</text></g></g><g transform="translate(-22,-38) scale(1,1)"><g><path fill="none" stroke="none"/><text fill="#000000" stroke="none" font-family="Arial" font-size="13px" font-style="normal" font-weight="normal" text-decoration="none" x="581" y="433.5">+getValue(key: string): T</text></g></g><g transform="translate(-22,-38) scale(1,1)"><g><path fill="none" stroke="none"/><text fill="#000000" stroke="none" font-family="Arial" font-size="13px" font-style="normal" font-weight="normal" text-decoration="none" x="581" y="448.5">+getValues(key: string): T[0..*]</text></g></g><g transform="translate(-22,-38) scale(1,1)"><g><path fill="none" stroke="none"/><text fill="#000000" stroke="none" font-family="Arial" font-size="13px" font-style="normal" font-weight="normal" text-decoration="none" x="581" y="463.5">+addAttribute(key: string, value: string)</text></g></g><g transform="translate(-22,-38) scale(1,1)"><g><path fill="none" stroke="none"/><text fill="#000000" stroke="none" font-family="Arial" font-size="13px" font-style="normal" font-weight="normal" text-decoration="none" x="581" y="478.5">+getAttribute(key: string)</text></g></g><g transform="translate(-22,-38) scale(1,1)"><g><path fill="none" stroke="none"/><text fill="#000000" stroke="none" font-family="Arial" font-size="13px" font-style="normal" font-weight="normal" text-decoration="none" x="581" y="493.5">+setComment(comment: string)</text></g></g><g transform="translate(-22,-38) scale(1,1)"><g><path fill="none" stroke="none"/><text fill="#000000" stroke="none" font-family="Arial" font-size="13px" font-style="normal" font-weight="normal" text-decoration="none" x="581" y="508.5">+isList(): bool</text></g></g><g transform="translate(-22,-38) scale(1,1)"><rect fill="#ffffff" stroke="none" x="754.92529296875" y="320" width="81.9853515625" height="22"/></g><g transform="translate(-22,-38) scale(1,1)"><path fill="none" stroke="#000000" d="M 754.92529296875 320 L 836.91064453125 320 L 836.91064453125 342 L 754.92529296875 342 L 754.92529296875 320 Z Z" stroke-miterlimit="10" stroke-dasharray="3"/></g><g transform="translate(-22,-38) scale(1,1)"><g><path fill="none" stroke="none"/><text fill="#000000" stroke="none" font-family="Arial" font-size="13px" font-style="normal" font-weight="normal" text-decoration="none" x="759.92529296875" y="337.5">T: valueType</text></g></g><g transform="translate(-22,-38) scale(1,1)"><rect fill="#C0C0C0" stroke="none" x="959" y="329" width="264.19970703125" height="235" opacity="0.2"/></g><g transform="translate(-22,-38) scale(1,1)"><rect fill="#C0C0C0" stroke="none" x="1150.21435546875" y="311" width="81.9853515625" height="22" opacity="0.2"/></g><g transform="translate(-22,-38) scale(1,1)"><rect fill="#ffffff" stroke="none" x="952" y="322" width="264.19970703125" height="235"/></g><g transform="translate(-22,-38) scale(1,1)"><path fill="none" stroke="#000000" d="M 952 322 L 1216.19970703125 322 L 1216.19970703125 557 L 952 557 L 952 322 Z Z" stroke-miterlimit="10"/></g><g transform="translate(-22,-38) scale(1,1)"><path fill="none" stroke="#000000" d="M 952 362 L 1216.19970703125 362" stroke-miterlimit="10"/></g><g transform="translate(-22,-38) scale(1,1)"><path fill="none" stroke="#000000" d="M 952 400 L 1216.19970703125 400" stroke-miterlimit="10"/></g><g transform="translate(-22,-38) scale(1,1)"><g><path fill="none" stroke="none"/><text fill="#000000" stroke="none" font-family="Arial" font-size="13px" font-style="normal" font-weight="bold" text-decoration="none" x="1067.957763671875" y="341.5">Value</text></g></g><g transform="translate(-22,-38) scale(1,1)"><g><path fill="none" stroke="none"/><text fill="#000000" stroke="none" font-family="Arial" font-size="13px" font-style="normal" font-weight="normal" text-decoration="none" x="1049.428955078125" y="356.5">(from Gpds)</text></g></g><g transform="translate(-22,-38) scale(1,1)"><g><path fill="none" stroke="none"/><text fill="#000000" stroke="none" font-family="Arial" font-size="13px" font-style="normal" font-weight="normal" text-decoration="none" x="957" y="379.5">+comment: string</text></g></g><g transform="translate(-22,-38) scale(1,1)"><g><path fill="none" stroke="none"/><text fill="#000000" stroke="none" font-family="Arial" font-size="13px" font-style="normal" font-weight="normal" text-decoration="none" x="957" y="394.5">-value: variant</text></g></g><g transform="translate(-22,-38) scale(1,1)"><g><path fill="none" stroke="none"/><text fill="#000000" stroke="none" font-family="Arial" font-size="13px" font-style="normal" font-weight="normal" text-decoration="none" x="957" y="417.5">+set(value: T)</text></g></g><g transform="translate(-22,-38) scale(1,1)"><g><path fill="none" stroke="none"/><text fill="#000000" stroke="none" font-family="Arial" font-size="13px" font-style="normal" font-weight="normal" text-decoration="none" x="957" y="432.5">+get(): T</text></g></g><g transform="translate(-22,-38) scale(1,1)"><g><path fill="none" stroke="none"/><text fill="#000000" stroke="none" font-family="Arial" font-size="13px" font-style="normal" font-weight="normal" text-decoration="none" x="957" y="447.5">+addAttribute(name: string, value: string)</text></g></g><g transform="translate(-22,-38) scale(1,1)"><g><path fill="none" stroke="none"/><text fill="#000000" stroke="none" font-family="Arial" font-size="13px" font-style="normal" font-weight="normal" text-decoration="none" x="957" y="462.5">+getAttribute(name: string): string</text></g></g><g transform="translate(-22,-38) scale(1,1)"><g><path fill="none" stroke="none"/><text fill="#000000" stroke="none" font-family="Arial" font-size="13px" font-style="normal" font-weight="normal" text-decoration="none" x="957" y="477.5">+setComment(comment: string)</text></g></g><g transform="translate(-22,-38) scale(1,1)"><g><path fill="none" stroke="none"/><text fill="#000000" stroke="none" font-family="Arial" font-size="13px" font-style="normal" font-weight="normal" text-decoration="none" x="957" y="492.5">+isType(): bool</text></g></g><g transform="translate(-22,-38) scale(1,1)"><g><path fill="none" stroke="none"/><text fill="#000000" stroke="none" font-family="Arial" font-size="13px" font-style="normal" font-weight="normal" text-decoration="none" x="957" y="507.5">+isEmpty(): bool</text></g></g><g transform="translate(-22,-38) scale(1,1)"><g><path fill="none" stroke="none"/><text fill="#000000" stroke="none" font-family="Arial" font-size="13px" font-style="normal" font-weight="normal" text-decoration="none" x="957" y="522.5">+typeString(): string</text></g></g><g transform="translate(-22,-38) scale(1,1)"><g><path fill="none" stroke="none"/><text fill="#000000" stroke="none" font-family="Arial" font-size="13px" font-style="normal" font-weight="normal" text-decoration="none" x="957" y="537.5">-allocateContainerMemory(c: Container)</text></g></g><g transform="translate(-22,-38) scale(1,1)"><g><path fill="none" stroke="none"/><text fill="#000000" stroke="none" font-family="Arial" font-size="13px" font-style="normal" font-weight="normal" text-decoration="none" x="957" y="552.5">-freeContainerMemory()</text></g></g><g transform="translate(-22,-38) scale(1,1)"><rect fill="#ffffff" stroke="none" x="1143.21435546875" y="304" width="81.9853515625" height="22"/></g><g transform="translate(-22,-38) scale(1,1)"><path fill="none" stroke="#000000" d="M 1143.21435546875 304 L 1225.19970703125 304 L 1225.19970703125 326 L 1143.21435546875 326 L 1143.21435546875 304 Z Z" stroke-miterlimit="10" stroke-dasharray="3"/></g><g transform="translate(-22,-38) scale(1,1)"><g><path fill="none" stroke="none"/><text fill="#000000" stroke="none" font-family="Arial" font-size="13px" font-style="normal" font-weight="normal" text-decoration="none" x="1148.21435546875" y="321.5">T: valueType</text></g></g><g transform="translate(-22,-38) scale(1,1)"><rect fill="#C0C0C0" stroke="none" x="87" y="383" width="153.9169921875" height="107" opacity="0.2"/></g><g transform="translate(-22,-38) scale(1,1)"><rect fill="#ffffff" stroke="none" x="80" y="376" width="153.9169921875" height="107"/></g><g transform="translate(-22,-38) scale(1,1)"><path fill="none" stroke="#000000" d="M 80 376 L 233.9169921875 376 L 233.9169921875 483 L 80 483 L 80 376 Z Z" stroke-miterlimit="10"/></g><g transform="translate(-22,-38) scale(1,1)"><path fill="none" stroke="#000000" d="M 80 416 L 233.9169921875 416" stroke-miterlimit="10"/></g><g transform="translate(-22,-38) scale(1,1)"><g><path fill="none" stroke="none"/><text fill="#000000" stroke="none" font-family="Arial" font-size="13px" font-style="normal" font-weight="bold" text-decoration="none" x="133.47216796875" y="395.5">Settings</text></g></g><g transform="translate(-22,-38) scale(1,1)"><g><path fill="none" stroke="none"/><text fill="#000000" stroke="none" font-family="Arial" font-size="13px" font-style="normal" font-weight="normal" text-decoration="none" x="102.790771484375" y="410.5">(from ArchiverXml)</text></g></g><g transform="translate(-22,-38) scale(1,1)"><g><path fill="none" stroke="none"/><text fill="#000000" stroke="none" font-family="Arial" font-size="13px" font-style="normal" font-weight="normal" text-decoration="none" x="85" y="433.5">+printComments: bool</text></g></g><g transform="translate(-22,-38) scale(1,1)"><g><path fill="none" stroke="none"/><text fill="#000000" stroke="none" font-family="Arial" font-size="13px" font-style="normal" font-weight="normal" text-decoration="none" x="85" y="448.5">+prefixAnnotations: bool</text></g></g><g transform="translate(-22,-38) scale(1,1)"><g><path fill="none" stroke="none"/><text fill="#000000" stroke="none" font-family="Arial" font-size="13px" font-style="normal" font-weight="normal" text-decoration="none" x="85" y="463.5">+annotateListCount: bool</text></g></g><g transform="translate(-22,-38) scale(1,1)"><g><path fill="none" stroke="none"/><text fill="#000000" stroke="none" font-family="Arial" font-size="13px" font-style="normal" font-weight="normal" text-decoration="none" x="85" y="478.5">+annotateTypes: bool</text></g></g><g transform="translate(-22,-38) scale(1,1)"><rect fill="#C0C0C0" stroke="none" x="791" y="639" width="183.4970703125" height="77" opacity="0.2"/></g><g transform="translate(-22,-38) scale(1,1)"><rect fill="#ffffff" stroke="none" x="784" y="632" width="183.4970703125" height="77"/></g><g transform="translate(-22,-38) scale(1,1)"><path fill="none" stroke="#000000" d="M 784 632 L 967.4970703125 632 L 967.4970703125 709 L 784 709 L 784 632 Z Z" stroke-miterlimit="10"/></g><g transform="translate(-22,-38) scale(1,1)"><path fill="none" stroke="#000000" d="M 784 672 L 967.4970703125 672" stroke-miterlimit="10"/></g><g transform="translate(-22,-38) scale(1,1)"><g><path fill="none" stroke="none"/><text fill="#000000" stroke="none" font-family="Arial" font-size="13px" font-style="normal" font-weight="bold" text-decoration="none" x="848.291748046875" y="651.5">Attributes</text></g></g><g transform="translate(-22,-38) scale(1,1)"><g><path fill="none" stroke="none"/><text fill="#000000" stroke="none" font-family="Arial" font-size="13px" font-style="normal" font-weight="normal" text-decoration="none" x="841.07763671875" y="666.5">(from Gpds)</text></g></g><g transform="translate(-22,-38) scale(1,1)"><g><path fill="none" stroke="none"/><text fill="#000000" stroke="none" font-family="Arial" font-size="13px" font-style="normal" font-weight="normal" text-decoration="none" x="789" y="689.5">+add(key: string, value: string)</text></g></g><g transform="translate(-22,-38) scale(1,1)"><g><path fill="none" stroke="none"/><text fill="#000000" stroke="none" font-family="Arial" font-size="13px" font-style="normal" font-weight="normal" text-decoration="none" x="789" y="704.5">+get(key: string): string</text></g></g><g transform="translate(-22,-38) scale(1,1)"><rect fill="#C0C0C0" stroke="none" x="375" y="415" width="85.5908203125" height="32" opacity="0.2"/></g><g transform="translate(-22,-38) scale(1,1)"><rect fill="#ffffff" stroke="none" x="368" y="408" width="85.5908203125" height="32"/></g><g transform="translate(-22,-38) scale(1,1)"><path fill="none" stroke="#000000" d="M 368 408 L 453.5908203125 408 L 453.5908203125 440 L 368 440 L 368 408 Z Z" stroke-miterlimit="10"/></g><g transform="translate(-22,-38) scale(1,1)"><g><path fill="none" stroke="none"/><text fill="#000000" stroke="none" font-family="Arial" font-size="13px" font-style="normal" font-weight="bold" text-decoration="none" x="375.7626953125" y="427.5">ArchiverXml</text></g></g><g transform="translate(-22,-38) scale(1,1)"><path fill="none" stroke="#000000" d="M 408 408 L 408 211" stroke-miterlimit="10"/></g><g transform="translate(-22,-38) scale(1,1)"><path fill="#FFFFFF" stroke="none" d="M 416.419035512032 231.3253497152483 L 408 211 L 399.580964487968 231.3253497152483"/></g><g transform="translate(-22,-38) scale(1,1)"><path fill="none" stroke="#000000" d="M 416.419035512032 231.3253497152483 L 408 211 L 399.580964487968 231.3253497152483 L 416.419035512032 231.3253497152483" stroke-miterlimit="10"/></g><g transform="translate(-22,-38) scale(1,1)"><rect fill="#C0C0C0" stroke="none" x="87" y="111" width="380.7314453125" height="107" opacity="0.2"/></g><g transform="translate(-22,-38) scale(1,1)"><rect fill="#ffffff" stroke="none" x="80" y="104" width="380.7314453125" height="107"/></g><g transform="translate(-22,-38) scale(1,1)"><path fill="none" stroke="#000000" d="M 80 104 L 460.7314453125 104 L 460.7314453125 211 L 80 211 L 80 104 Z Z" stroke-miterlimit="10"/></g><g transform="translate(-22,-38) scale(1,1)"><path fill="none" stroke="#000000" d="M 80 144 L 460.7314453125 144" stroke-miterlimit="10"/></g><g transform="translate(-22,-38) scale(1,1)"><g><path fill="none" stroke="none"/><text fill="#000000" stroke="none" font-family="Arial" font-size="13px" font-style="italic" font-weight="bold" text-decoration="none" x="246.527099609375" y="123.5">Archiver</text></g></g><g transform="translate(-22,-38) scale(1,1)"><g><path fill="none" stroke="none"/><text fill="#000000" stroke="none" font-family="Arial" font-size="13px" font-style="normal" font-weight="normal" text-decoration="none" x="235.69482421875" y="138.5">(from Gpds)</text></g></g><g transform="translate(-22,-38) scale(1,1)"><g><path fill="none" stroke="none"/><text fill="#000000" stroke="none" font-family="Arial" font-size="13px" font-style="italic" font-weight="normal" text-decoration="none" x="85" y="161.5">+save(stream: ostream, c: Value, rootName: string): bool</text></g></g><g transform="translate(-22,-38) scale(1,1)"><g><path fill="none" stroke="none"/><text fill="#000000" stroke="none" font-family="Arial" font-size="13px" font-style="normal" font-weight="normal" text-decoration="none" x="85" y="176.5">+save(stream: ostream, object: Serialize, rootName: string): bool</text></g></g><g transform="translate(-22,-38) scale(1,1)"><g><path fill="none" stroke="none"/><text fill="#000000" stroke="none" font-family="Arial" font-size="13px" font-style="italic" font-weight="normal" text-decoration="none" x="85" y="191.5">+load(stream: istream, c: Value, rootName: string): bool</text></g></g><g transform="translate(-22,-38) scale(1,1)"><g><path fill="none" stroke="none"/><text fill="#000000" stroke="none" font-family="Arial" font-size="13px" font-style="normal" font-weight="normal" text-decoration="none" x="85" y="206.5">+load(stream: istream, object: Serialize, rootName: string): bool</text></g></g><g transform="translate(-22,-38) scale(1,1)"><path fill="none" stroke="#000000" d="M 704 202 L 704 320" stroke-miterlimit="10"/></g><g transform="translate(-22,-38) scale(1,1)"><path fill="none" stroke="#000000" d="M 699.790482243984 309.83732514237585 L 704 320 L 708.209517756016 309.83732514237585" stroke-miterlimit="10"/></g><g transform="translate(-22,-38) scale(1,1)"><path fill="none" stroke="#000000" d="M 461 156 L 616 156" stroke-miterlimit="10"/></g><g transform="translate(-22,-38) scale(1,1)"><path fill="none" stroke="#000000" d="M 605.8373251423759 160.209517756016 L 616 156 L 605.8373251423758 151.790482243984" stroke-miterlimit="10"/></g><g transform="translate(-22,-38) scale(1,1)"><rect fill="#C0C0C0" stroke="none" x="623" y="119" width="177.7080078125" height="90" opacity="0.2"/></g><g transform="translate(-22,-38) scale(1,1)"><rect fill="#ffffff" stroke="none" x="616" y="112" width="177.7080078125" height="90"/></g><g transform="translate(-22,-38) scale(1,1)"><path fill="none" stroke="#000000" d="M 616 112 L 793.7080078125 112 L 793.7080078125 202 L 616 202 L 616 112 Z Z" stroke-miterlimit="10"/></g><g transform="translate(-22,-38) scale(1,1)"><path fill="#ffffff" stroke="none" d="M 767.7080078125 129 C 767.7080078125 124.0294368 771.7374446125 120 776.7080078125 120 C 781.6785710125 120 785.7080078125 124.0294368 785.7080078125 129 C 785.7080078125 133.9705632 781.6785710125 138 776.7080078125 138 C 771.7374446125 138 767.7080078125 133.9705632 767.7080078125 129 Z"/></g><g transform="translate(-22,-38) scale(1,1)"><path fill="none" stroke="#000000" d="M 767.7080078125 129 C 767.7080078125 124.0294368 771.7374446125 120 776.7080078125 120 C 781.6785710125 120 785.7080078125 124.0294368 785.7080078125 129 C 785.7080078125 133.9705632 781.6785710125 138 776.7080078125 138 C 771.7374446125 138 767.7080078125 133.9705632 767.7080078125 129 Z" stroke-miterlimit="10"/></g><g transform="translate(-22,-38) scale(1,1)"><path fill="none" stroke="#000000" d="M 616 165 L 793.7080078125 165" stroke-miterlimit="10"/></g><g transform="translate(-22,-38) scale(1,1)"><g><path fill="none" stroke="none"/><text fill="#000000" stroke="none" font-family="Arial" font-size="13px" font-style="normal" font-weight="normal" text-decoration="none" x="660.693603515625" y="129.5">«interface»</text></g></g><g transform="translate(-22,-38) scale(1,1)"><g><path fill="none" stroke="none"/><text fill="#000000" stroke="none" font-family="Arial" font-size="13px" font-style="italic" font-weight="bold" text-decoration="none" x="667.9267578125" y="144.5">Serialize</text></g></g><g transform="translate(-22,-38) scale(1,1)"><g><path fill="none" stroke="none"/><text fill="#000000" stroke="none" font-family="Arial" font-size="13px" font-style="normal" font-weight="normal" text-decoration="none" x="658.18310546875" y="159.5">(from Gpds)</text></g></g><g transform="translate(-22,-38) scale(1,1)"><g><path fill="none" stroke="none"/><text fill="#000000" stroke="none" font-family="Arial" font-size="13px" font-style="italic" font-weight="normal" text-decoration="none" x="621" y="182.5">+toContainer(): Container</text></g></g><g transform="translate(-22,-38) scale(1,1)"><g><path fill="none" stroke="none"/><text fill="#000000" stroke="none" font-family="Arial" font-size="13px" font-style="italic" font-weight="normal" text-decoration="none" x="621" y="197.5">+fromContainer(c: Container)</text></g></g></g></svg>